SplineFontDB: 3.0
FontName: MrsSaintDelafield-Regular
FullName: Mrs Saint Delafield Regular
FamilyName: Mrs Saint Delafield
Weight: Book
Copyright: Copyright (c) 2004 Alejandro Paul (sudtipos@sudtipos.com),\nwith Reserved Font Name "Mrs Saint Delafield"
Version: 1.000
ItalicAngle: 0
UnderlinePosition: -50
UnderlineWidth: 50
Ascent: 800
Descent: 200
sfntRevision: 0x00010000
LayerCount: 2
Layer: 0 1 "Back"  1
Layer: 1 1 "Fore"  0
XUID: [1021 288 713564382 15965697]
FSType: 0
OS2Version: 2
OS2_WeightWidthSlopeOnly: 0
OS2_UseTypoMetrics: 1
CreationTime: 1322324892
ModificationTime: 1322354134
PfmFamily: 17
TTFWeight: 400
TTFWidth: 5
LineGap: 0
VLineGap: 0
Panose: 2 0 0 0 0 0 0 0 0 0
OS2TypoAscent: 106
OS2TypoAOffset: 1
OS2TypoDescent: -419
OS2TypoDOffset: 1
OS2TypoLinegap: 0
OS2WinAscent: 0
OS2WinAOffset: 1
OS2WinDescent: 0
OS2WinDOffset: 1
HheadAscent: 0
HheadAOffset: 1
HheadDescent: 0
HheadDOffset: 1
OS2SubXSize: 700
OS2SubYSize: 650
OS2SubXOff: 0
OS2SubYOff: 140
OS2SupXSize: 700
OS2SupYSize: 650
OS2SupXOff: 0
OS2SupYOff: 477
OS2StrikeYSize: 50
OS2StrikeYPos: 250
OS2Vendor: 'SUDT'
OS2CodePages: 20000001.00000000
OS2UnicodeRanges: 80000027.5000004b.00000000.00000000
Lookup: 258 0 0 "'kern' Horizontal Kerning in Latin lookup 0"  {"'kern' Horizontal Kerning in Latin lookup 0 subtable"  } ['kern' ('DFLT' <'dflt' > 'latn' <'dflt' > ) ]
MarkAttachClasses: 1
DEI: 91125
TtTable: prep
PUSHW_1
 511
SCANCTRL
PUSHB_1
 4
SCANTYPE
EndTTInstrs
ShortTable: maxp 16
  1
  0
  238
  141
  7
  0
  0
  2
  0
  1
  1
  0
  64
  0
  0
  0
EndShort
LangName: 1033 "" "" "" "AlejandroPaul: Mrs Saint Delafield: 2004" "" "Version 1.000" "" "Mrs Saint Delafield is a trademark of Alejandro Paul." "Alejandro Paul" "Alejandro Paul" "" "http://www.sudtipos.com" "http://www.sudtipos.com" "This Font Software is licensed under the SIL Open Font License,+AA0A-Version 1.1. This license is available with a FAQ at:+AA0A-http://scripts.sil.org/OFL" "http://scripts.sil.org/OFL" 
GaspTable: 1 65535 15

StartChar: exclam
Encoding: 33 33 4
Width: 327
GlyphClass: 2
Flags: W
LayerCount: 2
Fore
SplineSet
476.5 636 m 128,-1,1
 488 647 488 647 500 647 c 128,-1,2
 512 647 512 647 518 639 c 1,3,4
 518 634 518 634 361.5 393 c 128,-1,5
 205 152 205 152 174 103 c 0,6,7
 163 85 163 85 153 85 c 0,8,9
 145 85 145 85 145 96 c 1,10,11
 146 102 146 102 298.5 353 c 128,-1,12
 451 604 451 604 458 614.5 c 128,-1,0
 465 625 465 625 476.5 636 c 128,-1,1
134 42 m 128,-1,14
 140 36 140 36 140 24 c 128,-1,15
 140 12 140 12 127 -4 c 128,-1,16
 114 -20 114 -20 103 -20 c 128,-1,17
 92 -20 92 -20 86 -13.5 c 128,-1,18
 80 -7 80 -7 80 1.5 c 128,-1,19
 80 10 80 10 94 29 c 128,-1,20
 108 48 108 48 118 48 c 128,-1,13
 128 48 128 48 134 42 c 128,-1,14
EndSplineSet
EndChar

StartChar: quotedbl
Encoding: 34 34 5
Width: 271
GlyphClass: 2
Flags: W
LayerCount: 2
Fore
SplineSet
299 565 m 0,0,1
 299 561 299 561 296 555 c 1,2,-1
 212 453 l 2,3,4
 205 443 205 443 198 443 c 0,5,6
 193 443 193 443 193 448.5 c 128,-1,7
 193 454 193 454 196 460 c 2,8,-1
 272 571 l 2,9,10
 278 581 278 581 287 581 c 0,11,12
 299 581 299 581 299 565 c 0,0,1
364 565 m 0,13,14
 364 561 364 561 361 555 c 1,15,-1
 277 453 l 2,16,17
 270 443 270 443 263 443 c 0,18,19
 258 443 258 443 258 448.5 c 128,-1,20
 258 454 258 454 261 460 c 2,21,-1
 337 571 l 2,22,23
 343 581 343 581 352 581 c 0,24,25
 364 581 364 581 364 565 c 0,13,14
EndSplineSet
EndChar

StartChar: numbersign
Encoding: 35 35 6
Width: 503
GlyphClass: 2
Flags: W
LayerCount: 2
Fore
SplineSet
330 97 m 1,0,-1
 351 155 l 1,1,2
 328 154 328 154 285 154 c 1,3,-1
 264 97 l 1,4,-1
 330 97 l 1,0,-1
359 179 m 1,5,6
 397 292 397 292 406 292 c 0,7,8
 411 292 411 292 415.5 287.5 c 128,-1,9
 420 283 420 283 420 277 c 1,10,-1
 386 180 l 1,11,12
 472 183 472 183 499 189 c 1,13,14
 504 189 504 189 504 186 c 0,15,16
 504 158 504 158 491 158 c 0,17,18
 486 158 486 158 377 155 c 1,19,-1
 357 97 l 1,20,21
 448 100 448 100 465 106 c 1,22,23
 471 106 471 106 471 103 c 0,24,25
 471 77 471 77 458 76 c 2,26,-1
 348 72 l 1,27,-1
 312 -29 l 2,28,29
 310 -35 310 -35 305.5 -35 c 128,-1,30
 301 -35 301 -35 296.5 -30.5 c 128,-1,31
 292 -26 292 -26 292 -20 c 1,32,33
 319 64 319 64 322 72 c 1,34,35
 300 71 300 71 255 71 c 1,36,-1
 220 -29 l 1,37,38
 219 -35 219 -35 213.5 -35 c 128,-1,39
 208 -35 208 -35 204 -30.5 c 128,-1,40
 200 -26 200 -26 200 -20 c 1,41,42
 216 31 216 31 228 71 c 1,43,-1
 152 71 l 2,44,45
 123 71 123 71 123 79 c 0,46,47
 123 97 123 97 136 97 c 2,48,-1
 237 97 l 1,49,50
 245 116 245 116 257 154 c 1,51,-1
 185 154 l 2,52,53
 156 154 156 154 156 162 c 0,54,55
 156 179 156 179 169 179 c 2,56,-1
 266 179 l 1,57,-1
 298 267 l 2,58,59
 307 292 307 292 312.5 292 c 128,-1,60
 318 292 318 292 323 287.5 c 128,-1,61
 328 283 328 283 328 277 c 1,62,-1
 293 179 l 1,63,-1
 359 179 l 1,5,6
EndSplineSet
EndChar

StartChar: dollar
Encoding: 36 36 7
Width: 613
GlyphClass: 2
Flags: W
LayerCount: 2
Fore
SplineSet
593 807 m 128,-1,1
 593 796 593 796 584 783.5 c 128,-1,2
 575 771 575 771 559 744 c 1,3,4
 600 735 600 735 622 716.5 c 128,-1,5
 644 698 644 698 644 676 c 0,6,7
 644 643 644 643 599 618 c 128,-1,8
 554 593 554 593 473 589 c 1,9,10
 436 516 436 516 405 452 c 1,11,12
 411 447 411 447 439.5 424 c 128,-1,13
 468 401 468 401 477 393.5 c 128,-1,14
 486 386 486 386 508.5 365.5 c 128,-1,15
 531 345 531 345 539.5 333 c 128,-1,16
 548 321 548 321 560 302 c 0,17,18
 582 269 582 269 582 234.5 c 128,-1,19
 582 200 582 200 569.5 166.5 c 128,-1,20
 557 133 557 133 529 98 c 128,-1,21
 501 63 501 63 462 34.5 c 128,-1,22
 423 6 423 6 364 -12 c 128,-1,23
 305 -30 305 -30 237 -30 c 0,24,25
 222 -30 222 -30 194 -28 c 1,26,27
 172 -86 172 -86 162 -122 c 1,28,29
 158 -126 158 -126 152.5 -126 c 128,-1,30
 147 -126 147 -126 141.5 -119.5 c 128,-1,31
 136 -113 136 -113 134 -100 c 1,32,33
 145 -65 145 -65 161 -24 c 1,34,35
 84 -10 84 -10 45 26.5 c 128,-1,36
 6 63 6 63 6 111 c 0,37,38
 6 176 6 176 73 227 c 128,-1,39
 140 278 140 278 250 278 c 0,40,41
 271 278 271 278 287 274 c 1,42,43
 313 331 313 331 368 441 c 1,44,45
 326 477 326 477 304 498.5 c 128,-1,46
 282 520 282 520 261.5 550.5 c 128,-1,47
 241 581 241 581 241 607 c 0,48,49
 241 674 241 674 314.5 713 c 128,-1,50
 388 752 388 752 480 752 c 0,51,52
 514 752 514 752 535 748 c 1,53,54
 545 768 545 768 573 808 c 0,55,56
 580 818 580 818 585 818 c 0,57,0
 593 818 593 818 593 807 c 128,-1,1
377 173 m 0,58,59
 377 151 377 151 362 151 c 0,60,61
 351 151 351 151 348 163 c 0,62,63
 337 209 337 209 304 235 c 1,64,65
 249 111 249 111 203 -5 c 1,66,67
 233 -9 233 -9 251 -9 c 0,68,69
 369 -9 369 -9 448.5 62.5 c 128,-1,70
 528 134 528 134 528 218 c 0,71,72
 528 269 528 269 492 316 c 128,-1,73
 456 363 456 363 390 422 c 1,74,75
 358 356 358 356 318 265 c 1,76,77
 377 240 377 240 377 173 c 0,58,59
100 220 m 128,-1,79
 53 182 53 182 53 134.5 c 128,-1,80
 53 87 53 87 83.5 52 c 128,-1,81
 114 17 114 17 170 1 c 1,82,83
 210 105 210 105 276 250 c 1,84,85
 254 258 254 258 231 258 c 0,86,78
 147 258 147 258 100 220 c 128,-1,79
426 626 m 2,87,-1
 455 624 l 1,88,-1
 463 624 l 1,89,90
 488 669 488 669 521 724 c 1,91,92
 501 728 501 728 472 728 c 0,93,94
 400 728 400 728 342 696.5 c 128,-1,95
 284 665 284 665 284 612 c 0,96,97
 284 576 284 576 309 543 c 128,-1,98
 334 510 334 510 382 470 c 1,99,100
 416 537 416 537 445 589 c 1,101,102
 417 595 417 595 417 619 c 1,103,104
 419 626 419 626 426 626 c 2,87,-1
619 670 m 0,105,106
 619 684 619 684 598.5 698 c 128,-1,107
 578 712 578 712 544 720 c 1,108,109
 505 650 505 650 492 624 c 1,110,111
 619 630 619 630 619 670 c 0,105,106
EndSplineSet
EndChar

StartChar: percent
Encoding: 37 37 8
Width: 916
GlyphClass: 2
Flags: W
LayerCount: 2
Fore
SplineSet
454.5 751 m 128,-1,1
 466 741 466 741 466 726.5 c 128,-1,2
 466 712 466 712 458 698 c 1,3,4
 508 691 508 691 508 629 c 128,-1,5
 508 567 508 567 463 484.5 c 128,-1,6
 418 402 418 402 339.5 338 c 128,-1,7
 261 274 261 274 180 274 c 0,8,9
 94 274 94 274 94 366 c 0,10,11
 94 437 94 437 142 529.5 c 128,-1,12
 190 622 190 622 269 691.5 c 128,-1,13
 348 761 348 761 424 761 c 0,14,0
 443 761 443 761 454.5 751 c 128,-1,1
841.5 470 m 128,-1,16
 853 460 853 460 853 445.5 c 128,-1,17
 853 431 853 431 845 417 c 1,18,19
 895 410 895 410 895 348 c 128,-1,20
 895 286 895 286 850 203.5 c 128,-1,21
 805 121 805 121 726.5 57 c 128,-1,22
 648 -7 648 -7 567 -7 c 0,23,24
 481 -7 481 -7 481 85 c 0,25,26
 481 156 481 156 529 248.5 c 128,-1,27
 577 341 577 341 656 410.5 c 128,-1,28
 735 480 735 480 811 480 c 0,29,15
 830 480 830 480 841.5 470 c 128,-1,16
376 626.5 m 128,-1,31
 362 614 362 614 362.5 606 c 128,-1,32
 363 598 363 598 363 597 c 0,33,34
 363 590 363 590 358.5 590 c 128,-1,35
 354 590 354 590 348.5 596 c 128,-1,36
 343 602 343 602 343 607 c 0,37,38
 343 629 343 629 359.5 645.5 c 128,-1,39
 376 662 376 662 396 670 c 0,40,41
 448 692 448 692 448 720 c 0,42,43
 448 745 448 745 414 745 c 0,44,45
 346 745 346 745 279 681 c 128,-1,46
 212 617 212 617 173 532 c 128,-1,47
 134 447 134 447 134 381 c 0,48,49
 134 296 134 296 202 296 c 0,50,51
 261 296 261 296 326.5 359 c 128,-1,52
 392 422 392 422 433 502 c 128,-1,53
 474 582 474 582 474 628 c 128,-1,54
 474 674 474 674 447 683 c 1,55,56
 436 670 436 670 413 654.5 c 128,-1,30
 390 639 390 639 376 626.5 c 128,-1,31
763 345.5 m 128,-1,58
 749 333 749 333 749.5 325 c 128,-1,59
 750 317 750 317 750 316 c 0,60,61
 750 309 750 309 745.5 309 c 128,-1,62
 741 309 741 309 735.5 315 c 128,-1,63
 730 321 730 321 730 326 c 0,64,65
 730 348 730 348 746.5 364.5 c 128,-1,66
 763 381 763 381 782 389 c 0,67,68
 835 411 835 411 835 439 c 0,69,70
 835 464 835 464 801 464 c 0,71,72
 733 464 733 464 666 400 c 128,-1,73
 599 336 599 336 560 251 c 128,-1,74
 521 166 521 166 521 100 c 0,75,76
 521 15 521 15 589 15 c 0,77,78
 648 15 648 15 713.5 78 c 128,-1,79
 779 141 779 141 820 221 c 128,-1,80
 861 301 861 301 861 347 c 128,-1,81
 861 393 861 393 834 402 c 1,82,83
 823 389 823 389 800 373.5 c 128,-1,57
 777 358 777 358 763 345.5 c 128,-1,58
780 810 m 0,84,85
 358 209 358 209 268 -82 c 1,86,87
 264 -86 264 -86 258.5 -86 c 128,-1,88
 253 -86 253 -86 247.5 -79.5 c 128,-1,89
 242 -73 242 -73 240 -60 c 1,90,91
 293 103 293 103 438 336 c 0,92,93
 561 534 561 534 657 672 c 128,-1,94
 753 810 753 810 762.5 824 c 128,-1,95
 772 838 772 838 777 838 c 0,96,97
 785 838 785 838 785 827 c 128,-1,98
 785 816 785 816 780 810 c 0,84,85
EndSplineSet
EndChar

StartChar: ampersand
Encoding: 38 38 9
Width: 552
GlyphClass: 2
Flags: W
LayerCount: 2
Fore
SplineSet
-16 106 m 0,0,1
 -16 153 -16 153 5 202 c 128,-1,2
 26 251 26 251 53.5 288 c 128,-1,3
 81 325 81 325 130.5 371 c 128,-1,4
 180 417 180 417 213 443.5 c 128,-1,5
 246 470 246 470 303 512 c 1,6,7
 321 586 321 586 358 636 c 0,8,9
 422 724 422 724 490 724 c 0,10,11
 517 724 517 724 517 707 c 0,12,13
 517 678 517 678 488.5 641 c 128,-1,14
 460 604 460 604 427 575.5 c 128,-1,15
 394 547 394 547 332 498 c 1,16,17
 323 447 323 447 323 389 c 128,-1,18
 323 331 323 331 327 294 c 1,19,20
 418 347 418 347 490 347 c 128,-1,21
 562 347 562 347 562 283 c 0,22,23
 562 237 562 237 517 174 c 128,-1,24
 472 111 472 111 400 61 c 1,25,26
 460 -37 460 -37 555 -37 c 0,27,28
 589 -37 589 -37 629.5 -15.5 c 128,-1,29
 670 6 670 6 675.5 6 c 128,-1,30
 681 6 681 6 681 1 c 0,31,32
 681 -17 681 -17 630 -38.5 c 128,-1,33
 579 -60 579 -60 529 -60 c 0,34,35
 433 -60 433 -60 367 40 c 1,36,37
 257 -25 257 -25 142 -25 c 0,38,39
 69 -25 69 -25 26.5 9 c 128,-1,40
 -16 43 -16 43 -16 106 c 0,0,1
238 218 m 1,41,42
 257 244 257 244 291 270 c 1,43,44
 286 318 286 318 286 367 c 128,-1,45
 286 416 286 416 294 467 c 1,46,47
 97 310 97 310 50 201 c 0,48,49
 29 150 29 150 29 99 c 0,50,51
 29 -3 29 -3 157 -3 c 0,52,53
 252 -3 252 -3 355 61 c 1,54,55
 310 141 310 141 294 251 c 1,56,57
 244 206 244 206 241 154 c 1,58,59
 237 140 237 140 225.5 140 c 128,-1,60
 214 140 214 140 214 161 c 1,61,62
 213 171 213 171 213 207.5 c 128,-1,63
 213 244 213 244 214 260.5 c 128,-1,64
 215 277 215 277 226 277 c 0,65,66
 232 277 232 277 236.5 270.5 c 128,-1,67
 241 264 241 264 241 254.5 c 128,-1,68
 241 245 241 245 238 218 c 1,41,42
526 267 m 0,69,70
 526 320 526 320 461.5 320 c 128,-1,71
 397 320 397 320 329 278 c 1,72,73
 345 161 345 161 387 83 c 1,74,75
 448 127 448 127 487 179 c 128,-1,76
 526 231 526 231 526 267 c 0,69,70
484 695 m 0,77,78
 484 705 484 705 469 705 c 0,79,80
 439 705 439 705 400.5 664.5 c 128,-1,81
 362 624 362 624 341 540 c 1,82,83
 414 595 414 595 449 630.5 c 128,-1,84
 484 666 484 666 484 695 c 0,77,78
EndSplineSet
EndChar

StartChar: quotesingle
Encoding: 39 39 10
Width: 206
GlyphClass: 2
Flags: W
LayerCount: 2
Fore
SplineSet
299 565 m 0,0,1
 299 561 299 561 296 555 c 1,2,-1
 212 453 l 2,3,4
 205 443 205 443 198 443 c 0,5,6
 193 443 193 443 193 448.5 c 128,-1,7
 193 454 193 454 196 460 c 2,8,-1
 272 571 l 2,9,10
 278 581 278 581 287 581 c 0,11,12
 299 581 299 581 299 565 c 0,0,1
EndSplineSet
EndChar

StartChar: parenleft
Encoding: 40 40 11
Width: 317
GlyphClass: 2
Flags: W
LayerCount: 2
Fore
SplineSet
589 766 m 2,0,-1
 584 754 l 1,1,2
 395 663 395 663 275.5 486.5 c 128,-1,3
 156 310 156 310 156 86 c 0,4,5
 156 -62 156 -62 217 -150 c 1,6,7
 217 -164 217 -164 213.5 -164 c 128,-1,8
 210 -164 210 -164 207 -160 c 0,9,10
 160 -101 160 -101 139 -46.5 c 128,-1,11
 118 8 118 8 118 83 c 128,-1,12
 118 158 118 158 134 233.5 c 128,-1,13
 150 309 150 309 177 368.5 c 128,-1,14
 204 428 204 428 239.5 481 c 128,-1,15
 275 534 275 534 313.5 573.5 c 128,-1,16
 352 613 352 613 391 646 c 128,-1,17
 430 679 430 679 466 702 c 0,18,19
 533 745 533 745 571 761 c 2,20,-1
 587 768 l 2,21,22
 589 768 589 768 589 766 c 2,0,-1
EndSplineSet
EndChar

StartChar: parenright
Encoding: 41 41 12
Width: 317
GlyphClass: 2
Flags: W
LayerCount: 2
Fore
SplineSet
-44 -162 m 2,0,-1
 -39 -150 l 1,1,2
 150 -59 150 -59 269.5 117.5 c 128,-1,3
 389 294 389 294 389 518 c 0,4,5
 389 666 389 666 328 754 c 1,6,7
 328 768 328 768 331.5 768 c 128,-1,8
 335 768 335 768 338 764 c 0,9,10
 385 705 385 705 406 650.5 c 128,-1,11
 427 596 427 596 427 521 c 128,-1,12
 427 446 427 446 411 370.5 c 128,-1,13
 395 295 395 295 368 235.5 c 128,-1,14
 341 176 341 176 305.5 123 c 128,-1,15
 270 70 270 70 231 30.5 c 128,-1,16
 192 -9 192 -9 153.5 -42 c 128,-1,17
 115 -75 115 -75 80 -98 c 0,18,19
 12 -141 12 -141 -26 -157 c 2,20,-1
 -42 -164 l 2,21,22
 -44 -164 -44 -164 -44 -162 c 2,0,-1
EndSplineSet
EndChar

StartChar: asterisk
Encoding: 42 42 13
Width: 500
GlyphClass: 2
Flags: W
LayerCount: 2
Fore
SplineSet
276 238 m 1,0,-1
 310 192 l 2,1,2
 313 188 313 188 313 183 c 128,-1,3
 313 178 313 178 304.5 178 c 128,-1,4
 296 178 296 178 292 185 c 2,5,-1
 265 227 l 1,6,-1
 247 167 l 1,7,8
 235 158 235 158 231.5 158 c 128,-1,9
 228 158 228 158 228 162.5 c 128,-1,10
 228 167 228 167 229 170 c 2,11,-1
 247 224 l 1,12,-1
 196 186 l 2,13,14
 192 183 192 183 186 183 c 128,-1,15
 180 183 180 183 180 188 c 128,-1,16
 180 193 180 193 188 198 c 1,17,-1
 239 238 l 1,18,-1
 182 238 l 2,19,20
 174 238 174 238 174 246.5 c 128,-1,21
 174 255 174 255 188 255 c 2,22,-1
 245 255 l 1,23,-1
 224 295 l 2,24,25
 221 301 221 301 221 304 c 0,26,27
 221 311 221 311 229 311 c 128,-1,28
 237 311 237 311 237 307 c 1,29,-1
 263 259 l 1,30,-1
 282 322 l 1,31,32
 289 333 289 333 295 333 c 128,-1,33
 301 333 301 333 301 330 c 128,-1,34
 301 327 301 327 300 325 c 2,35,-1
 282 269 l 1,36,-1
 333 308 l 1,37,38
 341 310 341 310 343 310 c 0,39,40
 351 310 351 310 351 305 c 128,-1,41
 351 300 351 300 347 296 c 0,42,43
 311 269 311 269 289 255 c 1,44,-1
 344 255 l 2,45,46
 352 255 352 255 352 246.5 c 128,-1,47
 352 238 352 238 339 238 c 2,48,-1
 276 238 l 1,0,-1
EndSplineSet
EndChar

StartChar: plus
Encoding: 43 43 14
Width: 356
GlyphClass: 2
Flags: W
LayerCount: 2
Fore
SplineSet
362 297 m 0,0,1
 362 293 362 293 358.5 293 c 128,-1,2
 355 293 355 293 353 294 c 1,3,-1
 213 294 l 1,4,-1
 167 163 l 2,5,6
 165 156 165 156 159 156 c 128,-1,7
 153 156 153 156 147.5 161.5 c 128,-1,8
 142 167 142 167 142 174 c 1,9,10
 164 247 164 247 180 294 c 1,11,-1
 71 294 l 2,12,13
 56 294 56 294 56 315 c 0,14,15
 56 321 56 321 62 323 c 128,-1,16
 68 325 68 325 112.5 325 c 128,-1,17
 157 325 157 325 190 324 c 1,18,19
 235 452 235 452 243 452 c 128,-1,20
 251 452 251 452 256.5 446 c 128,-1,21
 262 440 262 440 262 433 c 1,22,-1
 223 324 l 1,23,-1
 347 319 l 2,24,25
 362 318 362 318 362 297 c 0,0,1
EndSplineSet
EndChar

StartChar: comma
Encoding: 44 44 15
Width: 206
GlyphClass: 2
Flags: W
LayerCount: 2
Fore
SplineSet
119 47 m 0,0,1
 149 47 149 47 149 27 c 0,2,3
 149 -1 149 -1 104.5 -35.5 c 128,-1,4
 60 -70 60 -70 8 -73 c 0,5,6
 -2 -73 -2 -73 -2 -70 c 128,-1,7
 -2 -67 -2 -67 8 -64.5 c 128,-1,8
 18 -62 18 -62 27.5 -59 c 128,-1,9
 37 -56 37 -56 49 -51 c 128,-1,10
 61 -46 61 -46 70 -40 c 0,11,12
 92 -26 92 -26 92 -11 c 2,13,-1
 91 16 l 2,14,15
 91 28 91 28 99 37.5 c 128,-1,16
 107 47 107 47 119 47 c 0,0,1
EndSplineSet
EndChar

StartChar: hyphen
Encoding: 45 45 16
Width: 531
GlyphClass: 2
Flags: W
LayerCount: 2
Fore
SplineSet
465 92 m 0,0,1
 465 87 465 87 456 87 c 2,2,-1
 174 89 l 2,3,4
 159 89 159 89 159 110 c 0,5,6
 159 116 159 116 165 118 c 128,-1,7
 171 120 171 120 250.5 120 c 128,-1,8
 330 120 330 120 450 114 c 0,9,10
 465 113 465 113 465 92 c 0,0,1
EndSplineSet
EndChar

StartChar: period
Encoding: 46 46 17
Width: 243
GlyphClass: 2
Flags: W
LayerCount: 2
Fore
SplineSet
156.5 35 m 128,-1,1
 162 29 162 29 162 18 c 128,-1,2
 162 7 162 7 147 -10 c 128,-1,3
 132 -27 132 -27 121 -27 c 128,-1,4
 110 -27 110 -27 105 -20.5 c 128,-1,5
 100 -14 100 -14 100 -5.5 c 128,-1,6
 100 3 100 3 116 22 c 128,-1,7
 132 41 132 41 141.5 41 c 128,-1,0
 151 41 151 41 156.5 35 c 128,-1,1
EndSplineSet
EndChar

StartChar: slash
Encoding: 47 47 18
Width: 391
GlyphClass: 2
Flags: W
LayerCount: 2
Fore
SplineSet
556 826 m 0,0,1
 470 701 470 701 321 379 c 128,-1,2
 172 57 172 57 130 -86 c 1,3,4
 126 -90 126 -90 120.5 -90 c 128,-1,5
 115 -90 115 -90 109.5 -83.5 c 128,-1,6
 104 -77 104 -77 102 -64 c 1,7,8
 170 142 170 142 310 425 c 128,-1,9
 450 708 450 708 541 844 c 0,10,11
 548 854 548 854 553 854 c 0,12,13
 561 854 561 854 561 843 c 128,-1,14
 561 832 561 832 556 826 c 0,0,1
EndSplineSet
EndChar

StartChar: zero
Encoding: 48 48 19
Width: 622
GlyphClass: 2
Flags: W
LayerCount: 2
Fore
SplineSet
595.5 727 m 128,-1,1
 613 711 613 711 613 687.5 c 128,-1,2
 613 664 613 664 601 640 c 1,3,4
 654 612 654 612 654 527 c 0,5,6
 654 469 654 469 629 395.5 c 128,-1,7
 604 322 604 322 557.5 249.5 c 128,-1,8
 511 177 511 177 451.5 115.5 c 128,-1,9
 392 54 392 54 316.5 16 c 128,-1,10
 241 -22 241 -22 169 -22 c 128,-1,11
 97 -22 97 -22 63.5 17.5 c 128,-1,12
 30 57 30 57 30 124 c 128,-1,13
 30 191 30 191 58.5 274.5 c 128,-1,14
 87 358 87 358 138.5 439 c 128,-1,15
 190 520 190 520 253 589 c 128,-1,16
 316 658 316 658 392.5 700.5 c 128,-1,17
 469 743 469 743 541 743 c 0,18,0
 578 743 578 743 595.5 727 c 128,-1,1
451 491 m 1,19,-1
 452 484 l 1,20,21
 452 472 452 472 445 472 c 0,22,23
 432 472 432 472 432 500 c 128,-1,24
 432 528 432 528 452.5 551.5 c 128,-1,25
 473 575 473 575 509.5 598 c 128,-1,26
 546 621 546 621 559 633 c 1,27,28
 543 637 543 637 532 637 c 0,29,30
 458 637 458 637 415 607 c 0,31,32
 405 599 405 599 388.5 599 c 128,-1,33
 372 599 372 599 372 604.5 c 128,-1,34
 372 610 372 610 384 617 c 0,35,36
 446 653 446 653 544 653 c 0,37,38
 560 653 560 653 573 650 c 1,39,40
 586 668 586 668 586 688 c 128,-1,41
 586 708 586 708 570 717 c 128,-1,42
 554 726 554 726 533 726 c 0,43,44
 427 726 427 726 319 623 c 128,-1,45
 211 520 211 520 146 383.5 c 128,-1,46
 81 247 81 247 81 141 c 0,47,48
 81 77 81 77 109.5 40 c 128,-1,49
 138 3 138 3 204 3 c 128,-1,50
 270 3 270 3 348 61 c 128,-1,51
 426 119 426 119 483.5 202 c 128,-1,52
 541 285 541 285 578 376.5 c 128,-1,53
 615 468 615 468 615 531.5 c 128,-1,54
 615 595 615 595 585 619 c 1,55,56
 567 599 567 599 531.5 574 c 128,-1,57
 496 549 496 549 473.5 529 c 128,-1,58
 451 509 451 509 451 491 c 1,19,-1
EndSplineSet
EndChar

StartChar: one
Encoding: 49 49 20
Width: 305
GlyphClass: 2
Flags: W
LayerCount: 2
Fore
SplineSet
0 4 m 0,0,1
 0 67 0 67 98.5 285.5 c 128,-1,2
 197 504 197 504 313 633 c 1,3,4
 262 619 262 619 231.5 603.5 c 128,-1,5
 201 588 201 588 180 560 c 1,6,7
 164 545 164 545 150.5 545 c 128,-1,8
 137 545 137 545 137 560 c 128,-1,9
 137 575 137 575 150.5 588 c 128,-1,10
 164 601 164 601 196 613 c 0,11,12
 251 633 251 633 332 653 c 1,13,14
 428 752 428 752 513 752 c 0,15,16
 548 752 548 752 548 734 c 0,17,18
 548 703 548 703 452 673 c 0,19,20
 416 661 416 661 364 647 c 1,21,22
 271 546 271 546 179 366 c 0,23,24
 51 116 51 116 34 -28 c 1,25,26
 34 -44 34 -44 29 -44 c 0,27,28
 16 -44 16 -44 8 -27.5 c 128,-1,29
 0 -11 0 -11 0 4 c 0,0,1
501 733 m 0,30,31
 451 733 451 733 383 667 c 1,32,33
 428 680 428 680 457 690 c 0,34,35
 514 709 514 709 514 726 c 0,36,37
 514 733 514 733 501 733 c 0,30,31
EndSplineSet
EndChar

StartChar: two
Encoding: 50 50 21
Width: 534
GlyphClass: 2
Flags: W
LayerCount: 2
Fore
SplineSet
436 736 m 0,0,1
 561 736 561 736 561 637 c 0,2,3
 561 548 561 548 467 404.5 c 128,-1,4
 373 261 373 261 247 135 c 1,5,6
 268 122 268 122 308.5 89 c 128,-1,7
 349 56 349 56 382.5 38.5 c 128,-1,8
 416 21 416 21 454 21 c 128,-1,9
 492 21 492 21 551 58 c 1,10,11
 557 63 557 63 562.5 63 c 128,-1,12
 568 63 568 63 568 59 c 0,13,14
 568 42 568 42 512.5 17.5 c 128,-1,15
 457 -7 457 -7 425.5 -7 c 128,-1,16
 394 -7 394 -7 362.5 5.5 c 128,-1,17
 331 18 331 18 311.5 31.5 c 128,-1,18
 292 45 292 45 260.5 70.5 c 128,-1,19
 229 96 229 96 216 105 c 1,20,21
 74 -30 74 -30 7 -30 c 0,22,23
 -38 -30 -38 -30 -38 11 c 0,24,25
 -38 60 -38 60 19 111.5 c 128,-1,26
 76 163 76 163 156 163 c 0,27,28
 186 163 186 163 217 150 c 1,29,30
 330 273 330 273 415.5 409 c 128,-1,31
 501 545 501 545 501 627 c 128,-1,32
 501 709 501 709 398 709 c 128,-1,33
 295 709 295 709 211.5 635.5 c 128,-1,34
 128 562 128 562 128 496 c 0,35,36
 128 440 128 440 198 440 c 0,37,38
 287 440 287 440 340 540 c 0,39,40
 346 551 346 551 352.5 565 c 128,-1,41
 359 579 359 579 363.5 588 c 128,-1,42
 368 597 368 597 372 606 c 0,43,44
 381 623 381 623 388 623 c 0,45,46
 397 623 397 623 397 608 c 0,47,48
 397 554 397 554 335.5 487 c 128,-1,49
 274 420 274 420 183 420 c 0,50,51
 138 420 138 420 116 439 c 128,-1,52
 94 458 94 458 94 491.5 c 128,-1,53
 94 525 94 525 120 567.5 c 128,-1,54
 146 610 146 610 189.5 647.5 c 128,-1,55
 233 685 233 685 299 710.5 c 128,-1,56
 365 736 365 736 436 736 c 0,0,1
-7 31 m 0,57,58
 -7 2 -7 2 33.5 2 c 128,-1,59
 74 2 74 2 189 122 c 1,60,61
 160 138 160 138 133 138 c 0,62,63
 78 138 78 138 35.5 101.5 c 128,-1,64
 -7 65 -7 65 -7 31 c 0,57,58
EndSplineSet
EndChar

StartChar: three
Encoding: 51 51 22
Width: 508
GlyphClass: 2
Flags: W
LayerCount: 2
Fore
SplineSet
283 401 m 1,0,1
 283 401 283 401 327 404 c 1,2,3
 398 404 398 404 432.5 377.5 c 128,-1,4
 467 351 467 351 467 307 c 0,5,6
 467 234 467 234 388.5 144 c 128,-1,7
 310 54 310 54 202 8 c 1,8,9
 253 -23 253 -23 298 -23 c 0,10,11
 313 -23 313 -23 313 -36 c 0,12,13
 313 -53 313 -53 277 -53 c 0,14,15
 254 -53 254 -53 222 -30 c 1,16,17
 196 -13 196 -13 180 0 c 1,18,19
 114 -23 114 -23 60 -23 c 128,-1,20
 6 -23 6 -23 -24 -4 c 128,-1,21
 -54 15 -54 15 -54 34.5 c 128,-1,22
 -54 54 -54 54 -37.5 65 c 128,-1,23
 -21 76 -21 76 14 76 c 128,-1,24
 49 76 49 76 85 66 c 128,-1,25
 121 56 121 56 138.5 47 c 128,-1,26
 156 38 156 38 186 19 c 1,27,28
 278 59 278 59 340.5 144.5 c 128,-1,29
 403 230 403 230 403 301 c 0,30,31
 403 384 403 384 314 384 c 0,32,33
 279 384 279 384 241.5 373 c 128,-1,34
 204 362 204 362 196.5 357.5 c 128,-1,35
 189 353 189 353 187 353 c 0,36,37
 181 353 181 353 181 362.5 c 128,-1,38
 181 372 181 372 207 382 c 0,39,40
 310 421 310 421 423 514.5 c 128,-1,41
 536 608 536 608 536 667 c 0,42,43
 536 700 536 700 510.5 716.5 c 128,-1,44
 485 733 485 733 436.5 733 c 128,-1,45
 388 733 388 733 328.5 710.5 c 128,-1,46
 269 688 269 688 225.5 646.5 c 128,-1,47
 182 605 182 605 182 553 c 128,-1,48
 182 501 182 501 225 501 c 0,49,50
 261 501 261 501 304 536.5 c 128,-1,51
 347 572 347 572 357 610.5 c 128,-1,52
 367 649 367 649 388 649 c 0,53,54
 397 649 397 649 397 634 c 0,55,56
 397 585 397 585 332 533 c 128,-1,57
 267 481 267 481 210 481 c 0,58,59
 148 481 148 481 148 552 c 0,60,61
 148 609 148 609 199.5 660 c 128,-1,62
 251 711 251 711 323 738.5 c 128,-1,63
 395 766 395 766 456.5 766 c 128,-1,64
 518 766 518 766 552.5 742.5 c 128,-1,65
 587 719 587 719 587 669 c 128,-1,66
 587 619 587 619 513.5 549 c 128,-1,67
 440 479 440 479 283 401 c 1,0,1
58 52 m 0,68,69
 -18 52 -18 52 -18 30 c 0,70,71
 -18 17 -18 17 8 5.5 c 128,-1,72
 34 -6 34 -6 75.5 -6 c 128,-1,73
 117 -6 117 -6 165 11 c 1,74,75
 107 52 107 52 58 52 c 0,68,69
EndSplineSet
EndChar

StartChar: four
Encoding: 52 52 23
Width: 588
GlyphClass: 2
Flags: W
LayerCount: 2
Fore
SplineSet
257 -36 m 0,0,1
 233 -36 233 -36 233 -3 c 0,2,3
 233 45 233 45 277 162 c 1,4,5
 177 139 177 139 120 139 c 0,6,7
 26 139 26 139 26 223 c 0,8,9
 26 286 26 286 79.5 380 c 128,-1,10
 133 474 133 474 211.5 559.5 c 128,-1,11
 290 645 290 645 390 706.5 c 128,-1,12
 490 768 490 768 569.5 768 c 128,-1,13
 649 768 649 768 649 726 c 0,14,15
 649 694 649 694 610 655 c 128,-1,16
 571 616 571 616 548 616 c 0,17,18
 542 616 542 616 542 623.5 c 128,-1,19
 542 631 542 631 546 634 c 0,20,21
 567 644 567 644 585.5 666 c 128,-1,22
 604 688 604 688 604 707 c 0,23,24
 604 743 604 743 539.5 743 c 128,-1,25
 475 743 475 743 394 686.5 c 128,-1,26
 313 630 313 630 245.5 552 c 128,-1,27
 178 474 178 474 130.5 387 c 128,-1,28
 83 300 83 300 83 243 c 0,29,30
 83 166 83 166 169 166 c 0,31,32
 207 166 207 166 284 180 c 1,33,34
 343 332 343 332 446 534 c 1,35,-1
 479 597 l 1,36,37
 481 606 481 606 501 606 c 0,38,39
 509 606 509 606 509 598 c 128,-1,40
 509 590 509 590 507 585 c 0,41,42
 393 363 393 363 327 188 c 1,43,44
 462 215 462 215 488 215 c 128,-1,45
 514 215 514 215 550 202 c 128,-1,46
 586 189 586 189 586 173 c 0,47,48
 586 167 586 167 580.5 163 c 128,-1,49
 575 159 575 159 569.5 159 c 128,-1,50
 564 159 564 159 518 173 c 128,-1,51
 472 187 472 187 431 187 c 128,-1,52
 390 187 390 187 321 172 c 1,53,54
 273 41 273 41 270 -20 c 1,55,56
 268 -36 268 -36 257 -36 c 0,0,1
EndSplineSet
EndChar

StartChar: five
Encoding: 53 53 24
Width: 529
GlyphClass: 2
Flags: W
LayerCount: 2
Fore
SplineSet
591 735 m 0,0,1
 591 746 591 746 571 746 c 128,-1,2
 551 746 551 746 519.5 728 c 128,-1,3
 488 710 488 710 471 680 c 1,4,-1
 485 680 l 2,5,6
 528 680 528 680 559.5 699 c 128,-1,7
 591 718 591 718 591 735 c 0,0,1
206 42 m 1,8,-1
 33 46 l 1,9,10
 -44 46 -44 46 -44 23 c 0,11,12
 -44 10 -44 10 -18 -1.5 c 128,-1,13
 8 -13 8 -13 42 -13 c 0,14,15
 127 -13 127 -13 206 42 c 1,8,-1
260 682 m 1,16,17
 252 682 252 682 247 673 c 1,18,19
 247 652 247 652 211.5 559.5 c 128,-1,20
 176 467 176 467 145 412 c 1,21,22
 145 406 145 406 151 406 c 1,23,-1
 163 409 l 1,24,25
 250 433 250 433 320 433 c 0,26,27
 455 433 455 433 455 330 c 0,28,29
 455 274 455 274 403.5 198.5 c 128,-1,30
 352 123 352 123 273 64 c 1,31,-1
 340 64 l 2,32,33
 375 64 375 64 389 67 c 128,-1,34
 403 70 403 70 405 70 c 0,35,36
 419 70 419 70 419 55 c 128,-1,37
 419 40 419 40 399 39 c 0,38,39
 391 39 391 39 241 41 c 1,40,41
 131 -30 131 -30 31 -30 c 0,42,43
 -20 -30 -20 -30 -50 -11 c 128,-1,44
 -80 8 -80 8 -80 27.5 c 128,-1,45
 -80 47 -80 47 -63.5 58 c 128,-1,46
 -47 69 -47 69 -17 69 c 0,47,48
 58 69 58 69 232 65 c 1,49,-1
 237 65 l 1,50,51
 304 120 304 120 347.5 194.5 c 128,-1,52
 391 269 391 269 391 324 c 0,53,54
 391 407 391 407 301 407 c 0,55,56
 266 407 266 407 216 395.5 c 128,-1,57
 166 384 166 384 134 372 c 2,58,-1
 101 360 l 1,59,60
 85 352 85 352 80 352 c 128,-1,61
 75 352 75 352 75 360 c 1,62,-1
 79 373 l 1,63,64
 121 421 121 421 158 506 c 128,-1,65
 195 591 195 591 212 652 c 1,66,-1
 228 714 l 1,67,68
 235 720 235 720 246 720 c 1,69,70
 270 710 270 710 336.5 697.5 c 128,-1,71
 403 685 403 685 443 682 c 1,72,73
 465 719 465 719 505 743.5 c 128,-1,74
 545 768 545 768 590.5 768 c 128,-1,75
 636 768 636 768 636 742 c 0,76,77
 636 714 636 714 588 687.5 c 128,-1,78
 540 661 540 661 465 661 c 2,79,-1
 463 661 l 1,80,81
 457 644 457 644 457 619.5 c 128,-1,82
 457 595 457 595 473 586 c 1,83,84
 478 582 478 582 478 577 c 128,-1,85
 478 572 478 572 467 571 c 1,86,87
 425 583 425 583 425 625 c 0,88,89
 425 644 425 644 432 661 c 1,90,91
 328 665 328 665 260 682 c 1,16,17
EndSplineSet
EndChar

StartChar: six
Encoding: 54 54 25
Width: 597
GlyphClass: 2
Flags: W
LayerCount: 2
Fore
SplineSet
210 4 m 0,0,1
 294 4 294 4 375 83 c 1,2,3
 295 92 295 92 253.5 135.5 c 128,-1,4
 212 179 212 179 212 239 c 0,5,6
 212 317 212 317 276 380 c 128,-1,7
 340 443 340 443 443 443 c 0,8,9
 495 443 495 443 520.5 416.5 c 128,-1,10
 546 390 546 390 546 340 c 128,-1,11
 546 290 546 290 513 222.5 c 128,-1,12
 480 155 480 155 425 98 c 1,13,-1
 427 98 l 2,14,15
 507 98 507 98 552 156 c 0,16,17
 557 163 557 163 559 163 c 0,18,19
 565 163 565 163 565 155 c 0,20,21
 565 123 565 123 520.5 102 c 128,-1,22
 476 81 476 81 413 81 c 2,23,-1
 407 81 l 1,24,25
 298 -23 298 -23 175 -23 c 0,26,27
 101 -23 101 -23 65.5 19 c 128,-1,28
 30 61 30 61 30 139 c 128,-1,29
 30 217 30 217 75.5 325.5 c 128,-1,30
 121 434 121 434 191.5 529 c 128,-1,31
 262 624 262 624 358 689 c 128,-1,32
 454 754 454 754 545 754 c 0,33,34
 609 754 609 754 668 720 c 1,35,36
 680 708 680 708 680 690 c 128,-1,37
 680 672 680 672 663 672 c 0,38,39
 654 672 654 672 643 682 c 1,40,41
 586 716 586 716 513 716 c 128,-1,42
 440 716 440 716 358 657.5 c 128,-1,43
 276 599 276 599 219 513.5 c 128,-1,44
 162 428 162 428 126 330 c 128,-1,45
 90 232 90 232 90 158 c 0,46,47
 90 4 90 4 210 4 c 0,0,1
428 423 m 0,48,49
 349 423 349 423 304 373.5 c 128,-1,50
 259 324 259 324 259 262 c 128,-1,51
 259 200 259 200 293.5 155.5 c 128,-1,52
 328 111 328 111 392 101 c 1,53,54
 441 155 441 155 471 221.5 c 128,-1,55
 501 288 501 288 501 340 c 0,56,57
 501 423 501 423 428 423 c 0,48,49
EndSplineSet
EndChar

StartChar: seven
Encoding: 55 55 26
Width: 561
GlyphClass: 2
Flags: W
LayerCount: 2
Fore
SplineSet
502 420 m 0,0,1
 503 420 503 420 506 421 c 1,2,3
 519 421 519 421 519 402 c 0,4,5
 519 375 519 375 486 375 c 1,6,-1
 409 379 l 2,7,8
 380 381 380 381 349 381 c 1,9,10
 250 203 250 203 212 52 c 1,11,12
 201 15 201 15 196 -28 c 1,13,14
 196 -44 196 -44 191 -44 c 0,15,16
 178 -44 178 -44 170 -27.5 c 128,-1,17
 162 -11 162 -11 162 4 c 0,18,19
 162 61 162 61 202 166 c 128,-1,20
 242 271 242 271 307 383 c 1,21,-1
 276 383 l 2,22,23
 203 383 203 383 185.5 385.5 c 128,-1,24
 168 388 168 388 167 399 c 0,25,26
 167 404 167 404 169.5 405 c 128,-1,27
 172 406 172 406 183 406 c 2,28,-1
 321 406 l 1,29,30
 413 559 413 559 509 650 c 1,31,32
 482 659 482 659 428 682 c 0,33,34
 318 728 318 728 259.5 728 c 128,-1,35
 201 728 201 728 164.5 695.5 c 128,-1,36
 128 663 128 663 128 627 c 128,-1,37
 128 591 128 591 150.5 570 c 128,-1,38
 173 549 173 549 210.5 549 c 128,-1,39
 248 549 248 549 270 568 c 128,-1,40
 292 587 292 587 297 606 c 2,41,-1
 302 625 l 1,42,43
 306 634 306 634 311.5 634 c 128,-1,44
 317 634 317 634 320.5 627 c 128,-1,45
 324 620 324 620 324 612 c 0,46,47
 324 583 324 583 294.5 557 c 128,-1,48
 265 531 265 531 213 531 c 128,-1,49
 161 531 161 531 128 559.5 c 128,-1,50
 95 588 95 588 95 634 c 128,-1,51
 95 680 95 680 145.5 718.5 c 128,-1,52
 196 757 196 757 288 757 c 0,53,54
 328 757 328 757 418.5 720.5 c 128,-1,55
 509 684 509 684 537 676 c 1,56,57
 628 751 628 751 701.5 751 c 128,-1,58
 775 751 775 751 775 708 c 0,59,60
 775 678 775 678 737.5 651 c 128,-1,61
 700 624 700 624 646.5 624 c 128,-1,62
 593 624 593 624 534 642 c 1,63,64
 451 559 451 559 363 407 c 1,65,66
 444 408 444 408 502 420 c 0,0,1
699 733 m 0,67,68
 637 733 637 733 563 669 c 1,69,70
 613 656 613 656 658 656 c 128,-1,71
 703 656 703 656 725.5 670 c 128,-1,72
 748 684 748 684 748 700 c 0,73,74
 748 733 748 733 699 733 c 0,67,68
EndSplineSet
EndChar

StartChar: eight
Encoding: 56 56 27
Width: 640
GlyphClass: 2
Flags: W
LayerCount: 2
Fore
SplineSet
275 441 m 2,0,-1
 304 439 l 1,1,2
 347 439 347 439 386 448 c 1,3,4
 347 483 347 483 326 503.5 c 128,-1,5
 305 524 305 524 286.5 553 c 128,-1,6
 268 582 268 582 268 607 c 0,7,8
 268 674 268 674 341.5 713 c 128,-1,9
 415 752 415 752 507 752 c 0,10,11
 677 752 677 752 677 670 c 0,12,13
 677 617 677 617 607.5 549.5 c 128,-1,14
 538 482 538 482 446 440 c 1,15,16
 487 409 487 409 507 392 c 128,-1,17
 527 375 527 375 556 346 c 1,18,19
 609 290 609 290 609 229 c 0,20,21
 609 164 609 164 556 98 c 0,22,23
 493 19 493 19 391 -12 c 0,24,25
 332 -30 332 -30 264 -30 c 0,26,27
 153 -30 153 -30 91.5 32.5 c 128,-1,28
 30 95 30 95 30 178 c 128,-1,29
 30 261 30 261 111.5 317 c 128,-1,30
 193 373 193 373 283 373 c 0,31,32
 339 373 339 373 374.5 346.5 c 128,-1,33
 410 320 410 320 410 268 c 0,34,35
 410 246 410 246 395 246 c 0,36,37
 384 246 384 246 381 258 c 0,38,39
 370 306 370 306 338.5 329.5 c 128,-1,40
 307 353 307 353 264 353 c 0,41,42
 196 353 196 353 137.5 304 c 128,-1,43
 79 255 79 255 79 183 c 128,-1,44
 79 111 79 111 131.5 51 c 128,-1,45
 184 -9 184 -9 278 -9 c 0,46,47
 396 -9 396 -9 475.5 62.5 c 128,-1,48
 555 134 555 134 555 218 c 0,49,50
 555 271 555 271 517.5 319.5 c 128,-1,51
 480 368 480 368 412 426 c 1,52,53
 352 404 352 404 302 404 c 0,54,55
 288 404 288 404 277 412 c 128,-1,56
 266 420 266 420 266 434 c 1,57,58
 268 441 268 441 275 441 c 2,0,-1
311 612 m 0,59,60
 311 573 311 573 340 537.5 c 128,-1,61
 369 502 369 502 423 459 c 1,62,63
 511 488 511 488 572.5 546 c 128,-1,64
 634 604 634 604 634 654 c 0,65,66
 634 688 634 688 601 708 c 128,-1,67
 568 728 568 728 497.5 728 c 128,-1,68
 427 728 427 728 369 696.5 c 128,-1,69
 311 665 311 665 311 612 c 0,59,60
EndSplineSet
EndChar

StartChar: nine
Encoding: 57 57 28
Width: 641
GlyphClass: 2
Flags: W
LayerCount: 2
Fore
SplineSet
33 30 m 1,0,1
 20 43 20 43 20 58 c 128,-1,2
 20 73 20 73 34 73 c 0,3,4
 45 73 45 73 56 62 c 0,5,6
 118 6 118 6 192 6 c 128,-1,7
 266 6 266 6 344 65 c 128,-1,8
 422 124 422 124 479 209.5 c 128,-1,9
 536 295 536 295 572.5 393 c 128,-1,10
 609 491 609 491 609 562 c 0,11,12
 609 709 609 709 491 709 c 0,13,14
 419 709 419 709 349 650 c 128,-1,15
 279 591 279 591 239.5 513 c 128,-1,16
 200 435 200 435 200 373 c 0,17,18
 200 290 200 290 273 290 c 0,19,20
 362 290 362 290 415 390 c 0,21,22
 421 401 421 401 427.5 415 c 128,-1,23
 434 429 434 429 438.5 438 c 128,-1,24
 443 447 443 447 448 456 c 0,25,26
 456 473 456 473 463 473 c 0,27,28
 472 473 472 473 472 458 c 0,29,30
 472 390 472 390 408 330 c 128,-1,31
 344 270 344 270 258 270 c 0,32,33
 206 270 206 270 180.5 296.5 c 128,-1,34
 155 323 155 323 155 372 c 128,-1,35
 155 421 155 421 185.5 484.5 c 128,-1,36
 216 548 216 548 265 604 c 128,-1,37
 314 660 314 660 384.5 698 c 128,-1,38
 455 736 455 736 526 736 c 128,-1,39
 597 736 597 736 631 696.5 c 128,-1,40
 665 657 665 657 665 590 c 128,-1,41
 665 523 665 523 637 440.5 c 128,-1,42
 609 358 609 358 559 278 c 128,-1,43
 509 198 509 198 447.5 130.5 c 128,-1,44
 386 63 386 63 312 21 c 128,-1,45
 238 -21 238 -21 167 -21 c 128,-1,46
 96 -21 96 -21 33 30 c 1,0,1
EndSplineSet
EndChar

StartChar: colon
Encoding: 58 58 29
Width: 243
GlyphClass: 2
Flags: W
LayerCount: 2
Fore
SplineSet
156.5 35 m 128,-1,1
 162 29 162 29 162 18 c 128,-1,2
 162 7 162 7 147 -10 c 128,-1,3
 132 -27 132 -27 121 -27 c 128,-1,4
 110 -27 110 -27 105 -20.5 c 128,-1,5
 100 -14 100 -14 100 -5.5 c 128,-1,6
 100 3 100 3 116 22 c 128,-1,7
 132 41 132 41 141.5 41 c 128,-1,0
 151 41 151 41 156.5 35 c 128,-1,1
232.5 186 m 128,-1,9
 238 180 238 180 238 169 c 128,-1,10
 238 158 238 158 223 141 c 128,-1,11
 208 124 208 124 197 124 c 128,-1,12
 186 124 186 124 181 130.5 c 128,-1,13
 176 137 176 137 176 145.5 c 128,-1,14
 176 154 176 154 192 173 c 128,-1,15
 208 192 208 192 217.5 192 c 128,-1,8
 227 192 227 192 232.5 186 c 128,-1,9
EndSplineSet
EndChar

StartChar: semicolon
Encoding: 59 59 30
Width: 206
GlyphClass: 2
Flags: W
LayerCount: 2
Fore
SplineSet
119 47 m 0,0,1
 149 47 149 47 149 27 c 0,2,3
 149 -1 149 -1 104.5 -35.5 c 128,-1,4
 60 -70 60 -70 8 -73 c 0,5,6
 -2 -73 -2 -73 -2 -70 c 128,-1,7
 -2 -67 -2 -67 8 -64.5 c 128,-1,8
 18 -62 18 -62 27.5 -59 c 128,-1,9
 37 -56 37 -56 49 -51 c 128,-1,10
 61 -46 61 -46 70 -40 c 0,11,12
 92 -26 92 -26 92 -11 c 2,13,-1
 91 16 l 2,14,15
 91 28 91 28 99 37.5 c 128,-1,16
 107 47 107 47 119 47 c 0,0,1
232.5 186 m 128,-1,18
 238 180 238 180 238 169 c 128,-1,19
 238 158 238 158 223 141 c 128,-1,20
 208 124 208 124 197 124 c 128,-1,21
 186 124 186 124 181 130.5 c 128,-1,22
 176 137 176 137 176 145.5 c 128,-1,23
 176 154 176 154 192 173 c 128,-1,24
 208 192 208 192 217.5 192 c 128,-1,17
 227 192 227 192 232.5 186 c 128,-1,18
EndSplineSet
EndChar

StartChar: less
Encoding: 60 60 31
Width: 455
GlyphClass: 2
Flags: W
LayerCount: 2
Fore
SplineSet
184 262 m 0,0,1
 327 188 327 188 340.5 177.5 c 128,-1,2
 354 167 354 167 354 153 c 128,-1,3
 354 139 354 139 348 134.5 c 128,-1,4
 342 130 342 130 337 130 c 128,-1,5
 332 130 332 130 332 132 c 0,6,7
 332 151 332 151 272.5 182 c 128,-1,8
 213 213 213 213 154 242 c 128,-1,9
 95 271 95 271 96 286 c 1,10,11
 96 305 96 305 124 305 c 0,12,13
 210 305 210 305 292 322 c 128,-1,14
 374 339 374 339 390 363 c 0,15,16
 392 366 392 366 394.5 366 c 128,-1,17
 397 366 397 366 400.5 359.5 c 128,-1,18
 404 353 404 353 404 348 c 0,19,20
 403 318 403 318 312 298.5 c 128,-1,21
 221 279 221 279 175 279 c 0,22,23
 166 279 166 279 166 276 c 0,24,25
 166 271 166 271 184 262 c 0,0,1
EndSplineSet
EndChar

StartChar: equal
Encoding: 61 61 32
Width: 374
GlyphClass: 2
Flags: W
LayerCount: 2
Fore
SplineSet
362 270 m 0,0,1
 362 266 362 266 358.5 266 c 128,-1,2
 355 266 355 266 353 267 c 1,3,-1
 71 267 l 2,4,5
 56 267 56 267 56 288 c 0,6,7
 56 294 56 294 62 296 c 128,-1,8
 68 298 68 298 147.5 298 c 128,-1,9
 227 298 227 298 347 292 c 0,10,11
 362 291 362 291 362 270 c 0,0,1
380 338 m 0,12,13
 380 334 380 334 376.5 334 c 128,-1,14
 373 334 373 334 371 335 c 1,15,-1
 89 335 l 2,16,17
 74 335 74 335 74 356 c 0,18,19
 74 362 74 362 80 364 c 128,-1,20
 86 366 86 366 165.5 366 c 128,-1,21
 245 366 245 366 365 360 c 0,22,23
 380 359 380 359 380 338 c 0,12,13
EndSplineSet
EndChar

StartChar: greater
Encoding: 62 62 33
Width: 455
GlyphClass: 2
Flags: W
LayerCount: 2
Fore
SplineSet
270 238 m 0,0,1
 127 312 127 312 113.5 322.5 c 128,-1,2
 100 333 100 333 100 347 c 128,-1,3
 100 361 100 361 106 365.5 c 128,-1,4
 112 370 112 370 117 370 c 128,-1,5
 122 370 122 370 122 368 c 0,6,7
 122 349 122 349 181.5 318 c 128,-1,8
 241 287 241 287 300 258 c 128,-1,9
 359 229 359 229 358 214 c 1,10,11
 358 195 358 195 330 195 c 0,12,13
 244 195 244 195 162 178 c 128,-1,14
 80 161 80 161 64 137 c 0,15,16
 62 134 62 134 59.5 134 c 128,-1,17
 57 134 57 134 53.5 140.5 c 128,-1,18
 50 147 50 147 50 152 c 0,19,20
 51 182 51 182 142 201.5 c 128,-1,21
 233 221 233 221 279 221 c 0,22,23
 288 221 288 221 288 224 c 0,24,25
 288 229 288 229 270 238 c 0,0,1
EndSplineSet
EndChar

StartChar: question
Encoding: 63 63 34
Width: 534
GlyphClass: 2
Flags: W
LayerCount: 2
Fore
SplineSet
254 81 m 0,0,1
 254 70 254 70 226 70 c 128,-1,2
 198 70 198 70 179 85 c 128,-1,3
 160 100 160 100 160 122 c 0,4,5
 160 194 160 194 286 286 c 0,6,7
 339 324 339 324 392 366.5 c 128,-1,8
 445 409 445 409 482 470 c 128,-1,9
 519 531 519 531 519 601 c 0,10,11
 519 648 519 648 490 671 c 128,-1,12
 461 694 461 694 408 694 c 128,-1,13
 355 694 355 694 291.5 666.5 c 128,-1,14
 228 639 228 639 182.5 590.5 c 128,-1,15
 137 542 137 542 137 489 c 0,16,17
 137 433 137 433 207 433 c 0,18,19
 296 433 296 433 349 533 c 0,20,21
 355 544 355 544 361.5 558 c 128,-1,22
 368 572 368 572 372.5 581 c 128,-1,23
 377 590 377 590 382 599 c 0,24,25
 390 616 390 616 397 616 c 0,26,27
 406 616 406 616 406 601 c 0,28,29
 406 547 406 547 344.5 480 c 128,-1,30
 283 413 283 413 192 413 c 0,31,32
 147 413 147 413 125 432 c 128,-1,33
 103 451 103 451 103 483 c 0,34,35
 103 544 103 544 159.5 600 c 128,-1,36
 216 656 216 656 294 687 c 128,-1,37
 372 718 372 718 436 718 c 0,38,39
 570 718 570 718 570 618 c 0,40,41
 570 551 570 551 541.5 493 c 128,-1,42
 513 435 513 435 470.5 397 c 128,-1,43
 428 359 428 359 378 322 c 128,-1,44
 328 285 328 285 285.5 257.5 c 128,-1,45
 243 230 243 230 214.5 195 c 128,-1,46
 186 160 186 160 186 123 c 0,47,48
 186 99 186 99 208 99 c 1,49,-1
 236 101 l 2,50,51
 240 101 240 101 247 94 c 128,-1,52
 254 87 254 87 254 81 c 0,0,1
156.5 35 m 128,-1,54
 162 29 162 29 162 18 c 128,-1,55
 162 7 162 7 147 -10 c 128,-1,56
 132 -27 132 -27 121 -27 c 128,-1,57
 110 -27 110 -27 105 -20.5 c 128,-1,58
 100 -14 100 -14 100 -5.5 c 128,-1,59
 100 3 100 3 116 22 c 128,-1,60
 132 41 132 41 141.5 41 c 128,-1,53
 151 41 151 41 156.5 35 c 128,-1,54
EndSplineSet
EndChar

StartChar: at
Encoding: 64 64 35
Width: 548
GlyphClass: 2
Flags: W
LayerCount: 2
Fore
SplineSet
342 120 m 0,0,1
 336 120 336 120 336 124.5 c 128,-1,2
 336 129 336 129 343 135 c 0,3,4
 376 162 376 162 376 184 c 0,5,6
 376 198 376 198 351 200 c 1,7,8
 306 199 306 199 243.5 135 c 128,-1,9
 181 71 181 71 181 39 c 0,10,11
 181 28 181 28 193.5 28 c 128,-1,12
 206 28 206 28 227 45 c 1,13,14
 246 57 246 57 298 105 c 0,15,16
 310 117 310 117 321 117 c 0,17,18
 335 117 335 117 335 104 c 0,19,20
 335 99 335 99 332 96 c 128,-1,21
 329 93 329 93 321 83.5 c 128,-1,22
 313 74 313 74 307 66 c 0,23,24
 289 40 289 40 289 32 c 0,25,26
 289 12 289 12 305 12 c 0,27,28
 406 12 406 12 478 74 c 128,-1,29
 550 136 550 136 550 203 c 0,30,31
 550 242 550 242 519 266.5 c 128,-1,32
 488 291 488 291 417 291 c 128,-1,33
 346 291 346 291 254.5 239 c 128,-1,34
 163 187 163 187 103.5 115 c 128,-1,35
 44 43 44 43 44 -14 c 0,36,37
 44 -103 44 -103 193 -103 c 0,38,39
 237 -103 237 -103 284.5 -85 c 128,-1,40
 332 -67 332 -67 361.5 -49 c 128,-1,41
 391 -31 391 -31 392 -31 c 0,42,43
 398 -31 398 -31 398 -39 c 0,44,45
 398 -59 398 -59 322 -89.5 c 128,-1,46
 246 -120 246 -120 187 -120 c 0,47,48
 91 -120 91 -120 46 -92 c 128,-1,49
 1 -64 1 -64 1 -17 c 0,50,51
 1 46 1 46 68 122.5 c 128,-1,52
 135 199 135 199 240 254 c 128,-1,53
 345 309 345 309 431 309 c 128,-1,54
 517 309 517 309 554.5 282.5 c 128,-1,55
 592 256 592 256 592 213 c 0,56,57
 592 136 592 136 497.5 59.5 c 128,-1,58
 403 -17 403 -17 282 -17 c 0,59,60
 250 -17 250 -17 250 17 c 0,61,62
 250 25 250 25 253 32 c 128,-1,63
 256 39 256 39 256 42 c 128,-1,64
 256 45 256 45 254 46 c 1,65,66
 251 46 251 46 215.5 19 c 128,-1,67
 180 -8 180 -8 153.5 -8 c 128,-1,68
 127 -8 127 -8 127 20 c 128,-1,69
 127 48 127 48 164.5 95.5 c 128,-1,70
 202 143 202 143 265 182 c 128,-1,71
 328 221 328 221 388 221 c 0,72,73
 402 221 402 221 411.5 214 c 128,-1,74
 421 207 421 207 421 192.5 c 128,-1,75
 421 178 421 178 392.5 149 c 128,-1,76
 364 120 364 120 342 120 c 0,0,1
EndSplineSet
EndChar

StartChar: A
Encoding: 65 65 36
Width: 800
GlyphClass: 2
Flags: W
LayerCount: 2
Fore
SplineSet
133 274 m 0,0,1
 133 249 133 249 224 226 c 1,2,3
 276 214 276 214 350 206 c 1,4,5
 257 289 257 289 166 289 c 0,6,7
 133 289 133 289 133 274 c 0,0,1
529 7 m 0,8,9
 550 7 550 7 633 172 c 1,10,11
 521 170 521 170 493.5 170 c 128,-1,12
 466 170 466 170 416 172 c 1,13,14
 475 101 475 101 512 21 c 0,15,16
 518 7 518 7 529 7 c 0,8,9
842 684 m 0,17,18
 809 684 809 684 754 613.5 c 128,-1,19
 699 543 699 543 608.5 414 c 128,-1,20
 518 285 518 285 440 200 c 1,21,22
 510 198 510 198 562.5 198 c 128,-1,23
 615 198 615 198 647 200 c 1,24,25
 718 340 718 340 785.5 496 c 128,-1,26
 853 652 853 652 853 675 c 0,27,28
 853 684 853 684 842 684 c 0,17,18
701 202 m 1,29,-1
 909 217 l 2,30,31
 917 217 917 217 917 209 c 128,-1,32
 917 201 917 201 903.5 192 c 128,-1,33
 890 183 890 183 851 180 c 128,-1,34
 812 177 812 177 686 174 c 1,35,36
 584 -25 584 -25 542 -25 c 0,37,38
 514 -25 514 -25 502 0 c 0,39,40
 458 89 458 89 399 156 c 1,41,-1
 370 128 l 1,42,43
 222 -10 222 -10 25 -10 c 0,44,45
 -25 -10 -25 -10 -62.5 -2.5 c 128,-1,46
 -100 5 -100 5 -100 18 c 0,47,48
 -100 27 -100 27 -89 27 c 0,49,50
 -82 27 -82 27 -72 23 c 0,51,52
 -42 11 -42 11 41 11 c 0,53,54
 190 11 190 11 323 128 c 1,55,56
 371 173 371 173 372 174 c 1,57,58
 278 181 278 181 214 199 c 0,59,60
 100 231 100 231 100 275 c 0,61,62
 100 290 100 290 116.5 300 c 128,-1,63
 133 310 133 310 160 310 c 0,64,65
 279 310 279 310 386 203 c 1,66,67
 395 203 395 203 399 202 c 1,68,69
 488 298 488 298 616 474 c 0,70,71
 661 535 661 535 706 592 c 0,72,73
 800 710 800 710 860 710 c 0,74,75
 899 710 899 710 899 676 c 0,76,77
 899 653 899 653 834.5 496.5 c 128,-1,78
 770 340 770 340 701 202 c 1,29,-1
EndSplineSet
EndChar

StartChar: B
Encoding: 66 66 37
Width: 777
GlyphClass: 2
Flags: W
LayerCount: 2
Fore
SplineSet
588 394 m 1,0,1
 588 394 588 394 632 397 c 1,2,3
 703 397 703 397 737.5 370.5 c 128,-1,4
 772 344 772 344 772 295.5 c 128,-1,5
 772 247 772 247 728 182 c 128,-1,6
 684 117 684 117 614 64 c 1,7,-1
 671 64 l 2,8,9
 706 64 706 64 720 67 c 128,-1,10
 734 70 734 70 736 70 c 0,11,12
 750 70 750 70 750 55 c 128,-1,13
 750 40 750 40 730 39 c 1,14,15
 653 39 653 39 582 41 c 1,16,17
 470 -30 470 -30 362 -30 c 0,18,19
 311 -30 311 -30 281 -11 c 128,-1,20
 251 8 251 8 251 27.5 c 128,-1,21
 251 47 251 47 267.5 58 c 128,-1,22
 284 69 284 69 314 69 c 0,23,24
 431 69 431 69 576 64 c 1,25,26
 636 113 636 113 672 177.5 c 128,-1,27
 708 242 708 242 708 294 c 0,28,29
 708 377 708 377 619 377 c 0,30,31
 584 377 584 377 546.5 366 c 128,-1,32
 509 355 509 355 501.5 350.5 c 128,-1,33
 494 346 494 346 492 346 c 0,34,35
 486 346 486 346 486 354.5 c 128,-1,36
 486 363 486 363 512 375 c 0,37,38
 626 430 626 430 735 521.5 c 128,-1,39
 844 613 844 613 844 652 c 0,40,41
 844 670 844 670 816 670 c 0,42,43
 702 669 702 669 503 499 c 1,44,45
 463 396 463 396 371.5 246 c 128,-1,46
 280 96 280 96 180 -22.5 c 128,-1,47
 80 -141 80 -141 31 -141 c 0,48,49
 1 -141 1 -141 1 -110 c 0,50,51
 1 -39 1 -39 135.5 143 c 128,-1,52
 270 325 270 325 440 478 c 1,53,54
 470 551 470 551 470 584.5 c 128,-1,55
 470 618 470 618 454 637.5 c 128,-1,56
 438 657 438 657 407 666 c 0,57,58
 358 679 358 679 303.5 679 c 128,-1,59
 249 679 249 679 220 676.5 c 128,-1,60
 191 674 191 674 149.5 666.5 c 128,-1,61
 108 659 108 659 82 640.5 c 128,-1,62
 56 622 56 622 56 593.5 c 128,-1,63
 56 565 56 565 84 549.5 c 128,-1,64
 112 534 112 534 152.5 528 c 128,-1,65
 193 522 193 522 233 515 c 128,-1,66
 273 508 273 508 301 487.5 c 128,-1,67
 329 467 329 467 329 430 c 0,68,69
 329 420 329 420 324.5 420 c 128,-1,70
 320 420 320 420 317.5 423 c 128,-1,71
 315 426 315 426 309 435 c 0,72,73
 300 448 300 448 282.5 455 c 128,-1,74
 265 462 265 462 228.5 468.5 c 128,-1,75
 192 475 192 475 159.5 482.5 c 128,-1,76
 127 490 127 490 94 502 c 128,-1,77
 61 514 61 514 41 536 c 128,-1,78
 21 558 21 558 21 587.5 c 128,-1,79
 21 617 21 617 46 640 c 128,-1,80
 71 663 71 663 112 676 c 0,81,82
 196 701 196 701 287 701 c 0,83,84
 523 701 523 701 523 577 c 0,85,86
 523 566 523 566 518 544 c 1,87,88
 720 707 720 707 846 707 c 0,89,90
 902 707 902 707 902 673 c 0,91,92
 902 624 902 624 799.5 534 c 128,-1,93
 697 444 697 444 588 394 c 1,0,1
56 -112 m 0,94,95
 85 -112 85 -112 211.5 73.5 c 128,-1,96
 338 259 338 259 414 419 c 1,97,98
 264 276 264 276 148.5 121.5 c 128,-1,99
 33 -33 33 -33 33 -89 c 0,100,101
 33 -112 33 -112 56 -112 c 0,94,95
545 42 m 1,102,-1
 364 46 l 1,103,104
 287 46 287 46 287 23 c 0,105,106
 287 10 287 10 313 -1.5 c 128,-1,107
 339 -13 339 -13 373 -13 c 0,108,109
 462 -13 462 -13 545 42 c 1,102,-1
EndSplineSet
EndChar

StartChar: C
Encoding: 67 67 38
Width: 428
GlyphClass: 2
Flags: W
LayerCount: 2
Fore
SplineSet
69 364 m 1,0,1
 122 364 122 364 185 381 c 1,2,3
 303 516 303 516 436.5 609.5 c 128,-1,4
 570 703 570 703 662 703 c 0,5,6
 708 703 708 703 708 680 c 0,7,8
 708 649 708 649 638 591 c 128,-1,9
 568 533 568 533 456 472 c 128,-1,10
 344 411 344 411 236 375 c 1,11,12
 155 281 155 281 105 193 c 128,-1,13
 55 105 55 105 55 48 c 0,14,15
 55 -32 55 -32 157 -32 c 0,16,17
 214 -32 214 -32 283 4 c 128,-1,18
 352 40 352 40 397 75 c 0,19,20
 407 82 407 82 414.5 82 c 128,-1,21
 422 82 422 82 422 74 c 0,22,23
 422 69 422 69 418 65 c 0,24,25
 371 31 371 31 334.5 9 c 128,-1,26
 298 -13 298 -13 239 -34.5 c 128,-1,27
 180 -56 180 -56 126 -56 c 0,28,29
 0 -56 0 -56 0 41 c 0,30,31
 0 158 0 158 162 354 c 1,32,33
 114 342 114 342 70 339 c 1,34,35
 58 341 58 341 58 352 c 128,-1,36
 58 363 58 363 69 364 c 1,0,1
631 675 m 0,37,38
 572 675 572 675 467.5 596.5 c 128,-1,39
 363 518 363 518 261 404 c 1,40,41
 354 437 354 437 448.5 490.5 c 128,-1,42
 543 544 543 544 600 591.5 c 128,-1,43
 657 639 657 639 657 661 c 0,44,45
 657 675 657 675 631 675 c 0,37,38
EndSplineSet
EndChar

StartChar: D
Encoding: 68 68 39
Width: 787
GlyphClass: 2
Flags: W
LayerCount: 2
Fore
SplineSet
518 16 m 0,0,1
 545 16 545 16 595 63 c 128,-1,2
 645 110 645 110 704 187 c 1,3,4
 674 182 674 182 648 182 c 0,5,6
 583 182 583 182 552 212.5 c 128,-1,7
 521 243 521 243 521 298.5 c 128,-1,8
 521 354 521 354 557.5 430 c 128,-1,9
 594 506 594 506 648.5 572 c 128,-1,10
 703 638 703 638 774 683.5 c 128,-1,11
 845 729 845 729 907 729 c 0,12,13
 975 729 975 729 975 657 c 128,-1,14
 975 585 975 585 918 467 c 128,-1,15
 861 349 861 349 776 233 c 1,16,17
 837 257 837 257 904 300 c 128,-1,18
 971 343 971 343 992.5 354 c 128,-1,19
 1014 365 1014 365 1025 365 c 128,-1,20
 1036 365 1036 365 1042.5 359.5 c 128,-1,21
 1049 354 1049 354 1049 347 c 0,22,23
 1049 333 1049 333 1016.5 327 c 128,-1,24
 984 321 984 321 894 269 c 128,-1,25
 804 217 804 217 751 200 c 1,26,27
 679 105 679 105 612.5 46 c 128,-1,28
 546 -13 546 -13 504 -13 c 0,29,30
 446 -13 446 -13 446 70 c 0,31,32
 446 93 446 93 451 136.5 c 128,-1,33
 456 180 456 180 456 193 c 0,34,35
 456 271 456 271 409 271 c 0,36,37
 392 271 392 271 373 265 c 1,38,39
 315 179 315 179 280 131 c 128,-1,40
 245 83 245 83 197 26 c 0,41,42
 105 -83 105 -83 30 -83 c 0,43,44
 0 -83 0 -83 0 -61 c 0,45,46
 0 -15 0 -15 110 93.5 c 128,-1,47
 220 202 220 202 325 262 c 1,48,49
 388 358 388 358 424 411.5 c 128,-1,50
 460 465 460 465 516 539 c 128,-1,51
 572 613 572 613 617 659 c 0,52,53
 684 726 684 726 731 726 c 0,54,55
 750 726 750 726 750 715 c 0,56,57
 750 708 750 708 744 705 c 0,58,59
 730 697 730 697 722 693 c 1,60,61
 642 640 642 640 550 519 c 0,62,63
 491 440 491 440 391 292 c 1,64,65
 410 298 410 298 428.5 298 c 128,-1,66
 447 298 447 298 461.5 290 c 128,-1,67
 476 282 476 282 482 267 c 0,68,69
 492 242 492 242 492 208 c 1,70,-1
 479 72 l 1,71,72
 479 16 479 16 518 16 c 0,0,1
698 215 m 0,73,74
 712 215 712 215 727 218 c 1,75,76
 814 336 814 336 876.5 459 c 128,-1,77
 939 582 939 582 939 644.5 c 128,-1,78
 939 707 939 707 887 707 c 0,79,80
 824 707 824 707 748.5 642 c 128,-1,81
 673 577 673 577 622 486.5 c 128,-1,82
 571 396 571 396 571 325 c 0,83,84
 571 215 571 215 698 215 c 0,73,74
61 -55 m 0,85,86
 97 -55 97 -55 154 16.5 c 128,-1,87
 211 88 211 88 307 234 c 1,88,89
 219 182 219 182 131 89.5 c 128,-1,90
 43 -3 43 -3 43 -40 c 0,91,92
 43 -55 43 -55 61 -55 c 0,85,86
EndSplineSet
EndChar

StartChar: E
Encoding: 69 69 40
Width: 672
GlyphClass: 2
Flags: W
LayerCount: 2
Fore
SplineSet
171 443 m 0,0,1
 171 421 171 421 223.5 421 c 128,-1,2
 276 421 276 421 392 437.5 c 128,-1,3
 508 454 508 454 542 454 c 0,4,5
 595 454 595 454 595 424 c 0,6,7
 595 376 595 376 416 297 c 0,8,9
 342 264 342 264 267 228 c 128,-1,10
 192 192 192 192 140 146.5 c 128,-1,11
 88 101 88 101 88 55 c 0,12,13
 88 17 88 17 173 17 c 0,14,15
 220 17 220 17 315.5 31.5 c 128,-1,16
 411 46 411 46 480 46 c 0,17,18
 603 46 603 46 603 -22 c 0,19,20
 603 -30 603 -30 594 -30 c 0,21,22
 589 -30 589 -30 572 -21 c 0,23,24
 519 6 519 6 456 6 c 1,25,26
 423 4 423 4 303 -9.5 c 128,-1,27
 183 -23 183 -23 151 -23 c 0,28,29
 31 -23 31 -23 31 41 c 0,30,31
 31 86 31 86 83.5 135 c 128,-1,32
 136 184 136 184 211 223.5 c 128,-1,33
 286 263 286 263 360.5 298 c 128,-1,34
 435 333 435 333 487.5 361 c 128,-1,35
 540 389 540 389 540 404 c 0,36,37
 540 412 540 412 522 412 c 1,38,39
 290 381 290 381 187 381 c 0,40,41
 104 381 104 381 104 418 c 0,42,43
 104 460 104 460 205 529.5 c 128,-1,44
 306 599 306 599 453 653 c 1,45,46
 209 655 209 655 40 674 c 1,47,48
 31 677 31 677 31 686 c 0,49,50
 31 699 31 699 53 699 c 0,51,52
 59 699 59 699 132 694 c 0,53,54
 338 678 338 678 412 678 c 128,-1,55
 486 678 486 678 530 680 c 1,56,57
 705 735 705 735 827 735 c 0,58,59
 871 735 871 735 871 718 c 0,60,61
 871 657 871 657 510 653 c 1,62,63
 375 606 375 606 273 541.5 c 128,-1,64
 171 477 171 477 171 443 c 0,0,1
EndSplineSet
EndChar

StartChar: F
Encoding: 70 70 41
Width: 407
GlyphClass: 2
Flags: W
LayerCount: 2
Fore
SplineSet
64 42 m 1,0,-1
 55 23 l 1,1,2
 55 20 55 20 58 20 c 0,3,4
 109 20 109 20 177 103 c 0,5,6
 233 171 233 171 314 291 c 1,7,8
 286 289 286 289 222.5 289 c 128,-1,9
 159 289 159 289 137 292 c 128,-1,10
 115 295 115 295 114 309 c 0,11,12
 114 315 114 315 117 316.5 c 128,-1,13
 120 318 120 318 188 318 c 128,-1,14
 256 318 256 318 335 321 c 1,15,16
 490 547 490 547 587 639 c 1,17,18
 420 612 420 612 227 612 c 0,19,20
 157 612 157 612 59 617 c 0,21,22
 51 617 51 617 51 610 c 0,23,24
 51 608 51 608 53 600 c 1,25,26
 53 591 53 591 39.5 591 c 128,-1,27
 26 591 26 591 5 605 c 128,-1,28
 -16 619 -16 619 -17 634 c 1,29,30
 -17 662 -17 662 19 662 c 1,31,32
 193 650 193 650 346 650 c 128,-1,33
 499 650 499 650 620 668 c 1,34,35
 740 768 740 768 852 768 c 0,36,37
 897 768 897 768 897 752 c 0,38,39
 897 724 897 724 776 684 c 0,40,41
 714 663 714 663 632 647 c 1,42,43
 560 579 560 579 468 446 c 1,44,45
 437 403 437 403 385 324 c 1,46,-1
 533 335 l 1,47,48
 554 335 554 335 554 313 c 0,49,50
 554 304 554 304 535 295.5 c 128,-1,51
 516 287 516 287 497 275 c 128,-1,52
 478 263 478 263 478 246.5 c 128,-1,53
 478 230 478 230 468 230 c 0,54,55
 422 230 422 230 422 248 c 0,56,57
 422 268 422 268 447 293 c 1,58,59
 447 297 447 297 440 297 c 2,60,-1
 381 294 l 1,61,-1
 365 293 l 1,62,63
 237 96 237 96 165 29 c 0,64,65
 95 -36 95 -36 40 -36 c 0,66,67
 5 -36 5 -36 5 -8 c 0,68,69
 5 11 5 11 20 31 c 128,-1,70
 35 51 35 51 49.5 51 c 128,-1,71
 64 51 64 51 64 42 c 1,0,-1
818 740 m 0,72,73
 745 740 745 740 664 675 c 1,74,75
 775 695 775 695 812 720 c 0,76,77
 826 730 826 730 826 735 c 128,-1,78
 826 740 826 740 818 740 c 0,72,73
EndSplineSet
EndChar

StartChar: G
Encoding: 71 71 42
Width: 452
GlyphClass: 2
Flags: W
LayerCount: 2
Fore
SplineSet
64 85 m 1,0,1
 97 59 97 59 161 59 c 0,2,3
 188 59 188 59 225 64 c 1,4,5
 260 105 260 105 366 256.5 c 128,-1,6
 472 408 472 408 528 462 c 0,7,8
 532 465 532 465 532 470.5 c 128,-1,9
 532 476 532 476 529 476 c 1,10,-1
 462 436 l 2,11,12
 396 396 396 396 300 356 c 128,-1,13
 204 316 204 316 131 316 c 0,14,15
 21 316 21 316 21 385 c 0,16,17
 21 425 21 425 59 482 c 1,18,19
 0 485 0 485 0 509 c 0,20,21
 0 514 0 514 4.5 519 c 128,-1,22
 9 524 9 524 12 524 c 128,-1,23
 15 524 15 524 33.5 517.5 c 128,-1,24
 52 511 52 511 80 510 c 1,25,26
 148 596 148 596 253 664 c 128,-1,27
 358 732 358 732 437 732 c 0,28,29
 482 732 482 732 482 709 c 0,30,31
 482 680 482 680 420 630 c 128,-1,32
 358 580 358 580 265.5 536.5 c 128,-1,33
 173 493 173 493 99 484 c 1,34,35
 77 446 77 446 77 417 c 0,36,37
 77 354 77 354 185 354 c 0,38,39
 246 354 246 354 356 402.5 c 128,-1,40
 466 451 466 451 578 537 c 1,41,42
 733 658 733 658 754 681 c 1,43,44
 760 690 760 690 766.5 690 c 128,-1,45
 773 690 773 690 778 685 c 128,-1,46
 783 680 783 680 783 674 c 128,-1,47
 783 668 783 668 776 664 c 1,48,49
 695 599 695 599 615 512.5 c 128,-1,50
 535 426 535 426 486.5 361.5 c 128,-1,51
 438 297 438 297 371.5 204 c 128,-1,52
 305 111 305 111 278 75 c 1,53,54
 343 92 343 92 402 117.5 c 128,-1,55
 461 143 461 143 473 157 c 1,56,57
 483 157 483 157 483 146 c 0,58,59
 483 131 483 131 410.5 99.5 c 128,-1,60
 338 68 338 68 256 47 c 1,61,62
 158 -74 158 -74 83 -74 c 0,63,64
 53 -74 53 -74 38.5 -42.5 c 128,-1,65
 24 -11 24 -11 24 25.5 c 128,-1,66
 24 62 24 62 30.5 84.5 c 128,-1,67
 37 107 37 107 45.5 107 c 128,-1,68
 54 107 54 107 57 104 c 128,-1,69
 60 101 60 101 61.5 94.5 c 128,-1,70
 63 88 63 88 64 85 c 1,0,1
387 697 m 0,71,72
 335 697 335 697 252.5 639.5 c 128,-1,73
 170 582 170 582 119 513 c 1,74,75
 209 527 209 527 313.5 588.5 c 128,-1,76
 418 650 418 650 418 682 c 0,77,78
 418 697 418 697 387 697 c 0,71,72
102 -25 m 0,79,80
 141 -25 141 -25 198 34 c 1,81,82
 160 28 160 28 118 28 c 128,-1,83
 76 28 76 28 56 48 c 1,84,85
 48 47 48 47 48 31.5 c 128,-1,86
 48 16 48 16 50.5 5.5 c 128,-1,87
 53 -5 53 -5 65.5 -15 c 128,-1,88
 78 -25 78 -25 102 -25 c 0,79,80
EndSplineSet
EndChar

StartChar: H
Encoding: 72 72 43
Width: 654
GlyphClass: 2
Flags: W
LayerCount: 2
Fore
SplineSet
1015 732 m 0,0,1
 1015 688 1015 688 932 617 c 128,-1,2
 849 546 849 546 696 444 c 1,3,4
 603 319 603 319 538.5 205 c 128,-1,5
 474 91 474 91 474 47 c 128,-1,6
 474 3 474 3 499 3 c 0,7,8
 517 3 517 3 548.5 22 c 128,-1,9
 580 41 580 41 602 60 c 2,10,-1
 624 79 l 1,11,12
 630 86 630 86 635 86 c 128,-1,13
 640 86 640 86 640 82 c 0,14,15
 640 56 640 56 576 18 c 128,-1,16
 512 -20 512 -20 480 -20 c 0,17,18
 419 -20 419 -20 419 27.5 c 128,-1,19
 419 75 419 75 467 170 c 128,-1,20
 515 265 515 265 591 374 c 1,21,22
 426 267 426 267 344 212 c 1,23,24
 238 67 238 67 133 -39.5 c 128,-1,25
 28 -146 28 -146 -14 -146 c 0,26,27
 -37 -146 -37 -146 -37 -129 c 0,28,29
 -37 -73 -37 -73 48.5 8 c 128,-1,30
 134 89 134 89 286 195 c 1,31,32
 380 329 380 329 443.5 449.5 c 128,-1,33
 507 570 507 570 507 625 c 0,34,35
 507 688 507 688 444 702 c 1,36,37
 395 714 395 714 341.5 714 c 128,-1,38
 288 714 288 714 256.5 711 c 128,-1,39
 225 708 225 708 187 699.5 c 128,-1,40
 149 691 149 691 125.5 672 c 128,-1,41
 102 653 102 653 102 626 c 0,42,43
 102 595 102 595 156.5 577 c 128,-1,44
 211 559 211 559 278.5 541 c 128,-1,45
 346 523 346 523 365 497 c 1,46,47
 373 488 373 488 376 464 c 0,48,49
 376 457 376 457 371.5 457 c 128,-1,50
 367 457 367 457 363 464 c 0,51,52
 354 485 354 485 305.5 501.5 c 128,-1,53
 257 518 257 518 204.5 527.5 c 128,-1,54
 152 537 152 537 109.5 558.5 c 128,-1,55
 67 580 67 580 67 612 c 128,-1,56
 67 644 67 644 88 667.5 c 128,-1,57
 109 691 109 691 137.5 703 c 128,-1,58
 166 715 166 715 210 722 c 0,59,60
 276 731 276 731 364.5 731 c 128,-1,61
 453 731 453 731 502.5 702 c 128,-1,62
 552 673 552 673 552 621 c 0,63,64
 552 510 552 510 374 255 c 1,65,66
 422 287 422 287 510 344.5 c 128,-1,67
 598 402 598 402 623 419 c 1,68,69
 726 559 726 559 829.5 654 c 128,-1,70
 933 749 933 749 997 749 c 0,71,72
 1015 749 1015 749 1015 732 c 0,0,1
-2 -123 m 0,73,74
 26 -123 26 -123 98.5 -44.5 c 128,-1,75
 171 34 171 34 256 152 c 1,76,77
 -9 -34 -9 -34 -9 -114 c 0,78,79
 -9 -123 -9 -123 -2 -123 c 0,73,74
973 726 m 0,80,81
 945 726 945 726 879 660.5 c 128,-1,82
 813 595 813 595 733 492 c 1,83,84
 979 660 979 660 979 720 c 0,85,86
 979 726 979 726 973 726 c 0,80,81
EndSplineSet
EndChar

StartChar: I
Encoding: 73 73 44
Width: 335
GlyphClass: 2
Flags: W
LayerCount: 2
Fore
SplineSet
577 647 m 1,0,1
 525 596 525 596 353 339 c 1,2,3
 494 365 494 365 527.5 365 c 128,-1,4
 561 365 561 365 597 352 c 128,-1,5
 633 339 633 339 633 323 c 0,6,7
 633 317 633 317 627.5 313 c 128,-1,8
 622 309 622 309 616.5 309 c 128,-1,9
 611 309 611 309 565 323 c 128,-1,10
 519 337 519 337 476.5 337 c 128,-1,11
 434 337 434 337 340 320 c 1,12,13
 157 52 157 52 98 -1 c 0,14,15
 68 -28 68 -28 49 -28 c 0,16,17
 32 -28 32 -28 32 -4 c 0,18,19
 32 9 32 9 39 28 c 128,-1,20
 46 47 46 47 58 47 c 0,21,22
 62 47 62 47 63 38.5 c 128,-1,23
 64 30 64 30 66 30 c 0,24,25
 86 30 86 30 140.5 101.5 c 128,-1,26
 195 173 195 173 290 311 c 1,27,28
 175 289 175 289 115 289 c 0,29,30
 0 289 0 289 0 349.5 c 128,-1,31
 0 410 0 410 102 503.5 c 128,-1,32
 204 597 204 597 350 668.5 c 128,-1,33
 496 740 496 740 605 740 c 0,34,35
 682 740 682 740 682 698 c 0,36,37
 682 666 682 666 643 627 c 128,-1,38
 604 588 604 588 581 588 c 0,39,40
 575 588 575 588 575 595.5 c 128,-1,41
 575 603 575 603 579 606 c 0,42,43
 600 616 600 616 618.5 638 c 128,-1,44
 637 660 637 660 637 679 c 0,45,46
 637 715 637 715 562 715 c 128,-1,47
 487 715 487 715 364 652 c 128,-1,48
 241 589 241 589 150 506 c 128,-1,49
 59 423 59 423 59 369.5 c 128,-1,50
 59 316 59 316 164 316 c 0,51,52
 204 316 204 316 304 332 c 1,53,54
 411 485 411 485 459 548 c 0,55,56
 547 662 547 662 580 662 c 0,57,58
 585 662 585 662 585 659 c 1,59,-1
 577 647 l 1,0,1
EndSplineSet
EndChar

StartChar: J
Encoding: 74 74 45
Width: 565
GlyphClass: 2
Flags: W
LayerCount: 2
Fore
SplineSet
281 158 m 1,0,1
 327 123 327 123 417 123 c 2,2,-1
 421 123 l 1,3,4
 477 227 477 227 528 315 c 1,5,6
 375 225 375 225 281 158 c 1,0,1
871 631 m 0,7,8
 871 665 871 665 825 671 c 1,9,10
 738 570 738 570 633 405 c 1,11,12
 750 475 750 475 810.5 528 c 128,-1,13
 871 581 871 581 871 631 c 0,7,8
280.5 378.5 m 128,-1,15
 238 308 238 308 238 257 c 128,-1,16
 238 206 238 206 261 177 c 1,17,18
 355 243 355 243 552 357 c 1,19,20
 672 563 672 563 769 671 c 1,21,22
 664 664 664 664 563 619 c 128,-1,23
 462 574 462 574 392.5 511.5 c 128,-1,14
 323 449 323 449 280.5 378.5 c 128,-1,15
410 103 m 1,24,-1
 389 103 l 2,25,26
 301 103 301 103 247 134 c 1,27,28
 -9 -55 -9 -55 -9 -237 c 0,29,30
 -9 -349 -9 -349 69 -349 c 0,31,32
 106 -349 106 -349 144 -311 c 0,33,34
 166 -290 166 -290 183.5 -271 c 128,-1,35
 201 -252 201 -252 226.5 -213 c 128,-1,36
 252 -174 252 -174 268.5 -147.5 c 128,-1,37
 285 -121 285 -121 315 -68.5 c 128,-1,38
 345 -16 345 -16 360.5 13 c 128,-1,39
 376 42 376 42 410 103 c 1,24,-1
895 633 m 0,40,41
 894 574 894 574 821 511 c 128,-1,42
 748 448 748 448 606 362 c 1,43,44
 528 236 528 236 465 126 c 1,45,46
 562 141 562 141 629 197 c 0,47,48
 633 200 633 200 638 200 c 128,-1,49
 643 200 643 200 643 194.5 c 128,-1,50
 643 189 643 189 621 172.5 c 128,-1,51
 599 156 599 156 552.5 136 c 128,-1,52
 506 116 506 116 455 108 c 1,53,54
 296 -162 296 -162 236 -238 c 0,55,56
 155 -341 155 -341 106 -368 c 0,57,58
 76 -384 76 -384 48 -384 c 0,59,60
 5 -384 5 -384 -19.5 -346 c 128,-1,61
 -44 -308 -44 -308 -44 -260 c 0,62,63
 -44 -50 -44 -50 225 151 c 1,64,65
 186 186 186 186 186 246.5 c 128,-1,66
 186 307 186 307 232.5 381.5 c 128,-1,67
 279 456 279 456 356.5 522 c 128,-1,68
 434 588 434 588 548.5 635 c 128,-1,69
 663 682 663 682 785 689 c 1,70,71
 832 738 832 738 867 764 c 0,72,73
 879 772 879 772 897.5 772 c 128,-1,74
 916 772 916 772 916 762 c 0,75,76
 916 757 916 757 902 747 c 128,-1,77
 888 737 888 737 881 731 c 2,78,-1
 840 688 l 1,79,80
 863 683 863 683 879 667 c 128,-1,81
 895 651 895 651 895 633 c 0,40,41
EndSplineSet
EndChar

StartChar: K
Encoding: 75 75 46
Width: 695
GlyphClass: 2
Flags: W
LayerCount: 2
Fore
SplineSet
608 498 m 0,0,1
 608 493 608 493 606 479 c 1,2,3
 635 505 635 505 694.5 560.5 c 128,-1,4
 754 616 754 616 794.5 652 c 128,-1,5
 835 688 835 688 885 728 c 0,6,7
 986 810 986 810 1043 810 c 0,8,9
 1057 810 1057 810 1057 801 c 0,10,11
 1056 781 1056 781 1039 765.5 c 128,-1,12
 1022 750 1022 750 1000.5 745.5 c 128,-1,13
 979 741 979 741 944 721.5 c 128,-1,14
 909 702 909 702 862.5 667 c 128,-1,15
 816 632 816 632 779 602 c 128,-1,16
 742 572 742 572 685 524.5 c 128,-1,17
 628 477 628 477 601 455 c 1,18,19
 594 426 594 426 542.5 265 c 128,-1,20
 491 104 491 104 491 60 c 0,21,22
 491 5 491 5 545 5 c 0,23,24
 576 5 576 5 604.5 16.5 c 128,-1,25
 633 28 633 28 649.5 40 c 128,-1,26
 666 52 666 52 669 52 c 128,-1,27
 672 52 672 52 672 48 c 0,28,29
 672 25 672 25 614 0 c 128,-1,30
 556 -25 556 -25 523 -25 c 0,31,32
 454 -25 454 -25 454 47 c 0,33,34
 454 115 454 115 492 232 c 0,35,36
 505 272 505 272 527.5 337 c 128,-1,37
 550 402 550 402 555 418 c 1,38,39
 476 357 476 357 447 357 c 128,-1,40
 418 357 418 357 418 379 c 0,41,42
 418 414 418 414 481 471 c 128,-1,43
 544 528 544 528 586 528 c 0,44,45
 608 528 608 528 608 498 c 0,0,1
52.5 45.5 m 128,-1,47
 58 47 58 47 66 47 c 128,-1,48
 74 47 74 47 76 39.5 c 128,-1,49
 78 32 78 32 80 32 c 1,50,51
 124 64 124 64 207 172.5 c 128,-1,52
 290 281 290 281 362 411.5 c 128,-1,53
 434 542 434 542 434 609 c 1,54,55
 432 656 432 656 400 680 c 0,56,57
 372 700 372 700 253.5 700 c 128,-1,58
 135 700 135 700 65.5 676.5 c 128,-1,59
 -4 653 -4 653 -4 615 c 0,60,61
 -4 591 -4 591 30.5 576.5 c 128,-1,62
 65 562 65 562 100 557 c 1,63,64
 114 553 114 553 144.5 550 c 128,-1,65
 175 547 175 547 200 543 c 128,-1,66
 225 539 225 539 250 532 c 0,67,68
 306 515 306 515 306 468 c 1,69,-1
 302 462 l 1,70,71
 285 485 285 485 270 490.5 c 128,-1,72
 255 496 255 496 249.5 498 c 128,-1,73
 244 500 244 500 229 502.5 c 128,-1,74
 214 505 214 505 207 506 c 0,75,76
 186 509 186 509 150 513 c 0,77,78
 -34 536 -34 536 -34 604 c 0,79,80
 -34 639 -34 639 1.5 664 c 128,-1,81
 37 689 37 689 92 700 c 0,82,83
 188 719 188 719 281 719 c 0,84,85
 390 719 390 719 432 693 c 0,86,87
 449 682 449 682 461.5 659.5 c 128,-1,88
 474 637 474 637 474 606 c 0,89,90
 474 547 474 547 378 386 c 128,-1,91
 282 225 282 225 172.5 88.5 c 128,-1,92
 63 -48 63 -48 29 -48 c 0,93,94
 12 -48 12 -48 12 -31 c 0,95,96
 12 -24 12 -24 16 -15.5 c 128,-1,97
 20 -7 20 -7 26.5 7.5 c 128,-1,98
 33 22 33 22 35.5 26.5 c 128,-1,99
 38 31 38 31 42.5 37.5 c 128,-1,46
 47 44 47 44 52.5 45.5 c 128,-1,47
457 382 m 0,100,101
 489 382 489 382 562 442 c 1,102,103
 569 463 569 463 569 475 c 0,104,105
 569 496 569 496 551 496 c 0,106,107
 528 496 528 496 487 454 c 128,-1,108
 446 412 446 412 446 391 c 0,109,110
 446 382 446 382 457 382 c 0,100,101
EndSplineSet
EndChar

StartChar: L
Encoding: 76 76 47
Width: 809
GlyphClass: 2
Flags: W
LayerCount: 2
Fore
SplineSet
0 -53 m 0,0,1
 0 -4 0 -4 89 76 c 128,-1,2
 178 156 178 156 272 172 c 1,3,4
 291 196 291 196 334 253 c 128,-1,5
 377 310 377 310 404 344 c 0,6,7
 489 456 489 456 540 513 c 1,8,9
 336 459 336 459 123 459 c 0,10,11
 79 459 79 459 79 472 c 0,12,13
 79 479 79 479 91 487 c 128,-1,14
 103 495 103 495 114 495 c 1,15,16
 168 488 168 488 217 488 c 0,17,18
 378 488 378 488 567 544 c 1,19,20
 748 742 748 742 873 742 c 0,21,22
 925 742 925 742 925 718 c 0,23,24
 925 685 925 685 832 629 c 128,-1,25
 739 573 739 573 596 529 c 1,26,27
 544 467 544 467 446 335 c 128,-1,28
 348 203 348 203 325 174 c 1,29,30
 417 170 417 170 484 112 c 0,31,32
 512 89 512 89 538 66 c 0,33,34
 602 11 602 11 674 11 c 0,35,36
 708 11 708 11 748.5 32.5 c 128,-1,37
 789 54 789 54 794.5 54 c 128,-1,38
 800 54 800 54 800 49 c 0,39,40
 800 31 800 31 749 9.5 c 128,-1,41
 698 -12 698 -12 648 -12 c 128,-1,42
 598 -12 598 -12 558 4.5 c 128,-1,43
 518 21 518 21 491.5 45 c 128,-1,44
 465 69 465 69 440 93 c 0,45,46
 381 152 381 152 312 157 c 1,47,48
 223 44 223 44 155 -18 c 128,-1,49
 87 -80 87 -80 34 -80 c 0,50,51
 0 -80 0 -80 0 -53 c 0,0,1
41 -53 m 0,52,53
 76 -53 76 -53 129 0 c 128,-1,54
 182 53 182 53 258 153 c 1,55,56
 180 135 180 135 101.5 65.5 c 128,-1,57
 23 -4 23 -4 23 -39 c 0,58,59
 23 -53 23 -53 41 -53 c 0,52,53
855 724 m 0,60,61
 766 724 766 724 624 563 c 1,62,63
 736 601 736 601 812.5 644 c 128,-1,64
 889 687 889 687 889 710 c 0,65,66
 889 724 889 724 855 724 c 0,60,61
EndSplineSet
EndChar

StartChar: M
Encoding: 77 77 48
Width: 794
GlyphClass: 2
Flags: W
LayerCount: 2
Fore
SplineSet
54 -16 m 0,0,1
 34 -16 34 -16 34 4 c 0,2,3
 34 58 34 58 155.5 209 c 128,-1,4
 277 360 277 360 409 469 c 1,5,6
 457 570 457 570 457 626 c 0,7,8
 457 693 457 693 390 693 c 0,9,10
 327 693 327 693 241.5 630 c 128,-1,11
 156 567 156 567 97 489.5 c 128,-1,12
 38 412 38 412 38 368 c 0,13,14
 38 336 38 336 75 336 c 0,15,16
 128 336 128 336 190.5 390 c 128,-1,17
 253 444 253 444 284 495 c 0,18,19
 295 513 295 513 302 513 c 128,-1,20
 309 513 309 513 309 506 c 128,-1,21
 309 499 309 499 305 494 c 0,22,23
 271 443 271 443 197 377 c 128,-1,24
 123 311 123 311 62 311 c 128,-1,25
 1 311 1 311 1 356 c 0,26,27
 1 395 1 395 43 457 c 128,-1,28
 85 519 85 519 145.5 576.5 c 128,-1,29
 206 634 206 634 281.5 675.5 c 128,-1,30
 357 717 357 717 416 717 c 0,31,32
 493 717 493 717 493 641 c 0,33,34
 493 591 493 591 457 506 c 1,35,36
 556 579 556 579 616 579 c 0,37,38
 652 579 652 579 652 541 c 128,-1,39
 652 503 652 503 585 393.5 c 128,-1,40
 518 284 518 284 451 196 c 2,41,-1
 384 107 l 1,42,43
 384 105 384 105 385 105 c 0,44,45
 423 131 423 131 518.5 219 c 128,-1,46
 614 307 614 307 694.5 371 c 128,-1,47
 775 435 775 435 814 435 c 0,48,49
 837 435 837 435 837 412 c 128,-1,50
 837 389 837 389 777 309 c 128,-1,51
 717 229 717 229 657 145 c 128,-1,52
 597 61 597 61 597 29 c 128,-1,53
 597 -3 597 -3 624 -3 c 0,54,55
 655 -3 655 -3 705 28.5 c 128,-1,56
 755 60 755 60 775 79 c 128,-1,57
 795 98 795 98 800 98 c 128,-1,58
 805 98 805 98 805 94 c 0,59,60
 805 82 805 82 771.5 53 c 128,-1,61
 738 24 738 24 687.5 -2 c 128,-1,62
 637 -28 637 -28 601 -28 c 0,63,64
 553 -28 553 -28 553 11.5 c 128,-1,65
 553 51 553 51 586.5 108 c 128,-1,66
 620 165 620 165 660 214 c 0,67,68
 774 350 774 350 787 394 c 1,69,70
 787 405 787 405 777 405 c 0,71,72
 753 405 753 405 629 297 c 128,-1,73
 505 189 505 189 447 133 c 128,-1,74
 389 77 389 77 369 57 c 128,-1,75
 349 37 349 37 338 25 c 128,-1,76
 327 13 327 13 316 3 c 0,77,78
 295 -16 295 -16 288 -16 c 0,79,80
 287 -16 287 -16 286 -15 c 0,81,82
 277 -11 277 -11 277 -1 c 0,83,84
 277 24 277 24 341 104 c 0,85,86
 454 244 454 244 533.5 370 c 128,-1,87
 613 496 613 496 613 538 c 0,88,89
 613 554 613 554 593 554 c 0,90,91
 544 554 544 554 439 466 c 1,92,93
 363 310 363 310 231 147 c 128,-1,94
 99 -16 99 -16 54 -16 c 0,0,1
76 10 m 0,95,96
 102 10 102 10 207 146.5 c 128,-1,97
 312 283 312 283 384 418 c 1,98,99
 270 313 270 313 167.5 185.5 c 128,-1,100
 65 58 65 58 65 21 c 0,101,102
 65 10 65 10 76 10 c 0,95,96
EndSplineSet
EndChar

StartChar: N
Encoding: 78 78 49
Width: 592
GlyphClass: 2
Flags: W
LayerCount: 2
Fore
SplineSet
270 379 m 0,0,1
 263 379 263 379 259.5 385 c 128,-1,2
 256 391 256 391 255 392 c 1,3,4
 244 381 244 381 224.5 364 c 128,-1,5
 205 347 205 347 155 319 c 128,-1,6
 105 291 105 291 66 291 c 0,7,8
 1 291 1 291 1 341 c 0,9,10
 1 395 1 395 70 481 c 128,-1,11
 139 567 139 567 241.5 634.5 c 128,-1,12
 344 702 344 702 425 702 c 0,13,14
 472 702 472 702 496.5 674 c 128,-1,15
 521 646 521 646 521 601.5 c 128,-1,16
 521 557 521 557 482 474 c 1,17,18
 638 590 638 590 699 590 c 0,19,20
 711 590 711 590 719 583 c 128,-1,21
 727 576 727 576 727 564 c 0,22,23
 727 544 727 544 645.5 435 c 128,-1,24
 564 326 564 326 482 207 c 128,-1,25
 400 88 400 88 400 43 c 0,26,27
 400 15 400 15 431 15 c 0,28,29
 478 15 478 15 564 101 c 0,30,31
 577 114 577 114 586 114 c 0,32,33
 592 114 592 114 592 105.5 c 128,-1,34
 592 97 592 97 560 68.5 c 128,-1,35
 528 40 528 40 480.5 13 c 128,-1,36
 433 -14 433 -14 398 -14 c 0,37,38
 351 -14 351 -14 351 25.5 c 128,-1,39
 351 65 351 65 400.5 147.5 c 128,-1,40
 450 230 450 230 510 308 c 0,41,42
 669 513 669 513 669 547 c 0,43,44
 669 553 669 553 662 553 c 0,45,46
 605 553 605 553 468 445 c 1,47,48
 391 294 391 294 258.5 131 c 128,-1,49
 126 -32 126 -32 80 -32 c 0,50,51
 55 -32 55 -32 55 -11 c 0,52,53
 55 54 55 54 167 182.5 c 128,-1,54
 279 311 279 311 425 429 c 1,55,56
 480 539 480 539 480 601 c 0,57,58
 480 677 480 677 399 677 c 0,59,60
 337 677 337 677 249.5 616.5 c 128,-1,61
 162 556 162 556 100 479 c 128,-1,62
 38 402 38 402 38 357 c 0,63,64
 38 319 38 319 88 319 c 0,65,66
 122 319 122 319 185 360 c 128,-1,67
 248 401 248 401 257 417 c 0,68,69
 300 493 300 493 306 501 c 0,70,71
 327 534 327 534 340 534 c 0,72,73
 345 534 345 534 346 527 c 128,-1,74
 347 520 347 520 344.5 513.5 c 128,-1,75
 342 507 342 507 336 497.5 c 128,-1,76
 330 488 330 488 325 480.5 c 128,-1,77
 320 473 320 473 311.5 461 c 128,-1,78
 303 449 303 449 296.5 440 c 128,-1,79
 290 431 290 431 286 423 c 0,80,81
 280 411 280 411 280 395 c 128,-1,82
 280 379 280 379 270 379 c 0,0,1
93 -8 m 0,83,84
 120 -7 120 -7 227.5 126.5 c 128,-1,85
 335 260 335 260 407 394 c 1,86,87
 281 286 281 286 185 170 c 128,-1,88
 89 54 89 54 89 -1 c 0,89,90
 89 -8 89 -8 93 -8 c 0,83,84
EndSplineSet
EndChar

StartChar: O
Encoding: 79 79 50
Width: 527
GlyphClass: 2
Flags: W
LayerCount: 2
Fore
SplineSet
590.5 734 m 128,-1,1
 608 718 608 718 608 693 c 128,-1,2
 608 668 608 668 596 648 c 1,3,4
 647 623 647 623 647 551 c 0,5,6
 647 454 647 454 564.5 316.5 c 128,-1,7
 482 179 482 179 366 86 c 1,8,9
 408 88 408 88 453.5 106 c 128,-1,10
 499 124 499 124 527 141 c 128,-1,11
 555 158 555 158 558.5 158 c 128,-1,12
 562 158 562 158 562 150 c 0,13,14
 562 130 562 130 486 99.5 c 128,-1,15
 410 69 410 69 351 69 c 2,16,-1
 344 69 l 1,17,18
 230 -15 230 -15 131 -15 c 0,19,20
 65 -15 65 -15 33 21.5 c 128,-1,21
 1 58 1 58 1 131 c 128,-1,22
 1 204 1 204 49.5 313 c 128,-1,23
 98 422 98 422 172.5 518.5 c 128,-1,24
 247 615 247 615 346 682.5 c 128,-1,25
 445 750 445 750 536 750 c 0,26,0
 573 750 573 750 590.5 734 c 128,-1,1
446 498 m 1,27,-1
 447 491 l 1,28,29
 447 479 447 479 440 479 c 0,30,31
 427 479 427 479 427 506.5 c 128,-1,32
 427 534 427 534 446.5 557 c 128,-1,33
 466 580 466 580 503 603.5 c 128,-1,34
 540 627 540 627 552 638 c 1,35,36
 536 642 536 642 526 642 c 0,37,38
 440 642 440 642 361 577.5 c 128,-1,39
 282 513 282 513 237 422.5 c 128,-1,40
 192 332 192 332 192 256 c 0,41,42
 192 96 192 96 341 86 c 1,43,44
 447 172 447 172 526 313 c 128,-1,45
 605 454 605 454 605 550 c 0,46,47
 605 601 605 601 579 624 c 1,48,49
 561 604 561 604 525.5 579.5 c 128,-1,50
 490 555 490 555 468 535.5 c 128,-1,51
 446 516 446 516 446 498 c 1,27,-1
162 10 m 0,52,53
 236 10 236 10 320 70 c 1,54,55
 230 77 230 77 186 124 c 128,-1,56
 142 171 142 171 142 239.5 c 128,-1,57
 142 308 142 308 175.5 381.5 c 128,-1,58
 209 455 209 455 262 516.5 c 128,-1,59
 315 578 315 578 389.5 619 c 128,-1,60
 464 660 464 660 539 660 c 0,61,62
 554 660 554 660 568 657 c 1,63,64
 581 676 581 676 581 695.5 c 128,-1,65
 581 715 581 715 565 724 c 128,-1,66
 549 733 549 733 528 733 c 0,67,68
 447 733 447 733 358 668.5 c 128,-1,69
 269 604 269 604 203 512 c 128,-1,70
 137 420 137 420 94 316.5 c 128,-1,71
 51 213 51 213 51 145 c 0,72,73
 51 10 51 10 162 10 c 0,52,53
EndSplineSet
EndChar

StartChar: P
Encoding: 80 80 51
Width: 390
GlyphClass: 2
Flags: W
LayerCount: 2
Fore
SplineSet
0 -51 m 0,0,1
 0 2 0 2 138 176.5 c 128,-1,2
 276 351 276 351 442 500 c 1,3,4
 464 555 464 555 464 587 c 0,5,6
 464 722 464 722 235 722 c 0,7,8
 165 722 165 722 111 696 c 0,9,10
 78 680 78 680 78 656 c 128,-1,11
 78 632 78 632 113.5 606.5 c 128,-1,12
 149 581 149 581 192 561 c 128,-1,13
 235 541 235 541 270.5 508.5 c 128,-1,14
 306 476 306 476 306 440 c 0,15,16
 306 420 306 420 302 410 c 128,-1,17
 298 400 298 400 295 400 c 0,18,19
 290 400 290 400 288 414 c 1,20,21
 288 470 288 470 204 515 c 0,22,23
 168 534 168 534 132 552 c 1,24,25
 48 597 48 597 48 649 c 0,26,27
 48 673 48 673 70 691.5 c 128,-1,28
 92 710 92 710 126 720 c 0,29,30
 191 738 191 738 237 738 c 128,-1,31
 283 738 283 738 324 731 c 128,-1,32
 365 724 365 724 409.5 708 c 128,-1,33
 454 692 454 692 482.5 658.5 c 128,-1,34
 511 625 511 625 511 579 c 0,35,36
 511 573 511 573 509 557 c 1,37,38
 718 728 718 728 839 728 c 0,39,40
 889 728 889 728 889 686 c 0,41,42
 889 638 889 638 832.5 560 c 128,-1,43
 776 482 776 482 695.5 420.5 c 128,-1,44
 615 359 615 359 556 359 c 0,45,46
 487 359 487 359 482 430 c 1,47,48
 482 446 482 446 492 446 c 0,49,50
 499 446 499 446 505.5 431 c 128,-1,51
 512 416 512 416 530.5 398.5 c 128,-1,52
 549 381 549 381 569 381 c 0,53,54
 615 381 615 381 679 443 c 128,-1,55
 743 505 743 505 786.5 575.5 c 128,-1,56
 830 646 830 646 830 677 c 0,57,58
 830 699 830 699 807 699 c 0,59,60
 706 699 706 699 498 517 c 1,61,62
 465 422 465 422 370 280.5 c 128,-1,63
 275 139 275 139 173 33 c 128,-1,64
 71 -73 71 -73 24 -73 c 0,65,66
 0 -73 0 -73 0 -51 c 0,0,1
43 -45 m 0,67,68
 92 -45 92 -45 219 123 c 128,-1,69
 346 291 346 291 419 445 c 1,70,71
 271 303 271 303 155 155.5 c 128,-1,72
 39 8 39 8 39 -40 c 0,73,74
 39 -45 39 -45 43 -45 c 0,67,68
EndSplineSet
EndChar

StartChar: Q
Encoding: 81 81 52
Width: 876
GlyphClass: 2
Flags: W
LayerCount: 2
Fore
SplineSet
712 736 m 0,0,1
 838 736 838 736 838 653.5 c 128,-1,2
 838 571 838 571 723.5 430 c 128,-1,3
 609 289 609 289 444 148 c 1,4,5
 481 134 481 134 533.5 100.5 c 128,-1,6
 586 67 586 67 634 44 c 128,-1,7
 682 21 682 21 732.5 21 c 128,-1,8
 783 21 783 21 855 58 c 0,9,10
 864 63 864 63 870 63 c 128,-1,11
 876 63 876 63 876 58.5 c 128,-1,12
 876 54 876 54 863 44 c 1,13,14
 839 29 839 29 788 11 c 128,-1,15
 737 -7 737 -7 690 -7 c 128,-1,16
 643 -7 643 -7 593 14.5 c 128,-1,17
 543 36 543 36 489.5 71.5 c 128,-1,18
 436 107 436 107 410 119 c 1,19,20
 290 21 290 21 188.5 -40.5 c 128,-1,21
 87 -102 87 -102 36 -102 c 0,22,23
 0 -102 0 -102 0 -77 c 0,24,25
 0 -43 0 -43 54.5 13.5 c 128,-1,26
 109 70 109 70 196.5 116.5 c 128,-1,27
 284 163 284 163 362 163 c 0,28,29
 388 163 388 163 419 156 c 1,30,31
 570 284 570 284 674.5 413.5 c 128,-1,32
 779 543 779 543 779 623 c 0,33,34
 779 709 779 709 668 709 c 0,35,36
 593 709 593 709 505 672 c 128,-1,37
 417 635 417 635 349.5 584 c 128,-1,38
 282 533 282 533 236.5 477.5 c 128,-1,39
 191 422 191 422 191 385 c 0,40,41
 191 340 191 340 258.5 340 c 128,-1,42
 326 340 326 340 402.5 392.5 c 128,-1,43
 479 445 479 445 519 503 c 1,44,45
 565 573 565 573 588 573 c 0,46,47
 599 573 599 573 599 558 c 0,48,49
 599 530 599 530 539.5 473 c 128,-1,50
 480 416 480 416 393 368 c 128,-1,51
 306 320 306 320 243 320 c 0,52,53
 158 320 158 320 158 377 c 0,54,55
 158 420 158 420 207 481.5 c 128,-1,56
 256 543 256 543 331.5 599.5 c 128,-1,57
 407 656 407 656 511 696 c 128,-1,58
 615 736 615 736 712 736 c 0,0,1
38 -53 m 0,59,60
 38 -70 38 -70 70 -70 c 128,-1,61
 102 -70 102 -70 191.5 -14.5 c 128,-1,62
 281 41 281 41 386 128 c 1,63,64
 358 138 358 138 333 138 c 0,65,66
 279 138 279 138 207 100.5 c 128,-1,67
 135 63 135 63 86.5 17.5 c 128,-1,68
 38 -28 38 -28 38 -53 c 0,59,60
EndSplineSet
EndChar

StartChar: R
Encoding: 82 82 53
Width: 787
GlyphClass: 2
Flags: W
LayerCount: 2
Fore
SplineSet
478 427 m 1,0,1
 478 436 478 436 462 437 c 1,2,3
 412 336 412 336 318 213.5 c 128,-1,4
 224 91 224 91 140.5 10 c 128,-1,5
 57 -71 57 -71 28.5 -71 c 128,-1,6
 0 -71 0 -71 0 -47 c 0,7,8
 0 9 0 9 138.5 178.5 c 128,-1,9
 277 348 277 348 449 494 c 1,10,11
 466 543 466 543 466 581.5 c 128,-1,12
 466 620 466 620 444.5 647.5 c 128,-1,13
 423 675 423 675 387 688 c 0,14,15
 323 711 323 711 252 711 c 0,16,17
 88 711 88 711 86 656 c 0,18,19
 86 635 86 635 111 619.5 c 128,-1,20
 136 604 136 604 172.5 592 c 128,-1,21
 209 580 209 580 245.5 565.5 c 128,-1,22
 282 551 282 551 307.5 524 c 128,-1,23
 333 497 333 497 333 466 c 128,-1,24
 333 435 333 435 323.5 435 c 128,-1,25
 314 435 314 435 314 447 c 0,26,27
 314 484 314 484 272 511 c 128,-1,28
 230 538 230 538 180 552.5 c 128,-1,29
 130 567 130 567 88 591 c 128,-1,30
 46 615 46 615 46 642.5 c 128,-1,31
 46 670 46 670 67 687.5 c 128,-1,32
 88 705 88 705 120 714 c 0,33,34
 184 730 184 730 236 730 c 128,-1,35
 288 730 288 730 330.5 723 c 128,-1,36
 373 716 373 716 414 699.5 c 128,-1,37
 455 683 455 683 480 651 c 128,-1,38
 505 619 505 619 505 575 c 0,39,40
 505 559 505 559 500 536 c 1,41,42
 738 725 738 725 881 725 c 0,43,44
 934 725 934 725 934 685 c 0,45,46
 934 638 934 638 870.5 558.5 c 128,-1,47
 807 479 807 479 722 417 c 128,-1,48
 637 355 637 355 582 355 c 0,49,50
 548 355 548 355 522 369 c 0,51,52
 521 370 521 370 518 370 c 128,-1,53
 515 370 515 370 515 339.5 c 128,-1,54
 515 309 515 309 516.5 278.5 c 128,-1,55
 518 248 518 248 525 196.5 c 128,-1,56
 532 145 532 145 545 108.5 c 128,-1,57
 558 72 558 72 584 44 c 128,-1,58
 610 16 610 16 643.5 16 c 128,-1,59
 677 16 677 16 748 48 c 0,60,61
 758 53 758 53 765.5 53 c 128,-1,62
 773 53 773 53 773 49 c 0,63,64
 773 40 773 40 758 33 c 0,65,66
 672 -12 672 -12 624 -12 c 128,-1,67
 576 -12 576 -12 544.5 22.5 c 128,-1,68
 513 57 513 57 501 115.5 c 128,-1,69
 489 174 489 174 485 228.5 c 128,-1,70
 481 283 481 283 481 345 c 128,-1,71
 481 407 481 407 478 427 c 1,0,1
489 499 m 1,72,73
 481 476 481 476 471 455 c 1,74,-1
 503 455 l 2,75,76
 508 455 508 455 509 446 c 128,-1,77
 510 437 510 437 511 424 c 128,-1,78
 512 411 512 411 518 402.5 c 128,-1,79
 524 394 524 394 541.5 384 c 128,-1,80
 559 374 559 374 582 374 c 0,81,82
 628 374 628 374 700.5 436.5 c 128,-1,83
 773 499 773 499 826 573.5 c 128,-1,84
 879 648 879 648 879 682 c 0,85,86
 879 700 879 700 861 700 c 0,87,88
 736 700 736 700 489 499 c 1,72,73
43 -41 m 0,89,90
 66 -41 66 -41 141 36 c 128,-1,91
 216 113 216 113 303 233 c 128,-1,92
 390 353 390 353 433 452 c 1,93,94
 275 316 275 316 156.5 171 c 128,-1,95
 38 26 38 26 38 -34 c 0,96,97
 38 -41 38 -41 43 -41 c 0,89,90
EndSplineSet
EndChar

StartChar: S
Encoding: 83 83 54
Width: 791
GlyphClass: 2
Flags: W
LayerCount: 2
Fore
SplineSet
325 99 m 1,0,1
 301 131 301 131 263 188 c 1,2,3
 0 214 0 214 0 298 c 0,4,5
 0 317 0 317 19.5 329 c 128,-1,6
 39 341 39 341 79 341 c 0,7,8
 179 341 179 341 278 214 c 1,9,10
 378 204 378 204 505 204 c 2,11,-1
 516 204 l 1,12,13
 644 281 644 281 754 359 c 1,14,15
 799 441 799 441 832 494.5 c 128,-1,16
 865 548 865 548 912 606 c 1,17,18
 1005 724 1005 724 1108 724 c 0,19,20
 1135 724 1135 724 1135 700 c 0,21,22
 1135 642 1135 642 1039 548 c 128,-1,23
 943 454 943 454 784 346 c 1,24,25
 736 254 736 254 712 212 c 1,26,27
 852 223 852 223 914 246 c 1,28,-1
 917 246 l 2,29,30
 921 246 921 246 921 240.5 c 128,-1,31
 921 235 921 235 914 225 c 1,32,33
 839 202 839 202 698 189 c 1,34,35
 644 96 644 96 593.5 44.5 c 128,-1,36
 543 -7 543 -7 492 -7 c 0,37,38
 410 -7 410 -7 337 84 c 1,39,40
 194 12 194 12 84 -26 c 0,41,42
 69 -31 69 -31 49.5 -31 c 128,-1,43
 30 -31 30 -31 30 -16 c 0,44,45
 30 -8 30 -8 38 -1.5 c 128,-1,46
 46 5 46 5 59 5 c 0,47,48
 139 5 139 5 325 99 c 1,0,1
516 179 m 1,49,50
 440 136 440 136 366 98 c 1,51,52
 433 15 433 15 488 15 c 0,53,54
 529 15 529 15 569.5 59 c 128,-1,55
 610 103 610 103 659 186 c 1,56,57
 598 181 598 181 516 179 c 1,49,50
1080 700 m 0,58,59
 1011 700 1011 700 941 608 c 1,60,61
 883 530 883 530 814 402 c 1,62,63
 940 495 940 495 1016 571.5 c 128,-1,64
 1092 648 1092 648 1092 690 c 0,65,66
 1092 700 1092 700 1080 700 c 0,58,59
48 302 m 0,67,68
 48 245 48 245 241 219 c 1,69,70
 163 323 163 323 84 323 c 0,71,72
 48 323 48 323 48 302 c 0,67,68
354 113 m 1,73,74
 416 146 416 146 473 179 c 1,75,-1
 469 179 l 2,76,77
 382 179 382 179 301 185 c 1,78,79
 339 132 339 132 354 113 c 1,73,74
727 308 m 1,80,81
 673 272 673 272 559 204 c 1,82,83
 636 206 636 206 672 209 c 1,84,85
 691 242 691 242 727 308 c 1,80,81
EndSplineSet
EndChar

StartChar: T
Encoding: 84 84 55
Width: 397
GlyphClass: 2
Flags: W
LayerCount: 2
Fore
SplineSet
268 594 m 1,0,-1
 46 605 l 2,1,2
 44 605 44 605 37 599 c 128,-1,3
 30 593 30 593 25 593 c 128,-1,4
 20 593 20 593 18 594 c 0,5,6
 -41 615 -41 615 -41 645 c 0,7,8
 -41 660 -41 660 -24 660 c 0,9,10
 -14 660 -14 660 105.5 644.5 c 128,-1,11
 225 629 225 629 363 629 c 128,-1,12
 501 629 501 629 628 644 c 1,13,14
 763 761 763 761 896 761 c 0,15,16
 951 761 951 761 951 735 c 0,17,18
 951 667 951 667 643 622 c 1,19,20
 541 520 541 520 396 289 c 0,21,22
 342 204 342 204 289 125 c 0,23,24
 172 -49 172 -49 98 -49 c 0,25,26
 71 -49 71 -49 71 -25.5 c 128,-1,27
 71 -2 71 -2 91 29 c 0,28,29
 110 59 110 59 121 59 c 0,30,31
 122 59 122 59 122 59 c 2,32,33
 135 59 135 59 135 44 c 1,34,-1
 131 25 l 1,35,36
 131 20 131 20 135 20 c 0,37,38
 188 20 188 20 315 236 c 0,39,40
 366 323 366 323 445 434 c 128,-1,41
 524 545 524 545 598 616 c 1,42,43
 425 594 425 594 268 594 c 1,0,-1
872 742 m 0,44,45
 776 742 776 742 673 650 c 1,46,47
 747 661 747 661 800.5 677 c 128,-1,48
 854 693 854 693 876 707 c 128,-1,49
 898 721 898 721 898 731.5 c 128,-1,50
 898 742 898 742 872 742 c 0,44,45
EndSplineSet
EndChar

StartChar: U
Encoding: 85 85 56
Width: 647
GlyphClass: 2
Flags: W
LayerCount: 2
Fore
SplineSet
288 441 m 1,0,-1
 274 445 l 2,1,2
 272 445 272 445 252 428.5 c 128,-1,3
 232 412 232 412 206 393 c 128,-1,4
 180 374 180 374 143 357.5 c 128,-1,5
 106 341 106 341 74 341 c 0,6,7
 1 341 1 341 1 394 c 0,8,9
 1 434 1 434 44 494.5 c 128,-1,10
 87 555 87 555 151.5 610 c 128,-1,11
 216 665 216 665 300.5 704.5 c 128,-1,12
 385 744 385 744 458 744 c 0,13,14
 556 744 556 744 556 677 c 0,15,16
 556 625 556 625 497.5 529.5 c 128,-1,17
 439 434 439 434 368 347 c 0,18,19
 181 116 181 116 181 63 c 0,20,21
 181 35 181 35 217 35 c 0,22,23
 291 35 291 35 438 153 c 1,24,25
 474 242 474 242 550.5 349.5 c 128,-1,26
 627 457 627 457 704.5 531 c 128,-1,27
 782 605 782 605 821 605 c 0,28,29
 840 605 840 605 840 587 c 0,30,31
 840 541 840 541 729 410.5 c 128,-1,32
 618 280 618 280 483 166 c 1,33,34
 458 104 458 104 458 69 c 0,35,36
 458 6 458 6 527 6 c 0,37,38
 552 6 552 6 588 25 c 128,-1,39
 624 44 624 44 632.5 52.5 c 128,-1,40
 641 61 641 61 644 61 c 128,-1,41
 647 61 647 61 647 57 c 0,42,43
 647 36 647 36 594.5 10.5 c 128,-1,44
 542 -15 542 -15 489 -15 c 0,45,46
 414 -15 414 -15 414 55 c 0,47,48
 414 84 414 84 426 120 c 1,49,50
 270 1 270 1 185 1 c 0,51,52
 160 1 160 1 144 17 c 128,-1,53
 128 33 128 33 128 58.5 c 128,-1,54
 128 84 128 84 167.5 144 c 128,-1,55
 207 204 207 204 263.5 275 c 128,-1,56
 320 346 320 346 376 419 c 0,57,58
 511 595 511 595 511 667 c 0,59,60
 511 721 511 721 434 721 c 0,61,62
 374 721 374 721 302.5 685 c 128,-1,63
 231 649 231 649 175.5 599.5 c 128,-1,64
 120 550 120 550 82.5 496.5 c 128,-1,65
 45 443 45 443 45 408 c 0,66,67
 45 367 45 367 98 367 c 0,68,69
 140 367 140 367 184 394.5 c 128,-1,70
 228 422 228 422 257.5 458 c 128,-1,71
 287 494 287 494 305.5 522.5 c 128,-1,72
 324 551 324 551 327 560 c 0,73,74
 330 572 330 572 347 572 c 0,75,76
 352 572 352 572 356.5 568 c 128,-1,77
 361 564 361 564 361 558.5 c 128,-1,78
 361 553 361 553 332.5 506.5 c 128,-1,79
 304 460 304 460 300.5 450.5 c 128,-1,80
 297 441 297 441 288 441 c 1,0,-1
792 573 m 0,81,82
 764 573 764 573 664 450 c 0,83,84
 563 325 563 325 503 209 c 1,85,86
 617 311 617 311 706.5 420 c 128,-1,87
 796 529 796 529 796 566 c 0,88,89
 796 573 796 573 792 573 c 0,81,82
EndSplineSet
EndChar

StartChar: V
Encoding: 86 86 57
Width: 383
GlyphClass: 2
Flags: W
LayerCount: 2
Fore
SplineSet
75 -14 m 0,0,1
 75 79 75 79 328 307 c 1,2,3
 436 512 436 512 436 599 c 0,4,5
 436 650 436 650 402 674 c 0,6,7
 367 698 367 698 332 702 c 0,8,9
 278 708 278 708 237.5 708 c 128,-1,10
 197 708 197 708 167 705.5 c 128,-1,11
 137 703 137 703 96 696 c 128,-1,12
 55 689 55 689 29.5 670.5 c 128,-1,13
 4 652 4 652 4 624.5 c 128,-1,14
 4 597 4 597 36 582 c 128,-1,15
 68 567 68 567 113.5 561.5 c 128,-1,16
 159 556 159 556 204 548.5 c 128,-1,17
 249 541 249 541 281 518.5 c 128,-1,18
 313 496 313 496 313 456 c 0,19,20
 313 447 313 447 306 447 c 1,21,-1
 300 453 l 1,22,23
 275 501 275 501 160 518 c 0,24,25
 115 524 115 524 71 532 c 0,26,27
 -31 551 -31 551 -31 617 c 0,28,29
 -31 648 -31 648 -6.5 670 c 128,-1,30
 18 692 18 692 60 704 c 0,31,32
 139 725 139 725 244 725 c 0,33,34
 373 725 373 725 432 695 c 0,35,36
 455 683 455 683 472 659.5 c 128,-1,37
 489 636 489 636 489 604 c 0,38,39
 489 533 489 533 416 384 c 1,40,41
 563 508 563 508 701 603 c 128,-1,42
 839 698 839 698 873 698 c 0,43,44
 879 698 879 698 884.5 690 c 128,-1,45
 890 682 890 682 890 673 c 128,-1,46
 890 664 890 664 876 655 c 0,47,48
 832 628 832 628 815 610.5 c 128,-1,49
 798 593 798 593 791 593 c 128,-1,50
 784 593 784 593 781.5 598 c 128,-1,51
 779 603 779 603 776 603 c 0,52,53
 747 603 747 603 632 524 c 128,-1,54
 517 445 517 445 394 341 c 1,55,56
 318 198 318 198 228.5 81 c 128,-1,57
 139 -36 139 -36 99 -36 c 0,58,59
 91 -36 91 -36 83 -29.5 c 128,-1,60
 75 -23 75 -23 75 -14 c 0,0,1
111 -5 m 0,61,62
 129 -5 129 -5 185 73.5 c 128,-1,63
 241 152 241 152 301 259 c 1,64,65
 109 78 109 78 109 -2 c 0,66,67
 109 -5 109 -5 111 -5 c 0,61,62
EndSplineSet
EndChar

StartChar: W
Encoding: 87 87 58
Width: 688
GlyphClass: 2
Flags: W
LayerCount: 2
Fore
SplineSet
454 -9 m 0,0,1
 442 -9 442 -9 442 5 c 0,2,3
 442 36 442 36 547.5 252.5 c 128,-1,4
 653 469 653 469 653 503 c 0,5,6
 653 517 653 517 638 517 c 0,7,8
 595 517 595 517 447 386 c 1,9,10
 379 232 379 232 260 82 c 128,-1,11
 141 -68 141 -68 79 -68 c 0,12,13
 58 -68 58 -68 58 -43 c 1,14,15
 75 30 75 30 169 140 c 128,-1,16
 263 250 263 250 389 359 c 1,17,18
 441 478 441 478 441 545 c 0,19,20
 441 719 441 719 196 719 c 0,21,22
 130 719 130 719 81 708 c 1,23,24
 -13 689 -13 689 -21 641 c 1,25,26
 -19 585 -19 585 90 560 c 0,27,28
 136 550 136 550 182 539 c 128,-1,29
 228 528 228 528 260 505 c 128,-1,30
 292 482 292 482 292 446 c 0,31,32
 292 438 292 438 286 424.5 c 128,-1,33
 280 411 280 411 271.5 411 c 128,-1,34
 263 411 263 411 263 421 c 0,35,36
 263 427 263 427 267.5 434 c 128,-1,37
 272 441 272 441 272 445 c 0,38,39
 272 473 272 473 154 502 c 0,40,41
 104 514 104 514 54.5 529.5 c 128,-1,42
 5 545 5 545 -29.5 572.5 c 128,-1,43
 -64 600 -64 600 -64 633 c 128,-1,44
 -64 666 -64 666 -31.5 687.5 c 128,-1,45
 1 709 1 709 50 719 c 0,46,47
 145 738 145 738 218 738 c 0,48,49
 342 738 342 738 416 688 c 128,-1,50
 490 638 490 638 490 540 c 0,51,52
 490 495 490 495 461 419 c 1,53,54
 622 548 622 548 667 548 c 0,55,56
 680 548 680 548 689.5 538 c 128,-1,57
 699 528 699 528 699 513.5 c 128,-1,58
 699 499 699 499 680 448 c 128,-1,59
 661 397 661 397 593.5 252 c 128,-1,60
 526 107 526 107 526 105 c 128,-1,61
 526 103 526 103 529 101 c 1,62,63
 535 101 535 101 548 119 c 0,64,65
 645 254 645 254 839 432.5 c 128,-1,66
 1033 611 1033 611 1175 673 c 0,67,68
 1204 685 1204 685 1219 685 c 128,-1,69
 1234 685 1234 685 1234 674.5 c 128,-1,70
 1234 664 1234 664 1221 656.5 c 128,-1,71
 1208 649 1208 649 1176.5 627.5 c 128,-1,72
 1145 606 1145 606 1135 597 c 128,-1,73
 1125 588 1125 588 1121 588 c 128,-1,74
 1117 588 1117 588 1116 594 c 128,-1,75
 1115 600 1115 600 1111.5 600 c 128,-1,76
 1108 600 1108 600 1100 597 c 0,77,78
 979 540 979 540 792 360 c 0,79,80
 595 169 595 169 514 50 c 0,81,82
 485 8 485 8 472.5 -0.5 c 128,-1,83
 460 -9 460 -9 454 -9 c 0,0,1
106 -32 m 0,84,85
 143 -32 143 -32 223.5 75.5 c 128,-1,86
 304 183 304 183 368 312 c 1,87,88
 257 205 257 205 178.5 109 c 128,-1,89
 100 13 100 13 100 -26 c 0,90,91
 100 -32 100 -32 106 -32 c 0,84,85
EndSplineSet
EndChar

StartChar: X
Encoding: 88 88 59
Width: 715
GlyphClass: 2
Flags: W
LayerCount: 2
Fore
SplineSet
460 740 m 0,0,1
 566 740 566 740 566 625 c 0,2,3
 566 554 566 554 509 371 c 1,4,5
 690 516 690 516 846.5 628.5 c 128,-1,6
 1003 741 1003 741 1027 741 c 0,7,8
 1031 741 1031 741 1039 734 c 128,-1,9
 1047 727 1047 727 1047 720.5 c 128,-1,10
 1047 714 1047 714 1006.5 674.5 c 128,-1,11
 966 635 966 635 956 635 c 0,12,13
 954 635 954 635 951.5 638.5 c 128,-1,14
 949 642 949 642 946 642 c 0,15,16
 919 642 919 642 787 547.5 c 128,-1,17
 655 453 655 453 492 320 c 1,18,19
 436 144 436 144 436 81 c 0,20,21
 436 -1 436 -1 507 -1 c 0,22,23
 549 -1 549 -1 588.5 21 c 128,-1,24
 628 43 628 43 681 96 c 2,25,-1
 691 106 l 1,26,27
 697 106 697 106 697 94.5 c 128,-1,28
 697 83 697 83 668 54.5 c 128,-1,29
 639 26 639 26 590.5 1.5 c 128,-1,30
 542 -23 542 -23 499 -23 c 0,31,32
 389 -23 389 -23 389 88 c 0,33,34
 389 153 389 153 425 264 c 1,35,36
 205 82 205 82 124 -8 c 0,37,38
 110 -23 110 -23 104.5 -24.5 c 128,-1,39
 99 -26 99 -26 92.5 -26 c 128,-1,40
 86 -26 86 -26 86 -21 c 0,41,42
 86 26 86 26 442 317 c 1,43,44
 470 390 470 390 495 473.5 c 128,-1,45
 520 557 520 557 524.5 583.5 c 128,-1,46
 529 610 529 610 529 633 c 0,47,48
 529 719 529 719 449 719 c 0,49,50
 377 719 377 719 301.5 680.5 c 128,-1,51
 226 642 226 642 172 588 c 128,-1,52
 118 534 118 534 83 477 c 128,-1,53
 48 420 48 420 48 381 c 0,54,55
 48 335 48 335 97 335 c 0,56,57
 167 335 167 335 248.5 408 c 128,-1,58
 330 481 330 481 373 549 c 0,59,60
 376 553 376 553 382 553 c 0,61,62
 395 553 395 553 395 541 c 0,63,64
 395 538 395 538 372 506 c 0,65,66
 320 435 320 435 318 418 c 0,67,68
 317 413 317 413 312 413 c 0,69,70
 303 413 303 413 301 422 c 0,71,72
 301 425 301 425 299 425 c 1,73,74
 286 412 286 412 253 388 c 128,-1,75
 220 364 220 364 194 348 c 0,76,77
 124 307 124 307 76 307 c 0,78,79
 0 307 0 307 0 366 c 0,80,81
 0 410 0 410 43 474 c 128,-1,82
 86 538 86 538 150.5 597 c 128,-1,83
 215 656 215 656 300 698 c 128,-1,84
 385 740 385 740 460 740 c 0,0,1
EndSplineSet
EndChar

StartChar: Y
Encoding: 89 89 60
Width: 709
GlyphClass: 2
Flags: W
LayerCount: 2
Fore
SplineSet
715 152 m 0,0,1
 724 152 724 152 724 140 c 0,2,3
 724 109 724 109 548 -5.5 c 128,-1,4
 372 -120 372 -120 256 -175 c 1,5,-1
 232 -208 l 1,6,7
 302 -235 302 -235 302 -295.5 c 128,-1,8
 302 -356 302 -356 242 -435 c 128,-1,9
 182 -514 182 -514 112 -566.5 c 128,-1,10
 42 -619 42 -619 2.5 -619 c 128,-1,11
 -37 -619 -37 -619 -37 -582 c 0,12,13
 -37 -523 -37 -523 172 -219 c 1,14,15
 169 -218 169 -218 162 -218 c 1,16,17
 101 -227 101 -227 99 -227 c 0,18,19
 82 -227 82 -227 82 -216.5 c 128,-1,20
 82 -206 82 -206 109 -203 c 1,21,22
 145 -195 145 -195 206 -169 c 1,23,24
 268 -80 268 -80 369 55 c 1,25,26
 244 -28 244 -28 192 -28 c 0,27,28
 171 -28 171 -28 160.5 -16.5 c 128,-1,29
 150 -5 150 -5 150 28.5 c 128,-1,30
 150 62 150 62 190 123.5 c 128,-1,31
 230 185 230 185 287.5 251.5 c 128,-1,32
 345 318 345 318 402.5 386.5 c 128,-1,33
 460 455 460 455 500 522.5 c 128,-1,34
 540 590 540 590 540 636 c 0,35,36
 540 695 540 695 456 695 c 0,37,38
 387 695 387 695 292.5 647 c 128,-1,39
 198 599 198 599 126 522.5 c 128,-1,40
 54 446 54 446 54 377 c 0,41,42
 54 330 54 330 109 330 c 0,43,44
 149 330 149 330 193 352.5 c 128,-1,45
 237 375 237 375 270 406 c 0,46,47
 339 470 339 470 357 505 c 0,48,49
 366 521 366 521 376.5 521 c 128,-1,50
 387 521 387 521 387 512 c 0,51,52
 387 492 387 492 339 442.5 c 128,-1,53
 291 393 291 393 218 348 c 128,-1,54
 145 303 145 303 97 303 c 128,-1,55
 49 303 49 303 32 326 c 128,-1,56
 15 349 15 349 15 381 c 0,57,58
 15 437 15 437 87.5 516.5 c 128,-1,59
 160 596 160 596 268.5 656 c 128,-1,60
 377 716 377 716 467 716 c 0,61,62
 580 716 580 716 580 617 c 0,63,64
 580 568 580 568 541.5 501 c 128,-1,65
 503 434 503 434 447.5 369 c 128,-1,66
 392 304 392 304 336 240 c 0,67,68
 204 89 204 89 204 21 c 0,69,70
 204 -1 204 -1 232 -1 c 0,71,72
 276 -1 276 -1 396 91 c 1,73,74
 553 297 553 297 677.5 433.5 c 128,-1,75
 802 570 802 570 842 570 c 0,76,77
 870 570 870 570 870 549 c 0,78,79
 870 503 870 503 754 381.5 c 128,-1,80
 638 260 638 260 491 144 c 1,81,82
 379 -2 379 -2 288 -130 c 1,83,84
 405 -71 405 -71 523.5 7 c 128,-1,85
 642 85 642 85 701 144 c 0,86,87
 709 152 709 152 715 152 c 0,0,1
214.5 -422 m 128,-1,89
 264 -351 264 -351 264 -301 c 128,-1,90
 264 -251 264 -251 216 -231 c 1,91,92
 7 -530 7 -530 7 -573 c 0,93,94
 7 -590 7 -590 20 -590 c 0,95,96
 48 -590 48 -590 106.5 -541.5 c 128,-1,88
 165 -493 165 -493 214.5 -422 c 128,-1,89
824 540 m 0,97,98
 797 540 797 540 549 219 c 1,99,100
 662 321 662 321 747 414.5 c 128,-1,101
 832 508 832 508 832 533 c 0,102,103
 832 540 832 540 824 540 c 0,97,98
EndSplineSet
EndChar

StartChar: Z
Encoding: 90 90 61
Width: 980
GlyphClass: 2
Flags: W
LayerCount: 2
Fore
SplineSet
722 419 m 1,0,-1
 724 438 l 1,1,2
 724 468 724 468 691 484.5 c 128,-1,3
 658 501 658 501 608 505.5 c 128,-1,4
 558 510 558 510 500.5 516.5 c 128,-1,5
 443 523 443 523 393 530.5 c 128,-1,6
 343 538 343 538 310 561.5 c 128,-1,7
 277 585 277 585 277 623 c 0,8,9
 277 686 277 686 358 719 c 128,-1,10
 439 752 439 752 554 752 c 128,-1,11
 669 752 669 752 769 729 c 128,-1,12
 869 706 869 706 939 657.5 c 128,-1,13
 1009 609 1009 609 1009 549 c 128,-1,14
 1009 489 1009 489 924 406 c 0,15,16
 776 260 776 260 464 92 c 1,17,18
 481 85 481 85 539 60 c 1,19,20
 669 13 669 13 704 11 c 1,21,22
 758 11 758 11 787.5 14 c 128,-1,23
 817 17 817 17 858.5 33.5 c 128,-1,24
 900 50 900 50 939 83 c 0,25,26
 946 88 946 88 954.5 88 c 128,-1,27
 963 88 963 88 963 81 c 128,-1,28
 963 74 963 74 949 61 c 128,-1,29
 935 48 935 48 907 33 c 128,-1,30
 879 18 879 18 844 5 c 0,31,32
 761 -26 761 -26 666 -26 c 0,33,34
 611 -26 611 -26 520.5 16.5 c 128,-1,35
 430 59 430 59 412 65 c 1,36,37
 281 -2 281 -2 175 -45 c 128,-1,38
 69 -88 69 -88 35 -88 c 128,-1,39
 1 -88 1 -88 1 -71 c 0,40,41
 1 -52 1 -52 35.5 -20 c 128,-1,42
 70 12 70 12 121 42.5 c 128,-1,43
 172 73 172 73 238 95.5 c 128,-1,44
 304 118 304 118 346 118 c 128,-1,45
 388 118 388 118 427 105 c 1,46,47
 561 184 561 184 673.5 264 c 128,-1,48
 786 344 786 344 868.5 430 c 128,-1,49
 951 516 951 516 951 568.5 c 128,-1,50
 951 621 951 621 892.5 659 c 128,-1,51
 834 697 834 697 749.5 715.5 c 128,-1,52
 665 734 665 734 565.5 734 c 128,-1,53
 466 734 466 734 393 705.5 c 128,-1,54
 320 677 320 677 320 623 c 0,55,56
 320 599 320 599 352.5 584 c 128,-1,57
 385 569 385 569 433 563.5 c 128,-1,58
 481 558 481 558 538 551 c 128,-1,59
 595 544 595 544 643 536 c 128,-1,60
 691 528 691 528 723.5 508.5 c 128,-1,61
 756 489 756 489 756 459 c 0,62,63
 756 409 756 409 730 409 c 0,64,65
 722 409 722 409 722 419 c 1,0,-1
311 82 m 0,66,67
 247 82 247 82 184.5 54 c 128,-1,68
 122 26 122 26 88 -6 c 128,-1,69
 54 -38 54 -38 54 -55 c 0,70,71
 54 -64 54 -64 65 -64 c 0,72,73
 93 -64 93 -64 179 -25.5 c 128,-1,74
 265 13 265 13 375 75 c 1,75,76
 340 82 340 82 311 82 c 0,66,67
EndSplineSet
EndChar

StartChar: bracketleft
Encoding: 91 91 62
Width: 408
GlyphClass: 2
Flags: W
LayerCount: 2
Fore
SplineSet
573 801 m 1,0,1
 571 777 571 777 544 777 c 2,2,-1
 327 777 l 1,3,4
 291 649 291 649 204 324 c 128,-1,5
 117 -1 117 -1 75 -150 c 1,6,-1
 297 -150 l 2,7,8
 312 -150 312 -150 313 -159 c 0,9,10
 313 -166 313 -166 306 -174 c 128,-1,11
 299 -182 299 -182 285 -182 c 2,12,-1
 50 -182 l 2,13,14
 36 -182 36 -182 35 -170 c 1,15,-1
 304 790 l 2,16,17
 305 797 305 797 310.5 803.5 c 128,-1,18
 316 810 316 810 319 810 c 2,19,-1
 556 810 l 2,20,21
 572 810 572 810 573 801 c 1,0,1
EndSplineSet
EndChar

StartChar: backslash
Encoding: 92 92 63
Width: 339
GlyphClass: 2
Flags: W
LayerCount: 2
Fore
SplineSet
189 906 m 1,0,1
 196 904 196 904 199 891 c 0,2,3
 232 681 232 681 232 297 c 0,4,5
 232 43 232 43 213 -117 c 1,6,7
 204 -134 204 -134 193 -134 c 128,-1,8
 182 -134 182 -134 178 -126 c 1,9,10
 201 26 201 26 201 383 c 128,-1,11
 201 740 201 740 178 881 c 1,12,13
 178 906 178 906 189 906 c 1,0,1
EndSplineSet
EndChar

StartChar: bracketright
Encoding: 93 93 64
Width: 408
GlyphClass: 2
Flags: W
LayerCount: 2
Fore
SplineSet
35 -173 m 1,0,1
 37 -149 37 -149 64 -149 c 2,2,-1
 281 -149 l 1,3,4
 317 -21 317 -21 404 304 c 128,-1,5
 491 629 491 629 533 778 c 1,6,-1
 311 778 l 2,7,8
 296 778 296 778 295 787 c 0,9,10
 295 794 295 794 302 802 c 128,-1,11
 309 810 309 810 323 810 c 2,12,-1
 558 810 l 2,13,14
 572 810 572 810 573 798 c 1,15,-1
 304 -162 l 2,16,17
 303 -169 303 -169 297.5 -175.5 c 128,-1,18
 292 -182 292 -182 289 -182 c 2,19,-1
 52 -182 l 2,20,21
 36 -182 36 -182 35 -173 c 1,0,1
EndSplineSet
EndChar

StartChar: asciicircum
Encoding: 94 94 65
Width: 328
GlyphClass: 2
Flags: W
LayerCount: 2
Fore
SplineSet
184 125 m 128,-1,1
 213 145 213 145 220.5 155 c 128,-1,2
 228 165 228 165 238.5 165 c 128,-1,3
 249 165 249 165 258 156 c 0,4,5
 261 152 261 152 264.5 128.5 c 128,-1,6
 268 105 268 105 282 84 c 0,7,8
 284 80 284 80 284 79 c 0,9,10
 284 74 284 74 278 74 c 128,-1,11
 272 74 272 74 263 82.5 c 128,-1,12
 254 91 254 91 245 110 c 128,-1,13
 236 129 236 129 236 130 c 1,14,15
 212 108 212 108 125 78 c 1,16,17
 119 78 119 78 119 85.5 c 128,-1,18
 119 93 119 93 137 99 c 128,-1,0
 155 105 155 105 184 125 c 128,-1,1
EndSplineSet
EndChar

StartChar: underscore
Encoding: 95 95 66
Width: 466
GlyphClass: 2
Flags: W
LayerCount: 2
Fore
SplineSet
383 -28 m 0,0,1
 383 -33 383 -33 374 -33 c 2,2,-1
 92 -31 l 2,3,4
 77 -31 77 -31 77 -10 c 0,5,6
 77 -4 77 -4 83 -2 c 128,-1,7
 89 0 89 0 168.5 0 c 128,-1,8
 248 0 248 0 368 -6 c 0,9,10
 383 -7 383 -7 383 -28 c 0,0,1
EndSplineSet
EndChar

StartChar: grave
Encoding: 96 96 67
Width: 328
GlyphClass: 2
Flags: W
LayerCount: 2
Fore
SplineSet
103 316 m 0,0,1
 103 329 103 329 114.5 329 c 128,-1,2
 126 329 126 329 135 318 c 128,-1,3
 144 307 144 307 169.5 288 c 128,-1,4
 195 269 195 269 220 260 c 0,5,6
 230 257 230 257 230 249.5 c 128,-1,7
 230 242 230 242 224 242 c 1,8,9
 140 272 140 272 114 298 c 0,10,11
 103 309 103 309 103 316 c 0,0,1
EndSplineSet
EndChar

StartChar: a
Encoding: 97 97 68
Width: 300
GlyphClass: 2
Flags: W
LayerCount: 2
Fore
SplineSet
215 120 m 0,0,1
 209 120 209 120 209 124.5 c 128,-1,2
 209 129 209 129 216 135 c 0,3,4
 249 162 249 162 249 184 c 0,5,6
 249 198 249 198 224 200 c 1,7,8
 179 199 179 199 116.5 135 c 128,-1,9
 54 71 54 71 54 39 c 0,10,11
 54 28 54 28 66.5 28 c 128,-1,12
 79 28 79 28 100 45 c 1,13,14
 119 57 119 57 171 105 c 0,15,16
 183 117 183 117 194 117 c 0,17,18
 208 117 208 117 208 104 c 0,19,20
 208 99 208 99 205 96 c 128,-1,21
 202 93 202 93 194 83.5 c 128,-1,22
 186 74 186 74 180 66 c 0,23,24
 162 40 162 40 162 32 c 0,25,26
 162 12 162 12 178 12 c 0,27,28
 199 12 199 12 257 50.5 c 128,-1,29
 315 89 315 89 363 128 c 2,30,-1
 411 166 l 2,31,32
 418 171 418 171 424 171 c 128,-1,33
 430 171 430 171 430 164 c 2,34,-1
 430 162 l 1,35,36
 353 97 353 97 267.5 40 c 128,-1,37
 182 -17 182 -17 155 -17 c 0,38,39
 123 -17 123 -17 123 17 c 0,40,41
 123 25 123 25 126 32 c 128,-1,42
 129 39 129 39 129 42 c 128,-1,43
 129 45 129 45 127 46 c 1,44,45
 124 46 124 46 88.5 19 c 128,-1,46
 53 -8 53 -8 26.5 -8 c 128,-1,47
 0 -8 0 -8 0 20 c 128,-1,48
 0 48 0 48 37.5 95.5 c 128,-1,49
 75 143 75 143 138 182 c 128,-1,50
 201 221 201 221 261 221 c 0,51,52
 275 221 275 221 284.5 214 c 128,-1,53
 294 207 294 207 294 192.5 c 128,-1,54
 294 178 294 178 265 149 c 128,-1,55
 236 120 236 120 215 120 c 0,0,1
EndSplineSet
EndChar

StartChar: b
Encoding: 98 98 69
Width: 232
GlyphClass: 2
Flags: W
LayerCount: 2
Fore
SplineSet
340 162 m 1,0,-1
 363 162 l 1,1,2
 270 78 270 78 179 66 c 1,3,4
 157 34 157 34 127.5 11 c 128,-1,5
 98 -12 98 -12 78 -12 c 0,6,7
 54 -12 54 -12 54 16 c 128,-1,8
 54 44 54 44 79 96 c 1,9,10
 35 135 35 135 35 183 c 0,11,12
 35 209 35 209 53 225 c 128,-1,13
 71 241 71 241 104 241 c 128,-1,14
 137 241 137 241 157 231 c 1,15,16
 255 383 255 383 382 552 c 2,17,-1
 425 609 l 1,18,19
 435 620 435 620 445 620 c 0,20,21
 460 620 460 620 462 605 c 1,22,-1
 462 598 l 2,23,24
 462 596 462 596 457 589 c 0,25,26
 260 330 260 330 182 215 c 1,27,28
 208 189 208 189 208 154 c 128,-1,29
 208 119 208 119 191 85 c 1,30,31
 259 93 259 93 340 162 c 1,0,-1
65 181 m 0,32,33
 65 151 65 151 92 122 c 1,34,35
 111 157 111 157 147 214 c 1,36,37
 133 222 133 222 116 222 c 0,38,39
 65 222 65 222 65 181 c 0,32,33
115 103 m 1,40,41
 139 88 139 88 164 85 c 1,42,43
 182 117 182 117 182 144 c 128,-1,44
 182 171 182 171 168 193 c 1,45,46
 134 143 134 143 115 103 c 1,40,41
111 32 m 0,47,48
 128 32 128 32 152 65 c 1,49,50
 128 65 128 65 104 78 c 1,51,52
 99 61 99 61 99 53 c 0,53,54
 99 32 99 32 111 32 c 0,47,48
EndSplineSet
EndChar

StartChar: c
Encoding: 99 99 70
Width: 244
GlyphClass: 2
Flags: W
LayerCount: 2
Fore
SplineSet
354 166 m 1,0,1
 362 171 362 171 367.5 171 c 128,-1,2
 373 171 373 171 373 164 c 2,3,-1
 373 162 l 1,4,5
 294 92 294 92 210 39 c 128,-1,6
 126 -14 126 -14 70 -14 c 0,7,8
 26 -14 26 -14 26 38.5 c 128,-1,9
 26 91 26 91 89.5 153 c 128,-1,10
 153 215 153 215 227 215 c 1,11,12
 249 213 249 213 254.5 208 c 128,-1,13
 260 203 260 203 260 194 c 128,-1,14
 260 185 260 185 241.5 161.5 c 128,-1,15
 223 138 223 138 208 138 c 1,16,17
 191 141 191 141 191 150 c 0,18,19
 191 154 191 154 200 163 c 0,20,21
 217 178 217 178 217 185 c 128,-1,22
 217 192 217 192 206 192 c 0,23,24
 171 191 171 191 118 134.5 c 128,-1,25
 65 78 65 78 65 41 c 0,26,27
 65 13 65 13 101.5 13 c 128,-1,28
 138 13 138 13 180 39 c 0,29,30
 254 84 254 84 329 146 c 1,31,-1
 354 166 l 1,0,1
EndSplineSet
EndChar

StartChar: d
Encoding: 100 100 71
Width: 276
GlyphClass: 2
Flags: W
LayerCount: 2
Fore
SplineSet
184 143 m 2,0,-1
 216 192 l 1,1,2
 213 193 213 193 210 193 c 0,3,4
 168 193 168 193 100 129 c 128,-1,5
 32 65 32 65 32 39 c 0,6,7
 32 32 32 32 40 32 c 0,8,9
 65 32 65 32 116 74.5 c 128,-1,10
 167 117 167 117 184 143 c 2,0,-1
407 162 m 1,11,12
 199 -6 199 -6 155 -6 c 0,13,14
 138 -6 138 -6 138 14 c 128,-1,15
 138 34 138 34 153 81 c 0,16,17
 153 82 153 82 151 82 c 1,18,19
 36 -13 36 -13 -2 -13 c 0,20,21
 -28 -13 -28 -13 -28 6 c 0,22,23
 -28 48 -28 48 62.5 129 c 128,-1,24
 153 210 153 210 207 210 c 0,25,26
 214 210 214 210 222 200 c 1,27,28
 245 234 245 234 480 569 c 1,29,30
 505 600 505 600 520.5 600 c 128,-1,31
 536 600 536 600 536 590 c 0,32,33
 536 565 536 565 364 354 c 0,34,35
 300 274 300 274 246.5 187.5 c 128,-1,36
 193 101 193 101 193 56 c 0,37,38
 193 37 193 37 204 37 c 0,39,40
 217 37 217 37 250 60 c 0,41,42
 318 109 318 109 369 150 c 1,43,-1
 388 166 l 2,44,45
 395 171 395 171 401 171 c 128,-1,46
 407 171 407 171 407 164 c 2,47,-1
 407 162 l 1,11,12
EndSplineSet
EndChar

StartChar: e
Encoding: 101 101 72
Width: 258
GlyphClass: 2
Flags: W
LayerCount: 2
Fore
SplineSet
369 166 m 2,0,1
 376 171 376 171 382 171 c 128,-1,2
 388 171 388 171 388 164 c 2,3,-1
 388 162 l 1,4,5
 284 76 284 76 215 33 c 128,-1,6
 146 -10 146 -10 90 -10 c 0,7,8
 45 -10 45 -10 45 34 c 0,9,10
 45 99 45 99 111 167.5 c 128,-1,11
 177 236 177 236 222 236 c 0,12,13
 247 236 247 236 247 208 c 1,14,15
 242 153 242 153 89 60 c 1,16,-1
 89 50 l 2,17,18
 89 17 89 17 123.5 17 c 128,-1,19
 158 17 158 17 198 40 c 0,20,21
 276 86 276 86 344 145 c 1,22,-1
 369 166 l 2,0,1
196 205 m 0,23,24
 174 205 174 205 139.5 168 c 128,-1,25
 105 131 105 131 93 84 c 1,26,27
 141 113 141 113 174 145.5 c 128,-1,28
 207 178 207 178 207 191.5 c 128,-1,29
 207 205 207 205 196 205 c 0,23,24
EndSplineSet
EndChar

StartChar: f
Encoding: 102 102 73
Width: 263
GlyphClass: 2
Flags: W
LayerCount: 2
Fore
SplineSet
-24.5 15.5 m 128,-1,1
 3 -3 3 -3 28.5 -3 c 128,-1,2
 54 -3 54 -3 72 0 c 1,3,-1
 93 28 l 1,4,5
 64 80 64 80 0 80 c 0,6,7
 -22 80 -22 80 -37 72.5 c 128,-1,8
 -52 65 -52 65 -52 49.5 c 128,-1,0
 -52 34 -52 34 -24.5 15.5 c 128,-1,1
108 -37 m 0,9,10
 108 -29 108 -29 106 -15 c 1,11,12
 -141 -366 -141 -366 -141 -400 c 0,13,14
 -141 -409 -141 -409 -129 -409 c 0,15,16
 -84 -409 -84 -409 -27.5 -346.5 c 128,-1,17
 29 -284 29 -284 68.5 -195.5 c 128,-1,18
 108 -107 108 -107 108 -37 c 0,9,10
393 162 m 1,19,20
 239 34 239 34 142 -2 c 1,21,22
 145 -16 145 -16 145 -31 c 0,23,24
 145 -89 145 -89 113.5 -162.5 c 128,-1,25
 82 -236 82 -236 36 -298 c 128,-1,26
 -10 -360 -10 -360 -64.5 -402.5 c 128,-1,27
 -119 -445 -119 -445 -162 -445 c 0,28,29
 -191 -445 -191 -445 -191 -422 c 0,30,31
 -191 -377 -191 -377 55 -25 c 1,32,33
 40 -26 40 -26 34 -26 c 0,34,35
 -17 -26 -17 -26 -47 -5 c 128,-1,36
 -77 16 -77 16 -77 41.5 c 128,-1,37
 -77 67 -77 67 -52.5 82 c 128,-1,38
 -28 97 -28 97 8 97 c 0,39,40
 73 97 73 97 112 55 c 1,41,-1
 339 366 l 1,42,43
 339 368 339 368 336 368 c 1,44,45
 249 276 249 276 183.5 213 c 128,-1,46
 118 150 118 150 96 133 c 2,47,-1
 74 116 l 1,48,-1
 69 131 l 1,49,50
 145 193 145 193 210 259 c 128,-1,51
 275 325 275 325 302 360 c 2,52,-1
 329 395 l 1,53,54
 398 482 398 482 414 500 c 0,55,56
 439 527 439 527 453 527 c 128,-1,57
 467 527 467 527 467 510 c 0,58,59
 467 495 467 495 408 410 c 128,-1,60
 349 325 349 325 316 278 c 0,61,62
 213 133 213 133 188 100 c 1,63,-1
 134 24 l 1,64,-1
 137 16 l 1,65,66
 212 43 212 43 301 109 c 1,67,-1
 374 166 l 2,68,69
 382 171 382 171 387.5 171 c 128,-1,70
 393 171 393 171 393 164 c 2,71,-1
 393 162 l 1,19,20
EndSplineSet
EndChar

StartChar: g
Encoding: 103 103 74
Width: 297
GlyphClass: 2
Flags: W
LayerCount: 2
Fore
SplineSet
409 166 m 2,0,1
 416 171 416 171 422 171 c 128,-1,2
 428 171 428 171 428 164 c 2,3,-1
 428 162 l 1,4,5
 331 82 331 82 276 46 c 2,6,-1
 76 -84 l 1,7,-1
 14 -171 l 1,8,9
 -130 -368 -130 -368 -130 -383 c 1,10,11
 -146 -418 -146 -418 -161 -418 c 0,12,13
 -180 -418 -180 -418 -180 -393 c 128,-1,14
 -180 -368 -180 -368 -155.5 -326 c 128,-1,15
 -131 -284 -131 -284 -107 -258 c 2,16,-1
 -12 -158 l 1,17,18
 0 -139 0 -139 37 -88 c 128,-1,19
 74 -37 74 -37 86 -20 c 2,20,-1
 129 44 l 1,21,-1
 131 48 l 2,22,23
 131 50 131 50 129 50 c 1,24,25
 70 1 70 1 31 1 c 128,-1,26
 -8 1 -8 1 -8 23.5 c 128,-1,27
 -8 46 -8 46 22 83 c 128,-1,28
 52 120 52 120 94.5 155 c 128,-1,29
 137 190 137 190 188.5 215.5 c 128,-1,30
 240 241 240 241 279.5 241 c 128,-1,31
 319 241 319 241 319 213 c 0,32,33
 319 193 319 193 281.5 165 c 128,-1,34
 244 137 244 137 235.5 137 c 128,-1,35
 227 137 227 137 227 141 c 0,36,37
 227 147 227 147 235 152 c 0,38,39
 269 176 269 176 269 197.5 c 128,-1,40
 269 219 269 219 251 219 c 0,41,42
 207 219 207 219 128.5 144.5 c 128,-1,43
 50 70 50 70 50 39 c 0,44,45
 50 30 50 30 64.5 30 c 128,-1,46
 79 30 79 30 114 53.5 c 128,-1,47
 149 77 149 77 167 99 c 2,48,-1
 194 133 l 2,49,50
 199 140 199 140 207 140 c 128,-1,51
 215 140 215 140 221 135 c 128,-1,52
 227 130 227 130 227 125 c 1,53,-1
 106 -43 l 1,54,-1
 254 50 l 1,55,56
 320 90 320 90 386 146 c 1,57,-1
 409 166 l 2,0,1
EndSplineSet
EndChar

StartChar: h
Encoding: 104 104 75
Width: 323
GlyphClass: 2
Flags: W
LayerCount: 2
Fore
SplineSet
436 167 m 2,0,1
 443 172 443 172 449 172 c 128,-1,2
 455 172 455 172 455 166 c 2,3,-1
 455 163 l 1,4,5
 376 97 376 97 300 45 c 1,6,7
 224 -13 224 -13 194.5 -13 c 128,-1,8
 165 -13 165 -13 165 11 c 0,9,10
 165 37 165 37 203 99 c 128,-1,11
 241 161 241 161 241 165.5 c 128,-1,12
 241 170 241 170 237 170 c 0,13,14
 224 170 224 170 157.5 112.5 c 128,-1,15
 91 55 91 55 41 6 c 1,16,17
 22 -11 22 -11 14.5 -11 c 128,-1,18
 7 -11 7 -11 7 0 c 128,-1,19
 7 11 7 11 20 28 c 1,20,-1
 369 560 l 2,21,22
 380 577 380 577 398.5 577 c 128,-1,23
 417 577 417 577 417 565 c 0,24,25
 417 558 417 558 411.5 550 c 128,-1,26
 406 542 406 542 344 454.5 c 128,-1,27
 282 367 282 367 272.5 351 c 128,-1,28
 263 335 263 335 185.5 219 c 128,-1,29
 108 103 108 103 103.5 96.5 c 128,-1,30
 99 90 99 90 99 86 c 128,-1,31
 99 82 99 82 102.5 82 c 128,-1,32
 106 82 106 82 107 83 c 0,33,34
 139 115 139 115 194.5 157.5 c 128,-1,35
 250 200 250 200 271 200 c 0,36,37
 279 200 279 200 285 194.5 c 128,-1,38
 291 189 291 189 291 176.5 c 128,-1,39
 291 164 291 164 252 108.5 c 128,-1,40
 213 53 213 53 213 36.5 c 128,-1,41
 213 20 213 20 223.5 20 c 128,-1,42
 234 20 234 20 276 48 c 0,43,44
 351 98 351 98 414 149 c 2,45,-1
 436 167 l 2,0,1
EndSplineSet
EndChar

StartChar: i
Encoding: 105 105 76
Width: 188
GlyphClass: 2
Flags: W
LayerCount: 2
Fore
SplineSet
234.5 296 m 128,-1,1
 240 290 240 290 240 279 c 128,-1,2
 240 268 240 268 225 251 c 128,-1,3
 210 234 210 234 199 234 c 128,-1,4
 188 234 188 234 183 240.5 c 128,-1,5
 178 247 178 247 178 255.5 c 128,-1,6
 178 264 178 264 194 283 c 128,-1,7
 210 302 210 302 219.5 302 c 128,-1,0
 229 302 229 302 234.5 296 c 128,-1,1
302 167 m 1,8,9
 310 172 310 172 314.5 172 c 128,-1,10
 319 172 319 172 319 166 c 2,11,-1
 319 163 l 1,12,13
 323 163 323 163 265.5 119 c 128,-1,14
 208 75 208 75 142.5 31 c 128,-1,15
 77 -13 77 -13 60 -13 c 0,16,17
 31 -13 31 -13 31 11 c 0,18,19
 31 40 31 40 81 120.5 c 128,-1,20
 131 201 131 201 154 201 c 0,21,22
 171 201 171 201 171 188 c 128,-1,23
 171 175 171 175 125 117 c 128,-1,24
 79 59 79 59 79 34 c 0,25,26
 79 20 79 20 89.5 20 c 128,-1,27
 100 20 100 20 142 48 c 0,28,29
 217 98 217 98 280 149 c 2,30,-1
 302 167 l 1,8,9
EndSplineSet
EndChar

StartChar: j
Encoding: 106 106 77
Width: 186
GlyphClass: 2
Flags: W
LayerCount: 2
Fore
SplineSet
-82 -111 m 1,0,1
 -71 -116 -71 -116 -63 -121 c 1,2,3
 -57 -109 -57 -109 -49 -101 c 1,4,5
 -70 -107 -70 -107 -81 -109 c 0,6,7
 -81 -110 -81 -110 -82 -111 c 1,0,1
234.5 296 m 128,-1,9
 240 290 240 290 240 279 c 128,-1,10
 240 268 240 268 225 251 c 128,-1,11
 210 234 210 234 199 234 c 128,-1,12
 188 234 188 234 183 240.5 c 128,-1,13
 178 247 178 247 178 255.5 c 128,-1,14
 178 264 178 264 194 283 c 128,-1,15
 210 302 210 302 219.5 302 c 128,-1,8
 229 302 229 302 234.5 296 c 128,-1,9
-54 -195 m 0,16,17
 -54 -181 -54 -181 -57 -169 c 1,18,19
 -214 -382 -214 -382 -214 -402 c 0,20,21
 -214 -411 -214 -411 -206 -411 c 0,22,23
 -186 -411 -186 -411 -149.5 -376.5 c 128,-1,24
 -113 -342 -113 -342 -83.5 -289.5 c 128,-1,25
 -54 -237 -54 -237 -54 -195 c 0,16,17
-76 -139 m 1,26,27
 -101 -114 -101 -114 -143 -114 c 1,28,29
 -156 -112 -156 -112 -156 -103 c 1,30,31
 -155 -95 -155 -95 -144 -95 c 0,32,33
 -142 -95 -142 -95 -112 -98 c 1,34,35
 -86 -98 -86 -98 -35 -81 c 1,36,-1
 132 152 l 2,37,38
 134 155 134 155 134 158.5 c 128,-1,39
 134 162 134 162 131 162 c 128,-1,40
 128 162 128 162 125 159 c 2,41,-1
 73 116 l 1,42,-1
 69 131 l 1,43,-1
 120 174 l 1,44,45
 156 210 156 210 170 210 c 0,46,47
 175 210 175 210 180 205.5 c 128,-1,48
 185 201 185 201 185 193 c 0,49,50
 185 164 185 164 28 -52 c 1,51,52
 68 -30 68 -30 85 -7 c 0,53,54
 89 -2 89 -2 95 -2 c 128,-1,55
 101 -2 101 -2 101 -9 c 0,56,57
 101 -42 101 -42 8 -80 c 1,58,-1
 -38 -143 l 1,59,60
 -20 -165 -20 -165 -20 -206 c 128,-1,61
 -20 -247 -20 -247 -61 -306.5 c 128,-1,62
 -102 -366 -102 -366 -153 -405 c 128,-1,63
 -204 -444 -204 -444 -233 -444 c 128,-1,64
 -262 -444 -262 -444 -262 -418 c 0,65,66
 -262 -399 -262 -399 -76 -139 c 1,26,27
EndSplineSet
EndChar

StartChar: k
Encoding: 107 107 78
Width: 318
GlyphClass: 2
Flags: W
LayerCount: 2
Fore
SplineSet
335 281 m 0,0,1
 335 290 335 290 322.5 290 c 128,-1,2
 310 290 310 290 273 263.5 c 128,-1,3
 236 237 236 237 206 210 c 2,4,-1
 177 184 l 1,5,6
 177 182 177 182 183 182 c 0,7,8
 193 182 193 182 196 166.5 c 128,-1,9
 199 151 199 151 207 151 c 0,10,11
 233 151 233 151 284 204 c 128,-1,12
 335 257 335 257 335 281 c 0,0,1
430 166 m 2,13,14
 437 171 437 171 443 171 c 128,-1,15
 449 171 449 171 449 164 c 2,16,-1
 449 162 l 1,17,18
 370 92 370 92 291 42 c 1,19,20
 232 -2 232 -2 195.5 -2 c 128,-1,21
 159 -2 159 -2 144.5 25 c 128,-1,22
 130 52 130 52 130 81.5 c 128,-1,23
 130 111 130 111 136 122 c 128,-1,24
 142 133 142 133 142 135.5 c 128,-1,25
 142 138 142 138 136 138 c 0,26,27
 127 138 127 138 74 69 c 128,-1,28
 21 0 21 0 15 0 c 128,-1,29
 9 0 9 0 3.5 3.5 c 128,-1,30
 -2 7 -2 7 -2 13 c 128,-1,31
 -2 19 -2 19 12.5 42 c 128,-1,32
 27 65 27 65 107 177 c 128,-1,33
 187 289 187 289 190 294.5 c 128,-1,34
 193 300 193 300 193 302 c 128,-1,35
 193 304 193 304 189.5 304 c 128,-1,36
 186 304 186 304 184 302.5 c 128,-1,37
 182 301 182 301 154 282 c 0,38,39
 91 239 91 239 67 239 c 128,-1,40
 43 239 43 239 43 258 c 0,41,42
 43 274 43 274 53.5 286 c 128,-1,43
 64 298 64 298 77 298 c 0,44,45
 83 298 83 298 87 284.5 c 128,-1,46
 91 271 91 271 100 271 c 128,-1,47
 109 271 109 271 122 278 c 128,-1,48
 135 285 135 285 148.5 295 c 128,-1,49
 162 305 162 305 179.5 319.5 c 128,-1,50
 197 334 197 334 208 344 c 0,51,52
 241 374 241 374 248 381 c 1,53,54
 267 413 267 413 392 564 c 0,55,56
 407 583 407 583 421.5 583 c 128,-1,57
 436 583 436 583 436 576 c 128,-1,58
 436 569 436 569 431 562.5 c 128,-1,59
 426 556 426 556 356 465.5 c 128,-1,60
 286 375 286 375 215 280.5 c 128,-1,61
 144 186 144 186 144 180 c 128,-1,62
 144 174 144 174 149 174 c 1,63,64
 164 190 164 190 187.5 213.5 c 128,-1,65
 211 237 211 237 268 276.5 c 128,-1,66
 325 316 325 316 358.5 316 c 128,-1,67
 392 316 392 316 392 298 c 0,68,69
 392 265 392 265 315 200 c 128,-1,70
 238 135 238 135 208 135 c 1,71,-1
 189 139 l 1,72,73
 180 139 180 139 174 123.5 c 128,-1,74
 168 108 168 108 168 88 c 0,75,76
 168 27 168 27 214 27 c 0,77,78
 238 27 238 27 268 46 c 0,79,80
 332 85 332 85 405 146 c 1,81,-1
 430 166 l 2,13,14
EndSplineSet
EndChar

StartChar: l
Encoding: 108 108 79
Width: 242
GlyphClass: 2
Flags: W
LayerCount: 2
Fore
SplineSet
353 166 m 2,0,1
 360 171 360 171 366 171 c 128,-1,2
 372 171 372 171 372 164 c 2,3,-1
 372 162 l 1,4,5
 268 76 268 76 214 42 c 1,6,7
 144 -11 144 -11 96 -11 c 0,8,9
 54 -11 54 -11 54 39 c 0,10,11
 54 106 54 106 140.5 237.5 c 128,-1,12
 227 369 227 369 335 474 c 128,-1,13
 443 579 443 579 498 579 c 0,14,15
 523 579 523 579 523 557 c 0,16,17
 523 502 523 502 391.5 375.5 c 128,-1,18
 260 249 260 249 133 160 c 1,19,20
 96 89 96 89 96 52 c 128,-1,21
 96 15 96 15 122 15 c 128,-1,22
 148 15 148 15 190 45 c 1,23,24
 261 87 261 87 328 145 c 1,25,-1
 353 166 l 2,0,1
473 547 m 0,26,27
 431 547 431 547 324 426 c 128,-1,28
 217 305 217 305 147 184 c 1,29,30
 262 266 262 266 372 384.5 c 128,-1,31
 482 503 482 503 482 538 c 0,32,33
 482 547 482 547 473 547 c 0,26,27
EndSplineSet
EndChar

StartChar: m
Encoding: 109 109 80
Width: 457
GlyphClass: 2
Flags: W
LayerCount: 2
Fore
SplineSet
117 174 m 1,0,-1
 115 185 l 2,1,2
 115 190 115 190 136 190 c 0,3,4
 148 190 148 190 148 175 c 128,-1,5
 148 160 148 160 113.5 108.5 c 128,-1,6
 79 57 79 57 79 55 c 128,-1,7
 79 53 79 53 83 53 c 128,-1,8
 87 53 87 53 175.5 123 c 128,-1,9
 264 193 264 193 282 193 c 128,-1,10
 300 193 300 193 300 180.5 c 128,-1,11
 300 168 300 168 290 152.5 c 128,-1,12
 280 137 280 137 248 96.5 c 128,-1,13
 216 56 216 56 214 53 c 128,-1,14
 212 50 212 50 212 46 c 128,-1,15
 212 42 212 42 218.5 42 c 128,-1,16
 225 42 225 42 317 110 c 128,-1,17
 409 178 409 178 422 178 c 128,-1,18
 435 178 435 178 435 167 c 0,19,20
 435 147 435 147 391 97 c 128,-1,21
 347 47 347 47 347 33.5 c 128,-1,22
 347 20 347 20 357.5 20 c 128,-1,23
 368 20 368 20 410 48 c 0,24,25
 485 98 485 98 548 149 c 2,26,-1
 570 167 l 1,27,28
 578 172 578 172 583.5 172 c 128,-1,29
 589 172 589 172 589 166 c 2,30,-1
 589 163 l 1,31,32
 378 -13 378 -13 328 -13 c 0,33,34
 299 -13 299 -13 299 11 c 0,35,36
 299 31 299 31 328 70 c 128,-1,37
 357 109 357 109 357 112.5 c 128,-1,38
 357 116 357 116 354.5 116 c 128,-1,39
 352 116 352 116 272.5 59 c 128,-1,40
 193 2 193 2 178 2 c 0,41,42
 171 2 171 2 166 7.5 c 128,-1,43
 161 13 161 13 161 19 c 0,44,45
 161 37 161 37 204 92 c 0,46,47
 247 146 247 146 247 151 c 256,48,49
 247 156 247 156 241 156 c 0,50,51
 234 156 234 156 99 46 c 1,52,-1
 49 6 l 2,53,54
 36 -5 36 -5 29.5 -5 c 128,-1,55
 23 -5 23 -5 17 -1.5 c 128,-1,56
 11 2 11 2 11 9 c 128,-1,57
 11 16 11 16 28.5 43 c 128,-1,58
 46 70 46 70 74 109 c 0,59,60
 117 167 117 167 117 174 c 1,0,-1
EndSplineSet
EndChar

StartChar: n
Encoding: 110 110 81
Width: 386
GlyphClass: 2
Flags: W
LayerCount: 2
Fore
SplineSet
518 163 m 1,0,1
 307 -13 307 -13 257 -13 c 0,2,3
 228 -13 228 -13 228 11 c 128,-1,4
 228 35 228 35 249.5 68 c 128,-1,5
 271 101 271 101 292.5 126.5 c 128,-1,6
 314 152 314 152 314 157 c 128,-1,7
 314 162 314 162 311 162 c 1,8,9
 218 100 218 100 200.5 86 c 128,-1,10
 183 72 183 72 143.5 40 c 128,-1,11
 104 8 104 8 92 0 c 128,-1,12
 80 -8 80 -8 66 -8 c 256,13,14
 52 -8 52 -8 52 4 c 0,15,16
 52 18 52 18 108 92 c 1,17,18
 162 166 162 166 162 175 c 0,19,20
 162 177 162 177 158.5 177 c 128,-1,21
 155 177 155 177 72 116 c 1,22,-1
 68 131 l 1,23,24
 139 188 139 188 164 204 c 128,-1,25
 189 220 189 220 204.5 220 c 128,-1,26
 220 220 220 220 220 205 c 0,27,28
 220 195 220 195 163.5 123.5 c 128,-1,29
 107 52 107 52 107 46.5 c 128,-1,30
 107 41 107 41 110.5 41 c 128,-1,31
 114 41 114 41 224.5 121.5 c 128,-1,32
 335 202 335 202 359 202 c 0,33,34
 366 202 366 202 372.5 196.5 c 128,-1,35
 379 191 379 191 379 186 c 0,36,37
 379 174 379 174 326 106.5 c 128,-1,38
 273 39 273 39 273 30 c 128,-1,39
 273 21 273 21 285.5 21 c 128,-1,40
 298 21 298 21 339 48 c 0,41,42
 414 97 414 97 477 149 c 2,43,-1
 499 167 l 2,44,45
 506 172 506 172 512 172 c 128,-1,46
 518 172 518 172 518 166 c 2,47,-1
 518 163 l 1,0,1
EndSplineSet
EndChar

StartChar: o
Encoding: 111 111 82
Width: 231
GlyphClass: 2
Flags: W
LayerCount: 2
Fore
SplineSet
189 86 m 0,0,1
 245 86 245 86 323 149 c 1,2,-1
 340 144 l 1,3,4
 242 62 242 62 171 62 c 0,5,6
 163 62 163 62 159 63 c 1,7,8
 132 30 132 30 100 9.5 c 128,-1,9
 68 -11 68 -11 44 -11 c 0,10,11
 6 -11 6 -11 6 31.5 c 128,-1,12
 6 74 6 74 77 145 c 1,13,14
 65 174 65 174 65 206 c 128,-1,15
 65 238 65 238 88 258 c 128,-1,16
 111 278 111 278 141.5 278 c 128,-1,17
 172 278 172 278 193 258 c 128,-1,18
 214 238 214 238 214 201 c 0,19,20
 214 144 214 144 177 87 c 1,21,22
 181 86 181 86 189 86 c 0,0,1
157 96 m 1,23,24
 188 148 188 148 188 184.5 c 128,-1,25
 188 221 188 221 170 238.5 c 128,-1,26
 152 256 152 256 135 256 c 0,27,28
 100 256 100 256 100 220 c 128,-1,29
 100 184 100 184 116 148.5 c 128,-1,30
 132 113 132 113 157 96 c 1,23,24
47 37 m 0,31,32
 47 17 47 17 73 17 c 128,-1,33
 99 17 99 17 139 70 c 1,34,35
 112 84 112 84 91 119 c 1,36,37
 47 71 47 71 47 37 c 0,31,32
EndSplineSet
EndChar

StartChar: p
Encoding: 112 112 83
Width: 336
GlyphClass: 2
Flags: W
LayerCount: 2
Fore
SplineSet
468 163 m 1,0,1
 257 -13 257 -13 207 -13 c 0,2,3
 178 -13 178 -13 178 10.5 c 128,-1,4
 178 34 178 34 233 98.5 c 128,-1,5
 288 163 288 163 288 181 c 1,6,7
 286 183 286 183 284 183 c 0,8,9
 256 183 256 183 194 140 c 1,10,11
 -208 -423 -208 -423 -263 -423 c 0,12,13
 -274 -423 -274 -423 -281.5 -415.5 c 128,-1,14
 -289 -408 -289 -408 -289 -393 c 0,15,16
 -289 -324 -289 -324 -153 -162 c 128,-1,17
 -17 0 -17 0 126 111 c 1,18,-1
 214 239 l 1,19,-1
 214 240 l 2,20,21
 214 243 214 243 210 243 c 1,22,23
 190 208 190 208 102 138 c 1,24,-1
 73 116 l 1,25,-1
 69 131 l 1,26,27
 145 193 145 193 210 259 c 128,-1,28
 275 325 275 325 302 360 c 2,29,-1
 329 395 l 2,30,31
 343 414 343 414 360 414 c 128,-1,32
 377 414 377 414 377 404 c 0,33,34
 377 400 377 400 374.5 397 c 128,-1,35
 372 394 372 394 351.5 364.5 c 128,-1,36
 331 335 331 335 291 278.5 c 128,-1,37
 251 222 251 222 216 172 c 1,38,39
 274 205 274 205 303.5 205 c 128,-1,40
 333 205 333 205 333 193 c 0,41,42
 333 153 333 153 253 70 c 0,43,44
 226 42 226 42 226 33.5 c 128,-1,45
 226 25 226 25 240.5 25 c 128,-1,46
 255 25 255 25 292 50 c 0,47,48
 365 99 365 99 427 149 c 2,49,-1
 449 167 l 2,50,51
 456 172 456 172 462 172 c 128,-1,52
 468 172 468 172 468 166 c 2,53,-1
 468 163 l 1,0,1
-250 -390 m 0,54,55
 -219 -390 -219 -390 93 62 c 1,56,57
 -39 -50 -39 -50 -147.5 -182.5 c 128,-1,58
 -256 -315 -256 -315 -256 -384 c 0,59,60
 -256 -390 -256 -390 -250 -390 c 0,54,55
EndSplineSet
EndChar

StartChar: q
Encoding: 113 113 84
Width: 308
GlyphClass: 2
Flags: W
LayerCount: 2
Fore
SplineSet
419 166 m 2,0,1
 426 171 426 171 432 171 c 128,-1,2
 438 171 438 171 438 164 c 2,3,-1
 438 162 l 1,4,5
 349 88 349 88 271.5 36 c 128,-1,6
 194 -16 194 -16 139 -16 c 1,7,8
 134 -17 134 -17 134 -29 c 0,9,10
 134 -84 134 -84 80.5 -182.5 c 128,-1,11
 27 -281 27 -281 -42 -357.5 c 128,-1,12
 -111 -434 -111 -434 -150 -434 c 0,13,14
 -161 -434 -161 -434 -170 -425.5 c 128,-1,15
 -179 -417 -179 -417 -179 -406 c 0,16,17
 -179 -387 -179 -387 -70 -235 c 128,-1,18
 39 -83 39 -83 127 33 c 0,19,20
 128 35 128 35 128 38 c 128,-1,21
 128 41 128 41 124 41 c 1,22,23
 75 -2 75 -2 33 -2 c 0,24,25
 5 -2 5 -2 5 21 c 0,26,27
 5 53 5 53 49 106 c 128,-1,28
 93 159 93 159 162.5 203 c 128,-1,29
 232 247 232 247 291 247 c 0,30,31
 322 247 322 247 322 225.5 c 128,-1,32
 322 204 322 204 292 173.5 c 128,-1,33
 262 143 262 143 241 143 c 0,34,35
 237 143 237 143 237 149.5 c 128,-1,36
 237 156 237 156 250 163 c 128,-1,37
 263 170 263 170 275 185 c 128,-1,38
 287 200 287 200 287 211 c 0,39,40
 287 226 287 226 267 226 c 0,41,42
 219 226 219 226 138.5 152 c 128,-1,43
 58 78 58 78 58 43 c 0,44,45
 58 30 58 30 78.5 30 c 128,-1,46
 99 30 99 30 176 97 c 1,47,48
 196 117 196 117 202.5 118 c 128,-1,49
 209 119 209 119 219 119 c 128,-1,50
 229 119 229 119 228.5 108.5 c 128,-1,51
 228 98 228 98 191.5 56.5 c 128,-1,52
 155 15 155 15 155 11.5 c 128,-1,53
 155 8 155 8 159 7 c 1,54,55
 179 7 179 7 205 17.5 c 128,-1,56
 231 28 231 28 247 38 c 2,57,-1
 263 49 l 1,58,59
 319 85 319 85 396 147 c 1,60,-1
 419 166 l 2,0,1
-129 -389 m 0,61,62
 -129 -397 -129 -397 -123 -397 c 0,63,64
 -108 -397 -108 -397 -70.5 -360 c 128,-1,65
 -33 -323 -33 -323 5.5 -272.5 c 128,-1,66
 44 -222 44 -222 74 -162.5 c 128,-1,67
 104 -103 104 -103 104 -65 c 0,68,69
 104 -59 104 -59 102 -59 c 0,70,71
 88 -59 88 -59 -20.5 -212.5 c 128,-1,72
 -129 -366 -129 -366 -129 -389 c 0,61,62
EndSplineSet
EndChar

StartChar: r
Encoding: 114 114 85
Width: 221
GlyphClass: 2
Flags: W
LayerCount: 2
Fore
SplineSet
333 166 m 2,0,1
 340 171 340 171 346 171 c 128,-1,2
 352 171 352 171 352 164 c 2,3,-1
 352 162 l 1,4,5
 277 102 277 102 204 49.5 c 128,-1,6
 131 -3 131 -3 97 -3 c 0,7,8
 72 -3 72 -3 72 24 c 128,-1,9
 72 51 72 51 96 78 c 128,-1,10
 120 105 120 105 143.5 125 c 128,-1,11
 167 145 167 145 167 151.5 c 128,-1,12
 167 158 167 158 159.5 166.5 c 128,-1,13
 152 175 152 175 147 178 c 1,14,15
 130 161 130 161 73 116 c 1,16,-1
 69 131 l 1,17,18
 132 181 132 181 142 198 c 1,19,-1
 142 207 l 2,20,21
 142 232 142 232 147 241 c 128,-1,22
 152 250 152 250 171 266 c 128,-1,23
 190 282 190 282 197 282 c 128,-1,24
 204 282 204 282 209.5 277 c 128,-1,25
 215 272 215 272 215 267 c 128,-1,26
 215 262 215 262 211.5 255.5 c 128,-1,27
 208 249 208 249 204.5 244.5 c 128,-1,28
 201 240 201 240 195 233.5 c 128,-1,29
 189 227 189 227 187.5 224.5 c 128,-1,30
 186 222 186 222 184.5 216 c 128,-1,31
 183 210 183 210 178 206 c 128,-1,32
 173 202 173 202 173 196 c 128,-1,33
 173 190 173 190 181 169.5 c 128,-1,34
 189 149 189 149 189 139.5 c 128,-1,35
 189 130 189 130 152 94.5 c 128,-1,36
 115 59 115 59 115 37 c 0,37,38
 115 25 115 25 126 25 c 0,39,40
 140 25 140 25 178 50 c 2,41,-1
 190 58 l 1,42,43
 255 103 255 103 312 149 c 2,44,-1
 333 166 l 2,0,1
EndSplineSet
EndChar

StartChar: s
Encoding: 115 115 86
Width: 199
GlyphClass: 2
Flags: W
LayerCount: 2
Fore
SplineSet
310 166 m 1,0,1
 318 171 318 171 323.5 171 c 128,-1,2
 329 171 329 171 329 164 c 2,3,-1
 329 162 l 1,4,5
 252 97 252 97 166.5 40 c 128,-1,6
 81 -17 81 -17 58 -17 c 128,-1,7
 35 -17 35 -17 19.5 -8.5 c 128,-1,8
 4 0 4 0 4 11 c 128,-1,9
 4 22 4 22 10 29.5 c 128,-1,10
 16 37 16 37 21 37 c 128,-1,11
 26 37 26 37 37.5 21.5 c 128,-1,12
 49 6 49 6 60 6 c 0,13,14
 83 6 83 6 96 55 c 128,-1,15
 109 104 109 104 109 122.5 c 128,-1,16
 109 141 109 141 106.5 141 c 128,-1,17
 104 141 104 141 102 139 c 2,18,-1
 73 116 l 1,19,-1
 69 131 l 1,20,21
 132 181 132 181 142 198 c 1,22,23
 148 214 148 214 159 214 c 0,24,25
 166 214 166 214 166 209 c 128,-1,26
 166 204 166 204 159 187.5 c 128,-1,27
 152 171 152 171 140.5 113 c 128,-1,28
 129 55 129 55 129 46 c 128,-1,29
 129 37 129 37 134 37 c 1,30,31
 204 80 204 80 282 144 c 1,32,-1
 310 166 l 1,0,1
EndSplineSet
EndChar

StartChar: t
Encoding: 116 116 87
Width: 189
GlyphClass: 2
Flags: W
LayerCount: 2
Fore
SplineSet
651 424 m 1,0,-1
 508 431 l 1,1,2
 420 431 420 431 333 424 c 1,3,-1
 338 404 l 1,4,5
 338 393 338 393 273 320.5 c 128,-1,6
 208 248 208 248 143 162.5 c 128,-1,7
 78 77 78 77 78 36 c 0,8,9
 78 20 78 20 89.5 20 c 128,-1,10
 101 20 101 20 142 48 c 0,11,12
 218 98 218 98 281 149 c 2,13,-1
 303 167 l 2,14,15
 310 172 310 172 315 172 c 128,-1,16
 320 172 320 172 320 166 c 2,17,-1
 320 163 l 1,18,19
 324 163 324 163 266.5 119 c 128,-1,20
 209 75 209 75 143.5 31 c 128,-1,21
 78 -13 78 -13 61 -13 c 0,22,23
 32 -13 32 -13 32 13 c 0,24,25
 32 51 32 51 74.5 118 c 128,-1,26
 117 185 117 185 167.5 244.5 c 128,-1,27
 218 304 218 304 263.5 357 c 128,-1,28
 309 410 309 410 313 422 c 1,29,30
 203 412 203 412 144 398 c 1,31,-1
 124 394 l 2,32,33
 116 393 116 393 116 379 c 0,34,35
 116 373 116 373 102 373 c 128,-1,36
 88 373 88 373 67.5 379.5 c 128,-1,37
 47 386 47 386 47 398 c 128,-1,38
 47 410 47 410 67 414 c 0,39,40
 215 440 215 440 277 445.5 c 128,-1,41
 339 451 339 451 359.5 452.5 c 128,-1,42
 380 454 380 454 423.5 455 c 128,-1,43
 467 456 467 456 482 456 c 0,44,45
 527 458 527 458 587.5 458 c 128,-1,46
 648 458 648 458 661 453 c 128,-1,47
 674 448 674 448 674 434 c 0,48,49
 674 424 674 424 651 424 c 1,0,-1
EndSplineSet
EndChar

StartChar: u
Encoding: 117 117 88
Width: 289
GlyphClass: 2
Flags: W
LayerCount: 2
Fore
SplineSet
132 13 m 0,0,1
 132 28 132 28 146.5 52 c 128,-1,2
 161 76 161 76 162 80 c 128,-1,3
 163 84 163 84 160 84 c 128,-1,4
 157 84 157 84 151.5 78.5 c 128,-1,5
 146 73 146 73 90.5 36.5 c 128,-1,6
 35 0 35 0 14 0 c 0,7,8
 0 0 0 0 0 18 c 128,-1,9
 0 36 0 36 56 111 c 128,-1,10
 112 186 112 186 135 186 c 0,11,12
 140 186 140 186 144.5 181.5 c 128,-1,13
 149 177 149 177 149 174.5 c 128,-1,14
 149 172 149 172 97.5 113 c 128,-1,15
 46 54 46 54 46 37 c 0,16,17
 46 33 46 33 50 33 c 0,18,19
 69 33 69 33 132 84 c 128,-1,20
 195 135 195 135 221.5 163 c 128,-1,21
 248 191 248 191 263 191 c 128,-1,22
 278 191 278 191 278 178 c 0,23,24
 278 170 278 170 272 162 c 128,-1,25
 266 154 266 154 249.5 133.5 c 128,-1,26
 233 113 233 113 219 95 c 0,27,28
 180 45 180 45 180 32.5 c 128,-1,29
 180 20 180 20 190.5 20 c 128,-1,30
 201 20 201 20 242 48 c 0,31,32
 318 98 318 98 381 149 c 2,33,-1
 403 167 l 2,34,35
 410 172 410 172 415 172 c 128,-1,36
 420 172 420 172 420 166 c 2,37,-1
 420 163 l 1,38,39
 424 163 424 163 366.5 119 c 128,-1,40
 309 75 309 75 243.5 31 c 128,-1,41
 178 -13 178 -13 161 -13 c 0,42,43
 132 -13 132 -13 132 13 c 0,0,1
EndSplineSet
EndChar

StartChar: v
Encoding: 118 118 89
Width: 256
GlyphClass: 2
Flags: W
LayerCount: 2
Fore
SplineSet
288 159 m 1,0,-1
 272 166 l 1,1,2
 253 166 253 166 65 3 c 0,3,4
 47 -13 47 -13 38.5 -13 c 128,-1,5
 30 -13 30 -13 25.5 -7 c 128,-1,6
 21 -1 21 -1 21 6.5 c 128,-1,7
 21 14 21 14 55 74.5 c 128,-1,8
 89 135 89 135 89 139.5 c 128,-1,9
 89 144 89 144 85 144 c 1,10,11
 71 137 71 137 64 137 c 128,-1,12
 57 137 57 137 57 141.5 c 128,-1,13
 57 146 57 146 61 150 c 0,14,15
 103 183 103 183 119.5 183 c 128,-1,16
 136 183 136 183 136 164 c 128,-1,17
 136 145 136 145 111 102.5 c 128,-1,18
 86 60 86 60 86 53 c 128,-1,19
 86 46 86 46 89.5 46 c 128,-1,20
 93 46 93 46 98 50 c 128,-1,21
 103 54 103 54 151 96 c 1,22,23
 314 224 314 224 329 224 c 0,24,25
 330 224 330 224 330 224 c 2,26,27
 336 224 336 224 342 220 c 128,-1,28
 348 216 348 216 348 208 c 128,-1,29
 348 200 348 200 325 179.5 c 128,-1,30
 302 159 302 159 288 159 c 1,0,-1
EndSplineSet
EndChar

StartChar: w
Encoding: 119 119 90
Width: 374
GlyphClass: 2
Flags: W
LayerCount: 2
Fore
SplineSet
353 132 m 1,0,-1
 347 164 l 1,1,2
 347 172 347 172 351 178 c 128,-1,3
 355 184 355 184 364 184 c 128,-1,4
 373 184 373 184 378.5 170.5 c 128,-1,5
 384 157 384 157 384 143 c 0,6,7
 384 92 384 92 328 38 c 128,-1,8
 272 -16 272 -16 212 -16 c 0,9,10
 198 -16 198 -16 190 -7.5 c 128,-1,11
 182 1 182 1 182 14.5 c 128,-1,12
 182 28 182 28 195.5 54 c 128,-1,13
 209 80 209 80 209 86 c 128,-1,14
 209 92 209 92 206 92 c 128,-1,15
 203 92 203 92 201 90 c 0,16,17
 101 6 101 6 54 6 c 0,18,19
 26 6 26 6 26 30 c 0,20,21
 26 68 26 68 82.5 136.5 c 128,-1,22
 139 205 139 205 163 205 c 0,23,24
 178 205 178 205 178 199.5 c 128,-1,25
 178 194 178 194 159.5 176 c 128,-1,26
 141 158 141 158 103.5 111.5 c 128,-1,27
 66 65 66 65 66 44 c 0,28,29
 66 31 66 31 86 31 c 128,-1,30
 106 31 106 31 174 85.5 c 128,-1,31
 242 140 242 140 284 185 c 0,32,33
 300 201 300 201 311.5 201 c 128,-1,34
 323 201 323 201 323 193.5 c 128,-1,35
 323 186 323 186 318.5 179 c 128,-1,36
 314 172 314 172 288 142 c 1,37,38
 223 63 223 63 223 18 c 0,39,40
 223 6 223 6 232 6 c 0,41,42
 269 6 269 6 311 45.5 c 128,-1,43
 353 85 353 85 353 132 c 1,0,-1
EndSplineSet
EndChar

StartChar: x
Encoding: 120 120 91
Width: 254
GlyphClass: 2
Flags: W
LayerCount: 2
Fore
SplineSet
6 -1 m 0,0,1
 -1 -1 -1 -1 -1 6 c 0,2,3
 -1 10 -1 10 9 20 c 0,4,5
 36 50 36 50 102 101 c 1,6,7
 115 160 115 160 115 167 c 128,-1,8
 115 174 115 174 108.5 179 c 128,-1,9
 102 184 102 184 102 186.5 c 128,-1,10
 102 189 102 189 108 195 c 1,11,12
 135 214 135 214 146 214 c 0,13,14
 161 214 161 214 161 198 c 0,15,16
 161 190 161 190 145 134 c 1,17,18
 269 224 269 224 289 224 c 0,19,20
 295 224 295 224 300 218.5 c 128,-1,21
 305 213 305 213 305 209 c 0,22,23
 305 207 305 207 257 180 c 128,-1,24
 209 153 209 153 138 103 c 1,25,26
 131 71 131 71 131 53 c 0,27,28
 131 20 131 20 148 20 c 0,29,30
 161 20 161 20 233 64 c 1,31,32
 291 104 291 104 348 150 c 1,33,-1
 367 166 l 2,34,35
 374 171 374 171 379.5 171 c 128,-1,36
 385 171 385 171 385 163 c 2,37,-1
 385 162 l 1,38,39
 181 -6 181 -6 134 -6 c 0,40,41
 94 -6 94 -6 94 43 c 0,42,43
 94 52 94 52 96 72 c 1,44,45
 54 41 54 41 22 9 c 1,46,47
 10 -1 10 -1 6 -1 c 0,0,1
EndSplineSet
EndChar

StartChar: y
Encoding: 121 121 92
Width: 336
GlyphClass: 2
Flags: W
LayerCount: 2
Fore
SplineSet
66 -114 m 1,0,-1
 79 -97 l 1,1,2
 95 -78 95 -78 99 -72 c 1,3,4
 70 -85 70 -85 53 -89.5 c 128,-1,5
 36 -94 36 -94 36 -96 c 1,6,-1
 66 -114 l 1,0,-1
71 -174 m 0,7,8
 71 -164 71 -164 68 -153 c 1,9,10
 -79 -337 -79 -337 -79 -373 c 0,11,12
 -79 -376 -79 -376 -76 -376 c 0,13,14
 -59 -376 -59 -376 -24 -343 c 128,-1,15
 11 -310 11 -310 41 -261 c 128,-1,16
 71 -212 71 -212 71 -174 c 0,7,8
-9 -97 m 1,17,18
 -6 -89 -6 -89 -4.5 -88 c 128,-1,19
 -3 -87 -3 -87 3 -86.5 c 128,-1,20
 9 -86 9 -86 41 -77.5 c 128,-1,21
 73 -69 73 -69 117 -50 c 1,22,23
 245 113 245 113 252.5 127.5 c 128,-1,24
 260 142 260 142 260 145 c 128,-1,25
 260 148 260 148 256 148 c 128,-1,26
 252 148 252 148 247 141 c 1,27,28
 245 140 245 140 220.5 117.5 c 128,-1,29
 196 95 196 95 172.5 76 c 128,-1,30
 149 57 149 57 118 39.5 c 128,-1,31
 87 22 87 22 65 22 c 128,-1,32
 43 22 43 22 43 38 c 0,33,34
 44 75 44 75 93.5 140 c 128,-1,35
 143 205 143 205 160 205 c 128,-1,36
 177 205 177 205 177 196 c 0,37,38
 177 191 177 191 131.5 134 c 128,-1,39
 86 77 86 77 86 63 c 128,-1,40
 86 49 86 49 95 49 c 0,41,42
 113 49 113 49 198.5 122 c 128,-1,43
 284 195 284 195 304 195 c 0,44,45
 310 195 310 195 315.5 189 c 128,-1,46
 321 183 321 183 321 176 c 0,47,48
 321 154 321 154 177 -21 c 1,49,50
 312 54 312 54 428 149 c 2,51,-1
 450 167 l 1,52,53
 458 172 458 172 463 172 c 128,-1,54
 468 172 468 172 468 167 c 1,55,-1
 467 163 l 1,56,57
 472 163 472 163 414 119 c 128,-1,58
 356 75 356 75 307 41 c 128,-1,59
 258 7 258 7 156 -45 c 1,60,-1
 85 -132 l 1,61,62
 99 -152 99 -152 99 -179 c 0,63,64
 99 -225 99 -225 60 -281.5 c 128,-1,65
 21 -338 21 -338 -27.5 -375.5 c 128,-1,66
 -76 -413 -76 -413 -107 -413 c 0,67,68
 -116 -413 -116 -413 -123.5 -406.5 c 128,-1,69
 -131 -400 -131 -400 -131 -388.5 c 128,-1,70
 -131 -377 -131 -377 -119.5 -354 c 128,-1,71
 -108 -331 -108 -331 -85.5 -300.5 c 128,-1,72
 -63 -270 -63 -270 -43 -245.5 c 128,-1,73
 -23 -221 -23 -221 8 -184 c 128,-1,74
 39 -147 39 -147 54 -129 c 1,75,76
 36 -113 36 -113 13.5 -109 c 128,-1,77
 -9 -105 -9 -105 -9 -97 c 1,17,18
EndSplineSet
EndChar

StartChar: z
Encoding: 122 122 93
Width: 236
GlyphClass: 2
Flags: W
LayerCount: 2
Fore
SplineSet
-146 -392 m 0,0,1
 -122 -392 -122 -392 -66 -336 c 128,-1,2
 -10 -280 -10 -280 41 -200.5 c 128,-1,3
 92 -121 92 -121 99 -66 c 1,4,5
 -4 -133 -4 -133 -80.5 -217.5 c 128,-1,6
 -157 -302 -157 -302 -157 -377 c 0,7,8
 -157 -392 -157 -392 -146 -392 c 0,0,1
213 13 m 128,-1,10
 221 13 221 13 221 6 c 128,-1,11
 221 -1 221 -1 209 -6 c 0,12,13
 176 -18 176 -18 132 -46 c 1,14,-1
 132 -51 l 2,15,16
 132 -111 132 -111 70 -201 c 128,-1,17
 8 -291 8 -291 -64.5 -354.5 c 128,-1,18
 -137 -418 -137 -418 -171 -418 c 0,19,20
 -197 -418 -197 -418 -197 -389 c 0,21,22
 -197 -347 -197 -347 -168.5 -297.5 c 128,-1,23
 -140 -248 -140 -248 -94 -202 c 1,24,25
 -4 -109 -4 -109 101 -43 c 1,26,27
 96 9 96 9 34 13 c 0,28,29
 19 13 19 13 19 22 c 0,30,31
 19 25 19 25 33 33.5 c 128,-1,32
 47 42 47 42 78 61 c 128,-1,33
 109 80 109 80 155 119.5 c 128,-1,34
 201 159 201 159 201 182 c 0,35,36
 201 193 201 193 191 193 c 0,37,38
 168 193 168 193 103 141 c 2,39,-1
 72 116 l 1,40,-1
 68 131 l 1,41,42
 80 140 80 140 95 152 c 0,43,44
 185 226 185 226 229 226 c 0,45,46
 256 226 256 226 256 197 c 0,47,48
 256 138 256 138 74 37 c 0,49,50
 66 33 66 33 66 29 c 128,-1,51
 66 25 66 25 68 25 c 0,52,53
 118 12 118 12 129 -26 c 1,54,55
 152 -12 152 -12 178.5 0.5 c 128,-1,9
 205 13 205 13 213 13 c 128,-1,10
EndSplineSet
EndChar

StartChar: braceleft
Encoding: 123 123 94
Width: 410
GlyphClass: 2
Flags: W
LayerCount: 2
Fore
SplineSet
519 743 m 0,0,1
 527 740 527 740 527 730 c 128,-1,2
 527 720 527 720 523 720 c 1,3,4
 473 741 473 741 430.5 741 c 128,-1,5
 388 741 388 741 366 711 c 128,-1,6
 344 681 344 681 335 621 c 128,-1,7
 326 561 326 561 324 507.5 c 128,-1,8
 322 454 322 454 300.5 402 c 128,-1,9
 279 350 279 350 234 329 c 1,10,11
 257 292 257 292 259 259 c 1,12,13
 259 217 259 217 207.5 113.5 c 128,-1,14
 156 10 156 10 156 -35 c 1,15,16
 159 -77 159 -77 187 -106 c 128,-1,17
 215 -135 215 -135 276 -153 c 0,18,19
 278 -153 278 -153 278 -156 c 128,-1,20
 278 -159 278 -159 272 -164 c 128,-1,21
 266 -169 266 -169 261 -169 c 1,22,23
 122 -128 122 -128 116 -38 c 1,24,25
 116 9 116 9 167.5 115 c 128,-1,26
 219 221 219 221 219 267 c 0,27,28
 219 294 219 294 207.5 304.5 c 128,-1,29
 196 315 196 315 184 317.5 c 128,-1,30
 172 320 172 320 172 327 c 0,31,32
 172 330 172 330 181 333 c 0,33,34
 223 344 223 344 250.5 384 c 128,-1,35
 278 424 278 424 294 561 c 128,-1,36
 310 698 310 698 336.5 733.5 c 128,-1,37
 363 769 363 769 408 769 c 128,-1,38
 453 769 453 769 519 743 c 0,0,1
EndSplineSet
EndChar

StartChar: bar
Encoding: 124 124 95
Width: 339
GlyphClass: 2
Flags: W
LayerCount: 2
Fore
SplineSet
412 875 m 0,0,1
 419 875 419 875 419 867.5 c 128,-1,2
 419 860 419 860 418 857 c 0,3,4
 387 697 387 697 285.5 398 c 128,-1,5
 184 99 184 99 87 -95 c 1,6,7
 76 -104 76 -104 65 -104 c 0,8,9
 51 -104 51 -104 51 -91 c 1,10,11
 122 41 122 41 245 374 c 128,-1,12
 368 707 368 707 395 855 c 0,13,14
 396 863 396 863 403 871 c 1,15,16
 409 875 409 875 412 875 c 0,0,1
EndSplineSet
EndChar

StartChar: braceright
Encoding: 125 125 96
Width: 455
GlyphClass: 2
Flags: W
LayerCount: 2
Fore
SplineSet
77 -143 m 0,0,1
 69 -140 69 -140 69 -130 c 128,-1,2
 69 -120 69 -120 73 -120 c 1,3,4
 123 -141 123 -141 165.5 -141 c 128,-1,5
 208 -141 208 -141 230 -111 c 128,-1,6
 252 -81 252 -81 261 -21 c 128,-1,7
 270 39 270 39 272 92.5 c 128,-1,8
 274 146 274 146 295.5 198 c 128,-1,9
 317 250 317 250 362 271 c 1,10,11
 339 308 339 308 337 341 c 1,12,13
 337 383 337 383 388.5 486.5 c 128,-1,14
 440 590 440 590 440 635 c 1,15,16
 437 677 437 677 409 706 c 128,-1,17
 381 735 381 735 320 753 c 0,18,19
 318 753 318 753 318 756 c 128,-1,20
 318 759 318 759 324 764 c 128,-1,21
 330 769 330 769 335 769 c 1,22,23
 474 728 474 728 480 638 c 1,24,25
 480 591 480 591 428.5 485 c 128,-1,26
 377 379 377 379 377 333 c 0,27,28
 377 306 377 306 388.5 295.5 c 128,-1,29
 400 285 400 285 412 282.5 c 128,-1,30
 424 280 424 280 424 273 c 0,31,32
 424 270 424 270 415 267 c 0,33,34
 373 256 373 256 345.5 216 c 128,-1,35
 318 176 318 176 302 39 c 128,-1,36
 286 -98 286 -98 259.5 -133.5 c 128,-1,37
 233 -169 233 -169 188 -169 c 128,-1,38
 143 -169 143 -169 77 -143 c 0,0,1
EndSplineSet
EndChar

StartChar: asciitilde
Encoding: 126 126 97
Width: 407
GlyphClass: 2
Flags: W
LayerCount: 2
Fore
SplineSet
314 94 m 1,0,-1
 220 84 l 1,1,2
 198 84 198 84 181 97.5 c 128,-1,3
 164 111 164 111 157 135 c 1,4,5
 157 140 157 140 161.5 140 c 128,-1,6
 166 140 166 140 169 134 c 0,7,8
 184 110 184 110 218 110 c 1,9,-1
 302 119 l 1,10,11
 327 119 327 119 346.5 108 c 128,-1,12
 366 97 366 97 366 74 c 0,13,14
 366 68 366 68 361.5 68 c 128,-1,15
 357 68 357 68 354 74 c 0,16,17
 341 94 341 94 314 94 c 1,0,-1
EndSplineSet
EndChar

StartChar: exclamdown
Encoding: 161 161 98
Width: 327
GlyphClass: 2
Flags: W
LayerCount: 2
Fore
SplineSet
-43.5 -299 m 128,-1,1
 -55 -310 -55 -310 -67 -310 c 128,-1,2
 -79 -310 -79 -310 -85 -302 c 1,3,4
 -85 -297 -85 -297 71.5 -56 c 128,-1,5
 228 185 228 185 259 234 c 0,6,7
 270 252 270 252 280 252 c 0,8,9
 288 252 288 252 288 241 c 1,10,11
 287 235 287 235 134.5 -16 c 128,-1,12
 -18 -267 -18 -267 -25 -277.5 c 128,-1,0
 -32 -288 -32 -288 -43.5 -299 c 128,-1,1
299 295 m 128,-1,14
 293 301 293 301 293 313 c 128,-1,15
 293 325 293 325 306 341 c 128,-1,16
 319 357 319 357 330 357 c 128,-1,17
 341 357 341 357 347 350.5 c 128,-1,18
 353 344 353 344 353 335.5 c 128,-1,19
 353 327 353 327 339 308 c 128,-1,20
 325 289 325 289 315 289 c 128,-1,13
 305 289 305 289 299 295 c 128,-1,14
EndSplineSet
EndChar

StartChar: cent
Encoding: 162 162 99
Width: 377
GlyphClass: 2
Flags: W
LayerCount: 2
Fore
SplineSet
406 406 m 2,0,1
 413 411 413 411 419 411 c 128,-1,2
 425 411 425 411 425 404 c 2,3,-1
 425 402 l 1,4,5
 260 256 260 256 153 229 c 1,6,7
 121 146 121 146 112 114 c 1,8,9
 108 110 108 110 102.5 110 c 128,-1,10
 97 110 97 110 91.5 116.5 c 128,-1,11
 86 123 86 123 84 136 c 1,12,13
 94 169 94 169 116 226 c 1,14,15
 78 229 78 229 78 275.5 c 128,-1,16
 78 322 78 322 126 377 c 128,-1,17
 174 432 174 432 237 449 c 1,18,-1
 275 547 l 1,19,20
 282 557 282 557 287 557 c 0,21,22
 295 557 295 557 295 546 c 0,23,24
 295 544 295 544 265 454 c 1,25,26
 270 455 270 455 285.5 454 c 128,-1,27
 301 453 301 453 306.5 448 c 128,-1,28
 312 443 312 443 312 434 c 128,-1,29
 312 425 312 425 293.5 401.5 c 128,-1,30
 275 378 275 378 260 378 c 1,31,32
 243 381 243 381 243 390 c 0,33,34
 243 394 243 394 252 403 c 0,35,36
 269 418 269 418 269 425 c 128,-1,37
 269 432 269 432 258 432 c 0,38,39
 223 431 223 431 170 374.5 c 128,-1,40
 117 318 117 318 117 281 c 0,41,42
 117 253 117 253 153.5 253 c 128,-1,43
 190 253 190 253 232 279 c 0,44,45
 306 324 306 324 381 386 c 1,46,-1
 406 406 l 2,0,1
EndSplineSet
EndChar

StartChar: sterling
Encoding: 163 163 100
Width: 809
GlyphClass: 2
Flags: W
LayerCount: 2
Fore
SplineSet
857 729 m 0,0,1
 857 748 857 748 791.5 748 c 128,-1,2
 726 748 726 748 634 653 c 1,3,4
 776 671 776 671 832 704 c 0,5,6
 857 718 857 718 857 729 c 0,0,1
41 -29 m 0,7,8
 75 -29 75 -29 123.5 22.5 c 128,-1,9
 172 74 172 74 238 171 c 1,10,11
 163 146 163 146 93 81.5 c 128,-1,12
 23 17 23 17 23 -15 c 0,13,14
 23 -29 23 -29 41 -29 c 0,7,8
538 319 m 0,15,16
 538 314 538 314 529 314 c 0,17,18
 458 315 458 315 385 315 c 1,19,20
 373 298 373 298 346.5 258.5 c 128,-1,21
 320 219 320 219 306 199 c 1,22,-1
 309 199 l 2,23,24
 409 199 409 199 479 141 c 0,25,26
 508 117 508 117 535 93 c 0,27,28
 600 35 600 35 674 35 c 0,29,30
 708 35 708 35 748.5 56.5 c 128,-1,31
 789 78 789 78 794.5 78 c 128,-1,32
 800 78 800 78 800 73 c 0,33,34
 800 55 800 55 749 33.5 c 128,-1,35
 698 12 698 12 647.5 12 c 128,-1,36
 597 12 597 12 556.5 29.5 c 128,-1,37
 516 47 516 47 489 72 c 128,-1,38
 462 97 462 97 436 122 c 0,39,40
 374 182 374 182 298 182 c 2,41,-1
 294 182 l 1,42,43
 214 68 214 68 150.5 6 c 128,-1,44
 87 -56 87 -56 34 -56 c 0,45,46
 0 -56 0 -56 0 -29 c 0,47,48
 0 17 0 17 80.5 92.5 c 128,-1,49
 161 168 161 168 252 191 c 1,50,-1
 336 316 l 1,51,-1
 247 316 l 2,52,53
 232 316 232 316 232 337 c 0,54,55
 232 343 232 343 238 345 c 128,-1,56
 244 347 244 347 267 347 c 2,57,-1
 357 347 l 1,58,-1
 388 392 l 1,59,-1
 286 392 l 2,60,61
 271 392 271 392 271 413 c 0,62,63
 271 419 271 419 277 421 c 128,-1,64
 283 423 283 423 329 423 c 128,-1,65
 375 423 375 423 410 422 c 1,66,67
 502 551 502 551 571 624 c 1,68,69
 466 613 466 613 337 613 c 0,70,71
 293 613 293 613 293 626 c 0,72,73
 293 633 293 633 305 641 c 128,-1,74
 317 649 317 649 328 649 c 1,75,76
 382 642 382 642 454.5 642 c 128,-1,77
 527 642 527 642 596 649 c 1,78,79
 715 766 715 766 808 766 c 128,-1,80
 901 766 901 766 901 735 c 0,81,82
 901 718 901 718 870.5 698.5 c 128,-1,83
 840 679 840 679 772 659.5 c 128,-1,84
 704 640 704 640 611 628 c 1,85,86
 549 559 549 559 456 421 c 1,87,-1
 562 417 l 2,88,89
 577 416 577 416 577 395 c 0,90,91
 577 390 577 390 568 390 c 0,92,93
 507 391 507 391 436 391 c 1,94,-1
 405 346 l 1,95,-1
 523 341 l 2,96,97
 538 340 538 340 538 319 c 0,15,16
EndSplineSet
EndChar

StartChar: currency
Encoding: 164 164 101
Width: 452
GlyphClass: 2
Flags: W
LayerCount: 2
Fore
SplineSet
344 359 m 0,0,1
 344 399 344 399 322.5 415 c 128,-1,2
 301 431 301 431 279 431 c 0,3,4
 228 431 228 431 188 379 c 128,-1,5
 148 327 148 327 148 274 c 0,6,7
 148 207 148 207 214 207 c 0,8,9
 260 207 260 207 302 254 c 128,-1,10
 344 301 344 301 344 359 c 0,0,1
383 370 m 0,11,12
 383 302 383 302 329 241 c 1,13,-1
 387 176 l 2,14,15
 392 171 392 171 392 167 c 0,16,17
 392 159 392 159 369 159 c 1,18,19
 368 160 368 160 310 222 c 1,20,21
 258 177 258 177 204 177 c 128,-1,22
 150 177 150 177 126 203 c 1,23,24
 60 144 60 144 54 144 c 0,25,26
 42 144 42 144 42 161 c 0,27,28
 42 167 42 167 70 192.5 c 128,-1,29
 98 218 98 218 110 231 c 1,30,31
 107 244 107 244 107 260 c 0,32,33
 107 329 107 329 164 394 c 1,34,35
 96 471 96 471 96 479 c 1,36,37
 97 486 97 486 112 490 c 1,38,39
 117 489 117 489 182 413 c 1,40,41
 233 461 233 461 294 461 c 0,42,43
 335 461 335 461 360 433 c 1,44,-1
 419 480 l 2,45,46
 424 484 424 484 430.5 484 c 128,-1,47
 437 484 437 484 437 476 c 0,48,49
 437 473 437 473 435.5 470 c 128,-1,50
 434 467 434 467 374 413 c 1,51,52
 383 396 383 396 383 370 c 0,11,12
EndSplineSet
EndChar

StartChar: yen
Encoding: 165 165 102
Width: 760
GlyphClass: 2
Flags: W
LayerCount: 2
Fore
SplineSet
545 252 m 0,0,1
 545 248 545 248 541 248 c 2,2,-1
 392 248 l 1,3,4
 364 167 364 167 364 114 c 128,-1,5
 364 61 364 61 381 -11 c 1,6,7
 381 -33 381 -33 346 -35 c 1,8,9
 315 -35 315 -35 315 21 c 128,-1,10
 315 77 315 77 367 248 c 1,11,-1
 254 249 l 2,12,13
 239 249 239 249 239 270 c 0,14,15
 239 276 239 276 245 278 c 128,-1,16
 251 280 251 280 297 280 c 128,-1,17
 343 280 343 280 377 279 c 1,18,19
 381 294 381 294 391 324 c 1,20,-1
 293 325 l 2,21,22
 278 325 278 325 278 346 c 0,23,24
 278 352 278 352 284 354 c 128,-1,25
 290 356 290 356 313 356 c 2,26,-1
 401 356 l 1,27,28
 456 536 456 536 456 593.5 c 128,-1,29
 456 651 456 651 402 682.5 c 128,-1,30
 348 714 348 714 278.5 714 c 128,-1,31
 209 714 209 714 161 690 c 128,-1,32
 113 666 113 666 113 626 c 0,33,34
 113 575 113 575 192 560 c 0,35,36
 225 553 225 553 258.5 544.5 c 128,-1,37
 292 536 292 536 315 513 c 128,-1,38
 338 490 338 490 338 450 c 0,39,40
 338 441 338 441 331 441 c 1,41,-1
 325 447 l 1,42,43
 301 494 301 494 215 514 c 0,44,45
 182 521 182 521 150 530 c 0,46,47
 78 550 78 550 78 612.5 c 128,-1,48
 78 675 78 675 139.5 707.5 c 128,-1,49
 201 740 201 740 287.5 740 c 128,-1,50
 374 740 374 740 438 704.5 c 128,-1,51
 502 669 502 669 502 604 c 0,52,53
 502 524 502 524 436 356 c 1,54,55
 482 396 482 396 545.5 457.5 c 128,-1,56
 609 519 609 519 648 554 c 128,-1,57
 687 589 687 589 736 626 c 1,58,59
 828 698 828 698 926 698 c 0,60,61
 932 698 932 698 937.5 690 c 128,-1,62
 943 682 943 682 943 673 c 128,-1,63
 943 664 943 664 935 659 c 128,-1,64
 927 654 927 654 915.5 647 c 128,-1,65
 904 640 904 640 895 634 c 0,66,67
 870 619 870 619 863.5 619 c 128,-1,68
 857 619 857 619 854.5 624 c 128,-1,69
 852 629 852 629 849 629 c 0,70,71
 778 629 778 629 670 542 c 1,72,73
 611 493 611 493 575 460.5 c 128,-1,74
 539 428 539 428 460 354 c 1,75,-1
 569 350 l 2,76,77
 584 349 584 349 584 328 c 0,78,79
 584 323 584 323 575 323 c 0,80,81
 495 323 495 323 426 324 c 1,82,-1
 420 318 l 1,83,-1
 403 279 l 1,84,-1
 530 274 l 2,85,86
 545 273 545 273 545 252 c 0,0,1
EndSplineSet
EndChar

StartChar: brokenbar
Encoding: 166 166 103
Width: 339
GlyphClass: 2
Flags: W
LayerCount: 2
Fore
SplineSet
51 -91 m 1,0,1
 117 33 117 33 222 313 c 0,2,3
 225 320 225 320 230.5 320 c 128,-1,4
 236 320 236 320 242 312.5 c 128,-1,5
 248 305 248 305 249 294 c 1,6,7
 164 62 164 62 87 -95 c 1,8,9
 76 -104 76 -104 65 -104 c 0,10,11
 51 -104 51 -104 51 -91 c 1,0,1
412 875 m 0,12,13
 419 875 419 875 419 867.5 c 128,-1,14
 419 860 419 860 418 857 c 0,15,16
 396 746 396 746 311 477 c 0,17,18
 306 461 306 461 299 461 c 0,19,20
 290 461 290 461 282 477 c 1,21,22
 372 734 372 734 395 855 c 0,23,24
 396 863 396 863 403 871 c 1,25,26
 409 875 409 875 412 875 c 0,12,13
EndSplineSet
EndChar

StartChar: section
Encoding: 167 167 104
Width: 596
GlyphClass: 2
Flags: W
LayerCount: 2
Fore
SplineSet
421 638 m 2,0,-1
 447 637 l 1,1,2
 594 637 594 637 594 678 c 0,3,4
 594 698 594 698 555.5 714 c 128,-1,5
 517 730 517 730 457 730 c 128,-1,6
 397 730 397 730 345 701.5 c 128,-1,7
 293 673 293 673 293 626 c 0,8,9
 293 565 293 565 388 492 c 0,10,11
 427 462 427 462 466.5 430.5 c 128,-1,12
 506 399 506 399 533.5 360 c 128,-1,13
 561 321 561 321 561 281 c 0,14,15
 561 214 561 214 500 147 c 1,16,17
 479 78 479 78 408 21 c 0,18,19
 371 -8 371 -8 316 -26 c 128,-1,20
 261 -44 261 -44 196 -44 c 0,21,22
 94 -44 94 -44 41 -7 c 128,-1,23
 -12 30 -12 30 -12 86 c 128,-1,24
 -12 142 -12 142 48.5 187.5 c 128,-1,25
 109 233 109 233 208 233 c 0,26,27
 259 233 259 233 290.5 209.5 c 128,-1,28
 322 186 322 186 322 139 c 0,29,30
 322 119 322 119 309 119 c 0,31,32
 299 119 299 119 296 130 c 0,33,34
 276 215 276 215 195.5 215 c 128,-1,35
 115 215 115 215 73 181 c 128,-1,36
 31 147 31 147 31 98.5 c 128,-1,37
 31 50 31 50 78 12.5 c 128,-1,38
 125 -25 125 -25 209 -25 c 0,39,40
 315 -25 315 -25 386.5 39.5 c 128,-1,41
 458 104 458 104 458 179 c 0,42,43
 458 218 458 218 431.5 259 c 128,-1,44
 405 300 405 300 367 334 c 128,-1,45
 329 368 329 368 291 400 c 0,46,47
 200 477 200 477 200 529.5 c 128,-1,48
 200 582 200 582 254 617 c 1,49,-1
 254 621 l 2,50,51
 254 682 254 682 320 717 c 128,-1,52
 386 752 386 752 463 752 c 128,-1,53
 540 752 540 752 578.5 732 c 128,-1,54
 617 712 617 712 617 682 c 128,-1,55
 617 652 617 652 571 628.5 c 128,-1,56
 525 605 525 605 445 605 c 0,57,58
 432 605 432 605 422 612 c 128,-1,59
 412 619 412 619 412 632 c 1,60,61
 414 638 414 638 421 638 c 2,0,-1
261 588 m 1,62,63
 239 564 239 564 239 533.5 c 128,-1,64
 239 503 239 503 263 471 c 128,-1,65
 287 439 287 439 322.5 410.5 c 128,-1,66
 358 382 358 382 395 353.5 c 128,-1,67
 432 325 432 325 462.5 289.5 c 128,-1,68
 493 254 493 254 502 220 c 1,69,70
 512 244 512 244 512 275 c 128,-1,71
 512 306 512 306 490.5 342.5 c 128,-1,72
 469 379 469 379 436 410.5 c 128,-1,73
 403 442 403 442 368 471 c 0,74,75
 282 543 282 543 261 588 c 1,62,63
EndSplineSet
EndChar

StartChar: dieresis
Encoding: 168 168 105
Width: 500
GlyphClass: 2
Flags: W
LayerCount: 2
Fore
SplineSet
234.5 296 m 128,-1,1
 240 290 240 290 240 279 c 128,-1,2
 240 268 240 268 225 251 c 128,-1,3
 210 234 210 234 199 234 c 128,-1,4
 188 234 188 234 183 240.5 c 128,-1,5
 178 247 178 247 178 255.5 c 128,-1,6
 178 264 178 264 194 283 c 128,-1,7
 210 302 210 302 219.5 302 c 128,-1,0
 229 302 229 302 234.5 296 c 128,-1,1
323.5 296 m 128,-1,9
 329 290 329 290 329 279 c 128,-1,10
 329 268 329 268 314 251 c 128,-1,11
 299 234 299 234 288 234 c 128,-1,12
 277 234 277 234 272 240.5 c 128,-1,13
 267 247 267 247 267 255.5 c 128,-1,14
 267 264 267 264 283 283 c 128,-1,15
 299 302 299 302 308.5 302 c 128,-1,8
 318 302 318 302 323.5 296 c 128,-1,9
EndSplineSet
EndChar

StartChar: copyright
Encoding: 169 169 106
Width: 407
GlyphClass: 2
Flags: W
LayerCount: 2
Fore
SplineSet
386 230 m 0,0,1
 386 142 386 142 316 65.5 c 128,-1,2
 246 -11 246 -11 158 -11 c 0,3,4
 99 -11 99 -11 70.5 17 c 128,-1,5
 42 45 42 45 42 92 c 0,6,7
 42 176 42 176 113 259.5 c 128,-1,8
 184 343 184 343 275 343 c 0,9,10
 307 343 307 343 342 323 c 0,11,12
 386 298 386 298 386 230 c 0,0,1
363 193 m 1,13,14
 310 147 310 147 246.5 106.5 c 128,-1,15
 183 66 183 66 136 66 c 0,16,17
 100 66 100 66 100 108 c 128,-1,18
 100 150 100 150 151.5 201 c 128,-1,19
 203 252 203 252 263 252 c 1,20,21
 288 250 288 250 289.5 245 c 128,-1,22
 291 240 291 240 291 234 c 128,-1,23
 291 228 291 228 275.5 209.5 c 128,-1,24
 260 191 260 191 248 191 c 1,25,26
 235 194 235 194 235 198 c 0,27,28
 235 203 235 203 242 210 c 0,29,30
 256 224 256 224 256 227 c 0,31,32
 256 233 256 233 246 233 c 0,33,34
 217 233 217 233 174 187.5 c 128,-1,35
 131 142 131 142 131 111 c 0,36,37
 131 88 131 88 162 88 c 0,38,39
 221 88 221 88 366 210 c 1,40,-1
 366 221 l 2,41,42
 366 298 366 298 295 317 c 0,43,44
 280 321 280 321 267 321 c 0,45,46
 188 321 188 321 126 249 c 128,-1,47
 64 177 64 177 64 103 c 0,48,49
 64 11 64 11 166 11 c 0,50,51
 233 11 233 11 292.5 67 c 128,-1,52
 352 123 352 123 363 193 c 1,13,14
EndSplineSet
EndChar

StartChar: ordfeminine
Encoding: 170 170 107
Width: 300
GlyphClass: 2
Flags: W
LayerCount: 2
Fore
SplineSet
206 496 m 1,0,-1
 211 518 l 2,1,2
 211 520 211 520 208.5 520 c 128,-1,3
 206 520 206 520 176.5 497 c 128,-1,4
 147 474 147 474 124 474 c 128,-1,5
 101 474 101 474 101 495 c 0,6,7
 101 539 101 539 174 604 c 128,-1,8
 247 669 247 669 323 669 c 0,9,10
 351 669 351 669 351 647 c 0,11,12
 351 632 351 632 326.5 607.5 c 128,-1,13
 302 583 302 583 284 583 c 0,14,15
 279 583 279 583 279 587.5 c 128,-1,16
 279 592 279 592 283 595 c 128,-1,17
 287 598 287 598 292 602.5 c 128,-1,18
 297 607 297 607 299.5 610 c 128,-1,19
 302 613 302 613 306 618 c 0,20,21
 313 627 313 627 313 638 c 128,-1,22
 313 649 313 649 292 651 c 1,23,24
 253 650 253 650 200 596 c 128,-1,25
 147 542 147 542 147 515 c 0,26,27
 147 505 147 505 158 505 c 128,-1,28
 169 505 169 505 186 520 c 1,29,30
 209 534 209 534 246 571 c 0,31,32
 256 581 256 581 267 581 c 128,-1,33
 278 581 278 581 278 570 c 0,34,35
 278 567 278 567 274 561 c 2,36,-1
 264 548 l 1,37,38
 239 519 239 519 239 505 c 128,-1,39
 239 491 239 491 254.5 491 c 128,-1,40
 270 491 270 491 319.5 523.5 c 128,-1,41
 369 556 369 556 410 589 c 2,42,-1
 451 622 l 2,43,44
 457 627 457 627 462 627 c 128,-1,45
 467 627 467 627 467 621 c 2,46,-1
 467 619 l 1,47,48
 390 557 390 557 323 512 c 128,-1,49
 256 467 256 467 233 467 c 0,50,51
 206 467 206 467 206 496 c 1,0,-1
54 419 m 1,52,53
 53 420 53 420 53 422 c 0,54,55
 53 439 53 439 88 439 c 128,-1,56
 123 439 123 439 155.5 440.5 c 128,-1,57
 188 442 188 442 215 444 c 128,-1,58
 242 446 242 446 264.5 448 c 128,-1,59
 287 450 287 450 301 451.5 c 128,-1,60
 315 453 315 453 316 453 c 0,61,62
 322 453 322 453 322 449 c 0,63,64
 322 443 322 443 311 435.5 c 128,-1,65
 300 428 300 428 285 427 c 0,66,67
 205 419 205 419 54 419 c 1,52,53
EndSplineSet
EndChar

StartChar: guillemotleft
Encoding: 171 171 108
Width: 566
GlyphClass: 2
Flags: W
LayerCount: 2
Fore
SplineSet
368.5 30 m 128,-1,1
 384 20 384 20 384 7 c 0,2,3
 384 -13 384 -13 370 -13 c 0,4,5
 366 -13 366 -13 366 -11 c 0,6,7
 366 5 366 5 317 30.5 c 128,-1,8
 268 56 268 56 219.5 79.5 c 128,-1,9
 171 103 171 103 172 116 c 1,10,11
 172 131 172 131 194 131 c 0,12,13
 265 131 265 131 333 145 c 128,-1,14
 401 159 401 159 414 180 c 0,15,16
 416 182 416 182 418 182 c 128,-1,17
 420 182 420 182 423 177 c 128,-1,18
 426 172 426 172 426 167 c 0,19,20
 425 143 425 143 350 126.5 c 128,-1,21
 275 110 275 110 252.5 110 c 128,-1,22
 230 110 230 110 230 108 c 0,23,24
 230 104 230 104 244 96 c 0,25,0
 353 40 353 40 368.5 30 c 128,-1,1
487 -2 m 0,26,27
 487 -7 487 -7 483 -10.5 c 128,-1,28
 479 -14 479 -14 475.5 -14 c 128,-1,29
 472 -14 472 -14 472 -12 c 0,30,31
 472 1 472 1 430.5 22.5 c 128,-1,32
 389 44 389 44 347.5 64.5 c 128,-1,33
 306 85 306 85 307 96 c 1,34,35
 307 108 307 108 326 108 c 0,36,37
 378 108 378 108 423 129 c 128,-1,38
 468 150 468 150 482 172 c 1,39,-1
 484 174 l 1,40,41
 486 174 486 174 489 169.5 c 128,-1,42
 492 165 492 165 492 161 c 0,43,44
 491 140 491 140 437.5 115 c 128,-1,45
 384 90 384 90 362 90 c 0,46,47
 356 90 356 90 356 87.5 c 128,-1,48
 356 85 356 85 401 62.5 c 128,-1,49
 446 40 446 40 466.5 27 c 128,-1,50
 487 14 487 14 487 -2 c 0,26,27
EndSplineSet
EndChar

StartChar: logicalnot
Encoding: 172 172 109
Width: 356
GlyphClass: 2
Flags: W
LayerCount: 2
Fore
SplineSet
362 297 m 0,0,1
 362 296 362 296 362 296 c 1,2,-1
 316 166 l 2,3,4
 314 159 314 159 308 159 c 128,-1,5
 302 159 302 159 296.5 164.5 c 128,-1,6
 291 170 291 170 291 177 c 1,7,8
 309 236 309 236 327 292 c 1,9,-1
 71 294 l 2,10,11
 56 294 56 294 56 315 c 0,12,13
 56 321 56 321 62 323 c 128,-1,14
 68 325 68 325 147.5 325 c 128,-1,15
 227 325 227 325 347 319 c 0,16,17
 362 318 362 318 362 297 c 0,0,1
EndSplineSet
EndChar

StartChar: registered
Encoding: 174 174 110
Width: 428
GlyphClass: 2
Flags: W
LayerCount: 2
Fore
SplineSet
468 268 m 0,0,1
 468 160 468 160 382.5 66 c 128,-1,2
 297 -28 297 -28 189 -28 c 0,3,4
 116 -28 116 -28 81 6.5 c 128,-1,5
 46 41 46 41 46 102.5 c 128,-1,6
 46 164 46 164 83.5 235 c 128,-1,7
 121 306 121 306 189 356 c 128,-1,8
 257 406 257 406 332 406 c 0,9,10
 372 406 372 406 414 382 c 0,11,12
 438 368 438 368 453 338.5 c 128,-1,13
 468 309 468 309 468 268 c 0,0,1
94.5 21.5 m 128,-1,15
 126 -11 126 -11 200 -11 c 128,-1,16
 274 -11 274 -11 345 49 c 1,17,18
 329 45 329 45 322 45 c 0,19,20
 297 45 297 45 282 65.5 c 128,-1,21
 267 86 267 86 263.5 106.5 c 128,-1,22
 260 127 260 127 257.5 162 c 128,-1,23
 255 197 255 197 254 202 c 1,24,25
 224 147 224 147 172.5 89 c 128,-1,26
 121 31 121 31 101 31 c 0,27,28
 91 31 91 31 91 39 c 0,29,30
 91 61 91 61 140.5 125.5 c 128,-1,31
 190 190 190 190 251 241 c 1,32,33
 255 252 255 252 255 264 c 0,34,35
 255 310 255 310 175 310 c 0,36,37
 160 310 160 310 149 303 c 1,38,39
 140 294 140 294 140 285.5 c 128,-1,40
 140 277 140 277 151 271 c 128,-1,41
 162 265 162 265 175 261.5 c 128,-1,42
 188 258 188 258 199 247.5 c 128,-1,43
 210 237 210 237 210 225 c 128,-1,44
 210 213 210 213 206.5 213 c 128,-1,45
 203 213 203 213 203 217 c 0,46,47
 203 237 203 237 166.5 250.5 c 128,-1,48
 130 264 130 264 128 278 c 1,49,50
 63 194 63 194 63 108 c 0,51,14
 63 54 63 54 94.5 21.5 c 128,-1,15
427.5 155.5 m 128,-1,53
 453 208 453 208 453 249.5 c 128,-1,54
 453 291 453 291 443 315.5 c 128,-1,55
 433 340 433 340 419 353.5 c 128,-1,56
 405 367 405 367 386 376 c 1,57,58
 344 388 344 388 325 389 c 1,59,60
 240 389 240 389 164 318 c 1,61,62
 174 320 174 320 180 320 c 0,63,64
 217 320 217 320 246 305.5 c 128,-1,65
 275 291 275 291 275 262 c 1,66,-1
 274 259 l 1,67,68
 349 315 349 315 404 315 c 0,69,70
 428 315 428 315 428 298 c 0,71,72
 428 271 428 271 381 228 c 128,-1,73
 334 185 334 185 300 185 c 1,74,-1
 269 188 l 1,75,76
 269 124 269 124 291 83 c 0,77,78
 306 55 306 55 331 55 c 0,79,80
 342 55 342 55 360 63 c 1,81,52
 402 103 402 103 427.5 155.5 c 128,-1,53
271 240 m 1,82,83
 269 233 269 233 263 219 c 1,84,-1
 269 219 l 1,85,86
 268 213 268 213 268 208 c 128,-1,87
 268 203 268 203 269 202 c 0,88,89
 281 193 281 193 294 193 c 0,90,91
 328 193 328 193 367.5 233.5 c 128,-1,92
 407 274 407 274 407 297 c 0,93,94
 407 306 407 306 398 306 c 0,95,96
 354 306 354 306 271 240 c 1,82,83
105 42 m 0,97,98
 119 42 119 42 169.5 103 c 128,-1,99
 220 164 220 164 243 217 c 1,100,101
 186 168 186 168 144 116.5 c 128,-1,102
 102 65 102 65 102 43 c 1,103,104
 104 42 104 42 105 42 c 0,97,98
EndSplineSet
EndChar

StartChar: macron
Encoding: 175 175 111
Width: 300
GlyphClass: 2
Flags: W
LayerCount: 2
Fore
SplineSet
397 284 m 0,0,1
 397 268 397 268 385 267 c 0,2,3
 299 263 299 263 201 263 c 0,4,5
 175 263 175 263 175 271 c 0,6,7
 175 286 175 286 187 286 c 2,8,-1
 390 286 l 2,9,10
 397 286 397 286 397 284 c 0,0,1
EndSplineSet
EndChar

StartChar: degree
Encoding: 176 176 112
Width: 349
GlyphClass: 2
Flags: W
LayerCount: 2
Fore
SplineSet
301 625 m 0,0,1
 301 593 301 593 268 557.5 c 128,-1,2
 235 522 235 522 188 522 c 0,3,4
 167 522 167 522 155 535 c 128,-1,5
 143 548 143 548 143 571.5 c 128,-1,6
 143 595 143 595 174.5 631.5 c 128,-1,7
 206 668 206 668 256 668 c 0,8,9
 277 668 277 668 289 656 c 128,-1,10
 301 644 301 644 301 625 c 0,0,1
274 614 m 0,11,12
 274 643 274 643 243.5 643 c 128,-1,13
 213 643 213 643 191.5 619 c 128,-1,14
 170 595 170 595 170 579 c 0,15,16
 170 547 170 547 202 547 c 0,17,18
 230 547 230 547 252 570.5 c 128,-1,19
 274 594 274 594 274 614 c 0,11,12
EndSplineSet
EndChar

StartChar: plusminus
Encoding: 177 177 113
Width: 356
GlyphClass: 2
Flags: W
LayerCount: 2
Fore
SplineSet
318 163 m 0,0,1
 318 158 318 158 309 158 c 2,2,-1
 27 160 l 2,3,4
 12 160 12 160 12 181 c 0,5,6
 12 187 12 187 18 189 c 128,-1,7
 24 191 24 191 103.5 191 c 128,-1,8
 183 191 183 191 303 185 c 0,9,10
 318 184 318 184 318 163 c 0,0,1
377 337 m 0,11,12
 377 333 377 333 373.5 333 c 128,-1,13
 370 333 370 333 368 334 c 1,14,-1
 228 334 l 1,15,-1
 196 244 l 2,16,17
 194 237 194 237 188 237 c 128,-1,18
 182 237 182 237 176.5 242.5 c 128,-1,19
 171 248 171 248 171 255 c 1,20,21
 193 327 193 327 195 334 c 1,22,-1
 86 334 l 2,23,24
 71 334 71 334 71 355 c 0,25,26
 71 361 71 361 77 363 c 128,-1,27
 83 365 83 365 127.5 365 c 128,-1,28
 172 365 172 365 205 364 c 1,29,30
 206 366 206 366 207.5 371 c 128,-1,31
 209 376 209 376 210 378 c 0,32,33
 236 452 236 452 243.5 452 c 128,-1,34
 251 452 251 452 256.5 446 c 128,-1,35
 262 440 262 440 262 433 c 1,36,-1
 238 364 l 1,37,-1
 362 359 l 2,38,39
 377 358 377 358 377 337 c 0,11,12
EndSplineSet
EndChar

StartChar: twosuperior
Encoding: 178 178 114
Width: 395
GlyphClass: 2
Flags: W
LayerCount: 2
Fore
SplineSet
312 608 m 0,0,1
 350 608 350 608 371.5 590 c 128,-1,2
 393 572 393 572 393 544 c 0,3,4
 393 491 393 491 336.5 405 c 128,-1,5
 280 319 280 319 204 243 c 1,6,7
 217 235 217 235 240 216 c 0,8,9
 287 179 287 179 315.5 179 c 128,-1,10
 344 179 344 179 381 201 c 0,11,12
 386 204 386 204 388.5 204 c 128,-1,13
 391 204 391 204 391 201 c 128,-1,14
 391 198 391 198 382.5 191 c 128,-1,15
 374 184 374 184 348.5 171.5 c 128,-1,16
 323 159 323 159 304 159 c 128,-1,17
 285 159 285 159 267.5 166 c 128,-1,18
 250 173 250 173 239.5 180 c 128,-1,19
 229 187 229 187 211 202 c 128,-1,20
 193 217 193 217 185 222 c 1,21,22
 149 188 149 188 112.5 168 c 128,-1,23
 76 148 76 148 54 148 c 0,24,25
 27 148 27 148 27 175 c 128,-1,26
 27 202 27 202 61.5 233 c 128,-1,27
 96 264 96 264 144 264 c 0,28,29
 162 264 162 264 180 256 c 1,30,31
 248 330 248 330 299.5 411.5 c 128,-1,32
 351 493 351 493 351 542.5 c 128,-1,33
 351 592 351 592 294 592 c 128,-1,34
 237 592 237 592 186.5 544 c 128,-1,35
 136 496 136 496 136 458 c 0,36,37
 136 430 136 430 169 430 c 0,38,39
 223 430 223 430 254 490 c 0,40,41
 259 498 259 498 266 513 c 0,42,43
 277 540 277 540 282.5 540 c 128,-1,44
 288 540 288 540 288 531 c 0,45,46
 288 499 288 499 251 458.5 c 128,-1,47
 214 418 214 418 160 418 c 128,-1,48
 106 418 106 418 106 460 c 0,49,50
 106 507 106 507 167 557.5 c 128,-1,51
 228 608 228 608 312 608 c 0,0,1
46 185 m 0,52,53
 46 167 46 167 71 167 c 128,-1,54
 96 167 96 167 162 236 c 1,55,56
 145 246 145 246 120 246 c 128,-1,57
 95 246 95 246 70.5 225.5 c 128,-1,58
 46 205 46 205 46 185 c 0,52,53
EndSplineSet
EndChar

StartChar: threesuperior
Encoding: 179 179 115
Width: 340
GlyphClass: 2
Flags: W
LayerCount: 2
Fore
SplineSet
261.5 372 m 128,-1,1
 250 383 250 383 220 383 c 128,-1,2
 190 383 190 383 152 364 c 1,3,4
 148 364 148 364 148 373 c 0,5,6
 148 378 148 378 164 385 c 0,7,8
 225 408 225 408 289 462.5 c 128,-1,9
 353 517 353 517 353 553 c 0,10,11
 353 592 353 592 303.5 592 c 128,-1,12
 254 592 254 592 205 561 c 128,-1,13
 156 530 156 530 156 491.5 c 128,-1,14
 156 453 156 453 175 453 c 0,15,16
 196 453 196 453 222 474.5 c 128,-1,17
 248 496 248 496 254 519 c 128,-1,18
 260 542 260 542 272 542 c 0,19,20
 278 542 278 542 278 533 c 0,21,22
 278 504 278 504 239 472.5 c 128,-1,23
 200 441 200 441 166 441 c 0,24,25
 128 441 128 441 128 488 c 128,-1,26
 128 535 128 535 190.5 573.5 c 128,-1,27
 253 612 253 612 316 612 c 0,28,29
 392 612 392 612 392 555 c 0,30,31
 392 524 392 524 348 482 c 128,-1,32
 304 440 304 440 209 393 c 1,33,-1
 236 395 l 1,34,35
 278 395 278 395 299 379 c 128,-1,36
 320 363 320 363 320 337 c 0,37,38
 320 293 320 293 271 239 c 128,-1,39
 222 185 222 185 157 157 c 1,40,41
 188 139 188 139 218 139 c 0,42,43
 227 139 227 139 227 130 c 128,-1,44
 227 121 227 121 205 121 c 128,-1,45
 183 121 183 121 142 152 c 1,46,47
 107 139 107 139 75.5 139 c 128,-1,48
 44 139 44 139 25.5 150.5 c 128,-1,49
 7 162 7 162 7 174 c 0,50,51
 7 198 7 198 45 198 c 0,52,53
 99 198 99 198 143 164 c 1,54,55
 199 188 199 188 236 239.5 c 128,-1,56
 273 291 273 291 273 326 c 128,-1,0
 273 361 273 361 261.5 372 c 128,-1,1
29 171 m 0,57,58
 29 163 29 163 44 156 c 128,-1,59
 59 149 59 149 79 149 c 128,-1,60
 99 149 99 149 131 159 c 1,61,62
 96 182 96 182 62.5 182 c 128,-1,63
 29 182 29 182 29 171 c 0,57,58
EndSplineSet
EndChar

StartChar: acute
Encoding: 180 180 116
Width: 328
GlyphClass: 2
Flags: W
LayerCount: 2
Fore
SplineSet
233 316 m 0,0,1
 233 299 233 299 193.5 278 c 128,-1,2
 154 257 154 257 112 242 c 1,3,4
 106 242 106 242 106 249.5 c 128,-1,5
 106 257 106 257 123.5 263 c 128,-1,6
 141 269 141 269 166.5 288 c 128,-1,7
 192 307 192 307 201 318 c 128,-1,8
 210 329 210 329 221.5 329 c 128,-1,9
 233 329 233 329 233 316 c 0,0,1
EndSplineSet
EndChar

StartChar: mu
Encoding: 181 181 117
Width: 289
GlyphClass: 2
Flags: W
LayerCount: 2
Fore
SplineSet
-29.5 5.5 m 128,-1,1
 7 52 7 52 61 119 c 128,-1,2
 115 186 115 186 135 186 c 0,3,4
 140 186 140 186 144.5 181.5 c 128,-1,5
 149 177 149 177 149 174 c 128,-1,6
 149 171 149 171 134 154 c 0,7,8
 84 97 84 97 55 59 c 1,9,10
 46 45 46 45 46 39 c 128,-1,11
 46 33 46 33 50 33 c 0,12,13
 69 33 69 33 132 84 c 128,-1,14
 195 135 195 135 221.5 163 c 128,-1,15
 248 191 248 191 263 191 c 128,-1,16
 278 191 278 191 278 178 c 0,17,18
 278 170 278 170 272 162 c 128,-1,19
 266 154 266 154 249.5 133.5 c 128,-1,20
 233 113 233 113 219 95 c 0,21,22
 180 45 180 45 180 32.5 c 128,-1,23
 180 20 180 20 190.5 20 c 128,-1,24
 201 20 201 20 242 48 c 0,25,26
 318 98 318 98 381 149 c 2,27,-1
 403 167 l 2,28,29
 410 172 410 172 415 172 c 128,-1,30
 420 172 420 172 420 166 c 2,31,-1
 420 163 l 1,32,33
 424 163 424 163 366.5 119 c 128,-1,34
 309 75 309 75 243.5 31 c 128,-1,35
 178 -13 178 -13 161 -13 c 0,36,37
 132 -13 132 -13 132 13 c 0,38,39
 132 28 132 28 146.5 52 c 128,-1,40
 161 76 161 76 162 80 c 128,-1,41
 163 84 163 84 160 84 c 128,-1,42
 157 84 157 84 154 81 c 128,-1,43
 151 78 151 78 128.5 61 c 128,-1,44
 106 44 106 44 71.5 24.5 c 128,-1,45
 37 5 37 5 22 5 c 128,-1,46
 7 5 7 5 2 10 c 1,47,48
 -52 -65 -52 -65 -104 -144 c 128,-1,49
 -156 -223 -156 -223 -158 -228 c 0,50,51
 -172 -254 -172 -254 -187 -254 c 0,52,53
 -197 -254 -197 -254 -197 -240 c 128,-1,54
 -197 -226 -197 -226 -176.5 -192 c 128,-1,55
 -156 -158 -156 -158 -111 -99.5 c 128,-1,0
 -66 -41 -66 -41 -29.5 5.5 c 128,-1,1
EndSplineSet
EndChar

StartChar: paragraph
Encoding: 182 182 118
Width: 647
GlyphClass: 2
Flags: W
LayerCount: 2
Fore
SplineSet
458 484 m 0,0,1
 545 484 545 484 555 429 c 1,2,3
 638 425 638 425 638 363 c 0,4,5
 638 314 638 314 593 239 c 128,-1,6
 548 164 548 164 456 40 c 128,-1,7
 364 -84 364 -84 266.5 -200.5 c 128,-1,8
 169 -317 169 -317 156 -317 c 0,9,10
 139 -317 139 -317 139 -293 c 0,11,12
 139 -280 139 -280 146 -261 c 128,-1,13
 153 -242 153 -242 165 -242 c 0,14,15
 169 -242 169 -242 170 -250.5 c 128,-1,16
 171 -259 171 -259 173 -259 c 0,17,18
 196 -259 196 -259 423 49 c 0,19,20
 504 158 504 158 548.5 232 c 128,-1,21
 593 306 593 306 593 348 c 128,-1,22
 593 390 593 390 554 402 c 1,23,24
 536 318 536 318 355 68 c 0,25,26
 256 -68 256 -68 157.5 -185.5 c 128,-1,27
 59 -303 59 -303 45 -303 c 0,28,29
 28 -303 28 -303 28 -279 c 0,30,31
 28 -266 28 -266 35 -247 c 128,-1,32
 42 -228 42 -228 54 -228 c 0,33,34
 58 -228 58 -228 59 -236.5 c 128,-1,35
 60 -245 60 -245 62 -245 c 0,36,37
 74 -245 74 -245 148.5 -152.5 c 128,-1,38
 223 -60 223 -60 303 50.5 c 128,-1,39
 383 161 383 161 414.5 206.5 c 128,-1,40
 446 252 446 252 478 313.5 c 128,-1,41
 510 375 510 375 510 411 c 0,42,43
 510 419 510 419 509 423 c 1,44,45
 422 229 422 229 234 229 c 0,46,47
 152 229 152 229 152 280 c 0,48,49
 152 308 152 308 178.5 343 c 128,-1,50
 205 378 205 378 246 409.5 c 128,-1,51
 287 441 287 441 344.5 462.5 c 128,-1,52
 402 484 402 484 458 484 c 0,0,1
EndSplineSet
EndChar

StartChar: periodcentered
Encoding: 183 183 119
Width: 308
GlyphClass: 2
Flags: W
LayerCount: 2
Fore
SplineSet
228.5 117 m 128,-1,1
 234 111 234 111 234 100 c 128,-1,2
 234 89 234 89 219 72 c 128,-1,3
 204 55 204 55 193 55 c 128,-1,4
 182 55 182 55 177 61.5 c 128,-1,5
 172 68 172 68 172 76.5 c 128,-1,6
 172 85 172 85 188 104 c 128,-1,7
 204 123 204 123 213.5 123 c 128,-1,0
 223 123 223 123 228.5 117 c 128,-1,1
EndSplineSet
EndChar

StartChar: cedilla
Encoding: 184 184 120
Width: 291
GlyphClass: 2
Flags: W
LayerCount: 2
Fore
SplineSet
107 -77 m 0,0,1
 99 -77 99 -77 94 -73 c 128,-1,2
 89 -69 89 -69 89 -65 c 0,3,4
 89 -58 89 -58 99 -58 c 0,5,6
 158 -58 158 -58 198.5 -77 c 128,-1,7
 239 -96 239 -96 239 -133 c 0,8,9
 239 -157 239 -157 223 -173 c 128,-1,10
 207 -189 207 -189 189.5 -195 c 128,-1,11
 172 -201 172 -201 143 -208.5 c 128,-1,12
 114 -216 114 -216 104.5 -219.5 c 128,-1,13
 95 -223 95 -223 87.5 -233 c 128,-1,14
 80 -243 80 -243 77.5 -243 c 128,-1,15
 75 -243 75 -243 75 -236 c 0,16,17
 75 -207 75 -207 97 -193 c 128,-1,18
 119 -179 119 -179 146 -176.5 c 128,-1,19
 173 -174 173 -174 195 -162.5 c 128,-1,20
 217 -151 217 -151 217 -129 c 0,21,22
 217 -77 217 -77 107 -77 c 0,0,1
EndSplineSet
EndChar

StartChar: onesuperior
Encoding: 185 185 121
Width: 289
GlyphClass: 2
Flags: W
LayerCount: 2
Fore
SplineSet
60 144 m 0,0,1
 60 182 60 182 118.5 311 c 128,-1,2
 177 440 177 440 246 517 c 1,3,4
 191 502 191 502 168 478 c 0,5,6
 160 469 160 469 151 469 c 128,-1,7
 142 469 142 469 142 476 c 0,8,9
 142 502 142 502 212 521 c 0,10,11
 227 525 227 525 259 533 c 1,12,13
 317 593 317 593 374 593 c 0,14,15
 395 593 395 593 395 583 c 128,-1,16
 395 573 395 573 380 562 c 0,17,18
 354 542 354 542 284 526 c 1,19,20
 228 465 228 465 173 359 c 128,-1,21
 118 253 118 253 97 173 c 1,22,23
 90 151 90 151 88.5 133 c 128,-1,24
 87 115 87 115 84 115 c 0,25,26
 76 115 76 115 68 125.5 c 128,-1,27
 60 136 60 136 60 144 c 0,0,1
296 542 m 1,28,29
 375 563 375 563 375 577 c 0,30,31
 375 581 375 581 367 581 c 0,32,33
 338 581 338 581 296 542 c 1,28,29
EndSplineSet
EndChar

StartChar: ordmasculine
Encoding: 186 186 122
Width: 231
GlyphClass: 2
Flags: W
LayerCount: 2
Fore
SplineSet
248 534 m 0,0,1
 295 534 295 534 362 587 c 1,2,-1
 376 583 l 1,3,4
 293 513 293 513 232 513 c 0,5,6
 225 513 225 513 222 514 c 1,7,8
 199 486 199 486 171.5 468.5 c 128,-1,9
 144 451 144 451 124 451 c 0,10,11
 92 451 92 451 92 488 c 128,-1,12
 92 525 92 525 152 583 c 1,13,14
 142 606 142 606 142 634.5 c 128,-1,15
 142 663 142 663 161.5 680 c 128,-1,16
 181 697 181 697 207 697 c 128,-1,17
 233 697 233 697 251 680 c 128,-1,18
 269 663 269 663 269 623 c 128,-1,19
 269 583 269 583 238 535 c 1,20,21
 241 534 241 534 248 534 c 0,0,1
221 543 m 1,22,23
 247 586 247 586 247 617 c 128,-1,24
 247 648 247 648 231.5 663 c 128,-1,25
 216 678 216 678 199 678 c 0,26,27
 172 678 172 678 172 647 c 128,-1,28
 172 616 172 616 186 586.5 c 128,-1,29
 200 557 200 557 221 543 c 1,22,23
24 405 m 1,30,31
 23 406 23 406 23 408 c 0,32,33
 23 425 23 425 58 425 c 128,-1,34
 93 425 93 425 125.5 426.5 c 128,-1,35
 158 428 158 428 185 430 c 128,-1,36
 212 432 212 432 234.5 434 c 128,-1,37
 257 436 257 436 271 437.5 c 128,-1,38
 285 439 285 439 286 439 c 0,39,40
 292 439 292 439 292 435 c 0,41,42
 292 429 292 429 281 421.5 c 128,-1,43
 270 414 270 414 255 413 c 0,44,45
 175 405 175 405 24 405 c 1,30,31
127 492 m 0,46,47
 127 475 127 475 149.5 475 c 128,-1,48
 172 475 172 475 205 520 c 1,49,50
 182 531 182 531 164 561 c 1,51,52
 127 520 127 520 127 492 c 0,46,47
EndSplineSet
EndChar

StartChar: guillemotright
Encoding: 187 187 123
Width: 553
GlyphClass: 2
Flags: W
LayerCount: 2
Fore
SplineSet
260.5 140 m 128,-1,1
 245 150 245 150 245 163 c 0,2,3
 245 183 245 183 259 183 c 0,4,5
 263 183 263 183 263 181 c 0,6,7
 263 165 263 165 312 139.5 c 128,-1,8
 361 114 361 114 409.5 90.5 c 128,-1,9
 458 67 458 67 457 54 c 1,10,11
 457 39 457 39 435 39 c 0,12,13
 364 39 364 39 296 25 c 128,-1,14
 228 11 228 11 215 -10 c 0,15,16
 213 -12 213 -12 211 -12 c 128,-1,17
 209 -12 209 -12 206 -7 c 128,-1,18
 203 -2 203 -2 203 3 c 0,19,20
 204 27 204 27 279 43.5 c 128,-1,21
 354 60 354 60 376.5 60 c 128,-1,22
 399 60 399 60 399 62 c 0,23,24
 399 66 399 66 385 74 c 0,25,0
 276 130 276 130 260.5 140 c 128,-1,1
142 172 m 0,26,27
 142 177 142 177 146 180.5 c 128,-1,28
 150 184 150 184 153.5 184 c 128,-1,29
 157 184 157 184 157 182 c 0,30,31
 157 169 157 169 198.5 147.5 c 128,-1,32
 240 126 240 126 281.5 105.5 c 128,-1,33
 323 85 323 85 322 74 c 1,34,35
 322 62 322 62 303 62 c 0,36,37
 251 62 251 62 206 41 c 128,-1,38
 161 20 161 20 147 -2 c 1,39,-1
 145 -4 l 1,40,41
 143 -4 143 -4 140 0.5 c 128,-1,42
 137 5 137 5 137 9 c 0,43,44
 138 30 138 30 191.5 55 c 128,-1,45
 245 80 245 80 267 80 c 0,46,47
 273 80 273 80 273 82.5 c 128,-1,48
 273 85 273 85 228 107.5 c 128,-1,49
 183 130 183 130 162.5 143 c 128,-1,50
 142 156 142 156 142 172 c 0,26,27
EndSplineSet
EndChar

StartChar: onequarter
Encoding: 188 188 124
Width: 762
GlyphClass: 2
Flags: W
LayerCount: 2
Fore
SplineSet
60 144 m 0,0,1
 60 182 60 182 118.5 311 c 128,-1,2
 177 440 177 440 246 517 c 1,3,4
 191 502 191 502 168 478 c 0,5,6
 160 469 160 469 151 469 c 128,-1,7
 142 469 142 469 142 476 c 0,8,9
 142 502 142 502 212 521 c 0,10,11
 227 525 227 525 259 533 c 1,12,13
 317 593 317 593 374 593 c 0,14,15
 395 593 395 593 395 583 c 128,-1,16
 395 573 395 573 380 562 c 0,17,18
 354 542 354 542 284 526 c 1,19,20
 228 465 228 465 173 359 c 128,-1,21
 118 253 118 253 97 173 c 1,22,23
 90 151 90 151 88.5 133 c 128,-1,24
 87 115 87 115 84 115 c 0,25,26
 76 115 76 115 68 125.5 c 128,-1,27
 60 136 60 136 60 144 c 0,0,1
296 542 m 1,28,29
 375 563 375 563 375 577 c 0,30,31
 375 581 375 581 367 581 c 0,32,33
 338 581 338 581 296 542 c 1,28,29
563 704 m 0,34,35
 479 581 479 581 361.5 321 c 128,-1,36
 244 61 244 61 201 -86 c 1,37,38
 197 -90 197 -90 191.5 -90 c 128,-1,39
 186 -90 186 -90 180.5 -83.5 c 128,-1,40
 175 -77 175 -77 173 -64 c 1,41,42
 242 144 242 144 350 366.5 c 128,-1,43
 458 589 458 589 548 722 c 0,44,45
 555 732 555 732 560 732 c 0,46,47
 568 732 568 732 568 721 c 128,-1,48
 568 710 568 710 563 704 c 0,34,35
676 404 m 2,49,-1
 675 397 l 1,50,51
 606 263 606 263 567 162 c 1,52,53
 636 178 636 178 657.5 178 c 128,-1,54
 679 178 679 178 701 169 c 128,-1,55
 723 160 723 160 723 150 c 0,56,57
 723 142 723 142 713 142 c 0,58,59
 709 142 709 142 681.5 150.5 c 128,-1,60
 654 159 654 159 634 159 c 128,-1,61
 614 159 614 159 564 150 c 1,62,63
 534 69 534 69 533 34 c 0,64,65
 532 25 532 25 525 25 c 0,66,67
 516 25 516 25 511 32.5 c 128,-1,68
 506 40 506 40 506 45 c 0,69,70
 506 71 506 71 532 144 c 1,71,72
 478 130 478 130 443 130 c 0,73,74
 387 130 387 130 387 180.5 c 128,-1,75
 387 231 387 231 439 308.5 c 128,-1,76
 491 386 491 386 570 446.5 c 128,-1,77
 649 507 649 507 714 507 c 0,78,79
 760 507 760 507 760 482 c 0,80,81
 760 463 760 463 737 439.5 c 128,-1,82
 714 416 714 416 700 416 c 0,83,84
 696 416 696 416 696 421 c 128,-1,85
 696 426 696 426 704 429.5 c 128,-1,86
 712 433 712 433 722.5 446.5 c 128,-1,87
 733 460 733 460 733 471 c 0,88,89
 733 489 733 489 688.5 489 c 128,-1,90
 644 489 644 489 580 434.5 c 128,-1,91
 516 380 516 380 471 309 c 128,-1,92
 426 238 426 238 426 192 c 0,93,94
 426 170 426 170 436 159.5 c 128,-1,95
 446 149 446 149 465 149 c 128,-1,96
 484 149 484 149 536 157 c 1,97,98
 580 264 580 264 634 368 c 2,99,-1
 653 405 l 1,100,101
 660 410 660 410 672 410 c 0,102,103
 676 410 676 410 676 404 c 2,49,-1
EndSplineSet
EndChar

StartChar: onehalf
Encoding: 189 189 125
Width: 762
GlyphClass: 2
Flags: W
LayerCount: 2
Fore
SplineSet
60 144 m 0,0,1
 60 182 60 182 118.5 311 c 128,-1,2
 177 440 177 440 246 517 c 1,3,4
 191 502 191 502 168 478 c 0,5,6
 160 469 160 469 151 469 c 128,-1,7
 142 469 142 469 142 476 c 0,8,9
 142 502 142 502 212 521 c 0,10,11
 227 525 227 525 259 533 c 1,12,13
 317 593 317 593 374 593 c 0,14,15
 395 593 395 593 395 583 c 128,-1,16
 395 573 395 573 380 562 c 0,17,18
 354 542 354 542 284 526 c 1,19,20
 228 465 228 465 173 359 c 128,-1,21
 118 253 118 253 97 173 c 1,22,23
 90 151 90 151 88.5 133 c 128,-1,24
 87 115 87 115 84 115 c 0,25,26
 76 115 76 115 68 125.5 c 128,-1,27
 60 136 60 136 60 144 c 0,0,1
296 542 m 1,28,29
 375 563 375 563 375 577 c 0,30,31
 375 581 375 581 367 581 c 0,32,33
 338 581 338 581 296 542 c 1,28,29
651 492 m 0,34,35
 689 492 689 492 710.5 474 c 128,-1,36
 732 456 732 456 732 428 c 0,37,38
 732 375 732 375 675.5 289 c 128,-1,39
 619 203 619 203 543 127 c 1,40,41
 556 119 556 119 579 100 c 0,42,43
 626 63 626 63 654.5 63 c 128,-1,44
 683 63 683 63 720 85 c 0,45,46
 724 88 724 88 727 88 c 128,-1,47
 730 88 730 88 730 85 c 128,-1,48
 730 82 730 82 721.5 75 c 128,-1,49
 713 68 713 68 687.5 55.5 c 128,-1,50
 662 43 662 43 643 43 c 128,-1,51
 624 43 624 43 606.5 50 c 128,-1,52
 589 57 589 57 578.5 64 c 128,-1,53
 568 71 568 71 550 86 c 128,-1,54
 532 101 532 101 524 106 c 1,55,56
 488 72 488 72 451.5 52 c 128,-1,57
 415 32 415 32 393 32 c 0,58,59
 366 32 366 32 366 59 c 128,-1,60
 366 86 366 86 400.5 117 c 128,-1,61
 435 148 435 148 483 148 c 0,62,63
 501 148 501 148 519 140 c 1,64,65
 587 214 587 214 638.5 295.5 c 128,-1,66
 690 377 690 377 690 426.5 c 128,-1,67
 690 476 690 476 633 476 c 128,-1,68
 576 476 576 476 525.5 428 c 128,-1,69
 475 380 475 380 475 342 c 0,70,71
 475 314 475 314 508 314 c 0,72,73
 562 314 562 314 593 374 c 0,74,75
 598 382 598 382 604 397 c 0,76,77
 616 424 616 424 622 424 c 0,78,79
 627 424 627 424 627 415 c 0,80,81
 627 383 627 383 590 342.5 c 128,-1,82
 553 302 553 302 499 302 c 128,-1,83
 445 302 445 302 445 344 c 0,84,85
 445 391 445 391 506 441.5 c 128,-1,86
 567 492 567 492 651 492 c 0,34,35
385 69 m 0,87,88
 385 51 385 51 410 51 c 128,-1,89
 435 51 435 51 501 120 c 1,90,91
 484 130 484 130 459 130 c 128,-1,92
 434 130 434 130 409.5 109.5 c 128,-1,93
 385 89 385 89 385 69 c 0,87,88
563 704 m 0,94,95
 479 581 479 581 361.5 321 c 128,-1,96
 244 61 244 61 201 -86 c 1,97,98
 197 -90 197 -90 191.5 -90 c 128,-1,99
 186 -90 186 -90 180.5 -83.5 c 128,-1,100
 175 -77 175 -77 173 -64 c 1,101,102
 242 144 242 144 350 366.5 c 128,-1,103
 458 589 458 589 548 722 c 0,104,105
 555 732 555 732 560 732 c 0,106,107
 568 732 568 732 568 721 c 128,-1,108
 568 710 568 710 563 704 c 0,94,95
EndSplineSet
EndChar

StartChar: threequarters
Encoding: 190 190 126
Width: 817
GlyphClass: 2
Flags: W
LayerCount: 2
Fore
SplineSet
600 704 m 0,0,1
 516 581 516 581 398.5 321 c 128,-1,2
 281 61 281 61 238 -86 c 1,3,4
 234 -90 234 -90 228.5 -90 c 128,-1,5
 223 -90 223 -90 217.5 -83.5 c 128,-1,6
 212 -77 212 -77 210 -64 c 1,7,8
 279 144 279 144 387 366.5 c 128,-1,9
 495 589 495 589 585 722 c 0,10,11
 592 732 592 732 597 732 c 0,12,13
 605 732 605 732 605 721 c 128,-1,14
 605 710 605 710 600 704 c 0,0,1
713 404 m 2,15,-1
 712 397 l 1,16,17
 643 263 643 263 604 162 c 1,18,19
 673 178 673 178 694.5 178 c 128,-1,20
 716 178 716 178 738 169 c 128,-1,21
 760 160 760 160 760 150 c 0,22,23
 760 142 760 142 750 142 c 0,24,25
 746 142 746 142 718.5 150.5 c 128,-1,26
 691 159 691 159 670.5 159 c 128,-1,27
 650 159 650 159 601 150 c 1,28,29
 571 69 571 69 570 34 c 0,30,31
 569 25 569 25 562 25 c 0,32,33
 553 25 553 25 548 32.5 c 128,-1,34
 543 40 543 40 543 45 c 0,35,36
 543 71 543 71 569 144 c 1,37,38
 515 130 515 130 480 130 c 0,39,40
 424 130 424 130 424 180.5 c 128,-1,41
 424 231 424 231 476 308.5 c 128,-1,42
 528 386 528 386 607 446.5 c 128,-1,43
 686 507 686 507 751 507 c 0,44,45
 797 507 797 507 797 482 c 0,46,47
 797 463 797 463 774 439.5 c 128,-1,48
 751 416 751 416 737 416 c 0,49,50
 733 416 733 416 733 421 c 128,-1,51
 733 426 733 426 741 429.5 c 128,-1,52
 749 433 749 433 759.5 446.5 c 128,-1,53
 770 460 770 460 770 471 c 0,54,55
 770 489 770 489 725.5 489 c 128,-1,56
 681 489 681 489 617 434.5 c 128,-1,57
 553 380 553 380 508 309 c 128,-1,58
 463 238 463 238 463 192 c 0,59,60
 463 170 463 170 473 159.5 c 128,-1,61
 483 149 483 149 502 149 c 128,-1,62
 521 149 521 149 573 157 c 1,63,64
 617 264 617 264 670 368 c 1,65,-1
 690 405 l 1,66,67
 697 410 697 410 709 410 c 0,68,69
 713 410 713 410 713 404 c 2,15,-1
209 393 m 1,70,71
 304 440 304 440 348 482 c 128,-1,72
 392 524 392 524 392 555 c 0,73,74
 392 612 392 612 316 612 c 0,75,76
 253 612 253 612 190.5 573.5 c 128,-1,77
 128 535 128 535 128 488 c 128,-1,78
 128 441 128 441 166 441 c 0,79,80
 200 441 200 441 239 472.5 c 128,-1,81
 278 504 278 504 278 533 c 0,82,83
 278 542 278 542 272 542 c 0,84,85
 260 542 260 542 254 519 c 128,-1,86
 248 496 248 496 222 474.5 c 128,-1,87
 196 453 196 453 175 453 c 0,88,89
 156 453 156 453 156 491.5 c 128,-1,90
 156 530 156 530 205 561 c 128,-1,91
 254 592 254 592 303.5 592 c 128,-1,92
 353 592 353 592 353 553 c 0,93,94
 353 517 353 517 289 462.5 c 128,-1,95
 225 408 225 408 164 385 c 0,96,97
 148 378 148 378 148 373 c 0,98,99
 148 364 148 364 150.5 364 c 128,-1,100
 153 364 153 364 154 365 c 0,101,102
 186 383 186 383 218 383 c 128,-1,103
 250 383 250 383 261.5 372 c 128,-1,104
 273 361 273 361 273 326 c 128,-1,105
 273 291 273 291 236 239.5 c 128,-1,106
 199 188 199 188 143 164 c 1,107,108
 99 198 99 198 45 198 c 0,109,110
 27 198 27 198 17 191.5 c 128,-1,111
 7 185 7 185 7 173.5 c 128,-1,112
 7 162 7 162 25.5 150.5 c 128,-1,113
 44 139 44 139 75.5 139 c 128,-1,114
 107 139 107 139 142 152 c 1,115,116
 183 121 183 121 205 121 c 128,-1,117
 227 121 227 121 227 130 c 128,-1,118
 227 139 227 139 218 139 c 0,119,120
 188 139 188 139 157 157 c 1,121,122
 222 185 222 185 271 239 c 128,-1,123
 320 293 320 293 320 337 c 0,124,125
 320 363 320 363 299 379 c 128,-1,126
 278 395 278 395 236 395 c 0,127,128
 235 395 235 395 223.5 394 c 128,-1,129
 212 393 212 393 209 393 c 1,70,71
29 171 m 0,130,131
 29 182 29 182 62.5 182 c 128,-1,132
 96 182 96 182 131 159 c 1,133,134
 99 149 99 149 79 149 c 128,-1,135
 59 149 59 149 44 156 c 128,-1,136
 29 163 29 163 29 171 c 0,130,131
EndSplineSet
EndChar

StartChar: questiondown
Encoding: 191 191 127
Width: 415
GlyphClass: 2
Flags: W
LayerCount: 2
Fore
SplineSet
331 206 m 128,-1,1
 312 221 312 221 284 221 c 128,-1,2
 256 221 256 221 256 210 c 0,3,4
 256 204 256 204 263 197 c 128,-1,5
 270 190 270 190 274 190 c 2,6,-1
 302 192 l 1,7,8
 324 192 324 192 324 168 c 0,9,10
 324 131 324 131 295.5 96 c 128,-1,11
 267 61 267 61 224.5 33.5 c 128,-1,12
 182 6 182 6 132 -31 c 128,-1,13
 82 -68 82 -68 39.5 -106 c 128,-1,14
 -3 -144 -3 -144 -31.5 -202 c 128,-1,15
 -60 -260 -60 -260 -60 -319 c 128,-1,16
 -60 -378 -60 -378 -25 -402.5 c 128,-1,17
 10 -427 10 -427 74 -427 c 128,-1,18
 138 -427 138 -427 216 -396 c 128,-1,19
 294 -365 294 -365 350.5 -309 c 128,-1,20
 407 -253 407 -253 407 -192 c 0,21,22
 407 -160 407 -160 385 -141 c 128,-1,23
 363 -122 363 -122 318 -122 c 0,24,25
 227 -122 227 -122 165.5 -189 c 128,-1,26
 104 -256 104 -256 104 -310 c 0,27,28
 104 -325 104 -325 113 -325 c 0,29,30
 118 -325 118 -325 124 -315 c 128,-1,31
 130 -305 130 -305 142 -280.5 c 128,-1,32
 154 -256 154 -256 161 -242 c 0,33,34
 214 -142 214 -142 303 -142 c 0,35,36
 373 -142 373 -142 373 -198 c 0,37,38
 373 -251 373 -251 327.5 -299.5 c 128,-1,39
 282 -348 282 -348 218.5 -375.5 c 128,-1,40
 155 -403 155 -403 102 -403 c 0,41,42
 -9 -403 -9 -403 -9 -310 c 0,43,44
 -9 -250 -9 -250 17.5 -197 c 128,-1,45
 44 -144 44 -144 84 -107.5 c 128,-1,46
 124 -71 124 -71 170.5 -34 c 128,-1,47
 217 3 217 3 257 32 c 128,-1,48
 297 61 297 61 323.5 97 c 128,-1,49
 350 133 350 133 350 162 c 128,-1,0
 350 191 350 191 331 206 c 128,-1,1
353.5 256 m 128,-1,51
 348 262 348 262 348 273 c 128,-1,52
 348 284 348 284 363 301 c 128,-1,53
 378 318 378 318 389 318 c 128,-1,54
 400 318 400 318 405 311.5 c 128,-1,55
 410 305 410 305 410 296.5 c 128,-1,56
 410 288 410 288 394 269 c 128,-1,57
 378 250 378 250 368.5 250 c 128,-1,50
 359 250 359 250 353.5 256 c 128,-1,51
EndSplineSet
EndChar

StartChar: Agrave
Encoding: 192 192 128
Width: 800
GlyphClass: 2
Flags: W
LayerCount: 2
Fore
SplineSet
816 819 m 0,0,1
 816 832 816 832 828 832 c 128,-1,2
 840 832 840 832 848.5 821 c 128,-1,3
 857 810 857 810 882.5 791 c 128,-1,4
 908 772 908 772 933 763 c 0,5,6
 943 760 943 760 943 752.5 c 128,-1,7
 943 745 943 745 937 745 c 1,8,9
 853 775 853 775 826 802 c 0,10,11
 816 812 816 812 816 819 c 0,0,1
133 274 m 0,12,13
 133 249 133 249 224 226 c 1,14,15
 276 214 276 214 350 206 c 1,16,17
 257 289 257 289 166 289 c 0,18,19
 133 289 133 289 133 274 c 0,12,13
529 7 m 0,20,21
 550 7 550 7 633 172 c 1,22,23
 521 170 521 170 493.5 170 c 128,-1,24
 466 170 466 170 416 172 c 1,25,26
 475 101 475 101 512 21 c 0,27,28
 518 7 518 7 529 7 c 0,20,21
842 684 m 0,29,30
 809 684 809 684 754 613.5 c 128,-1,31
 699 543 699 543 608.5 414 c 128,-1,32
 518 285 518 285 440 200 c 1,33,34
 510 198 510 198 562.5 198 c 128,-1,35
 615 198 615 198 647 200 c 1,36,37
 718 340 718 340 785.5 496 c 128,-1,38
 853 652 853 652 853 675 c 0,39,40
 853 684 853 684 842 684 c 0,29,30
701 202 m 1,41,-1
 909 217 l 2,42,43
 917 217 917 217 917 209 c 128,-1,44
 917 201 917 201 903.5 192 c 128,-1,45
 890 183 890 183 851 180 c 128,-1,46
 812 177 812 177 686 174 c 1,47,48
 584 -25 584 -25 542 -25 c 0,49,50
 514 -25 514 -25 502 0 c 0,51,52
 458 89 458 89 399 156 c 1,53,-1
 370 128 l 1,54,55
 222 -10 222 -10 25 -10 c 0,56,57
 -25 -10 -25 -10 -62.5 -2.5 c 128,-1,58
 -100 5 -100 5 -100 18 c 0,59,60
 -100 27 -100 27 -89 27 c 0,61,62
 -82 27 -82 27 -72 23 c 0,63,64
 -42 11 -42 11 41 11 c 0,65,66
 190 11 190 11 323 128 c 1,67,68
 371 173 371 173 372 174 c 1,69,70
 278 181 278 181 214 199 c 0,71,72
 100 231 100 231 100 275 c 0,73,74
 100 290 100 290 116.5 300 c 128,-1,75
 133 310 133 310 160 310 c 0,76,77
 279 310 279 310 386 203 c 1,78,79
 395 203 395 203 399 202 c 1,80,81
 488 298 488 298 616 474 c 0,82,83
 661 535 661 535 706 592 c 0,84,85
 800 710 800 710 860 710 c 0,86,87
 899 710 899 710 899 676 c 0,88,89
 899 653 899 653 834.5 496.5 c 128,-1,90
 770 340 770 340 701 202 c 1,41,-1
EndSplineSet
EndChar

StartChar: Aacute
Encoding: 193 193 129
Width: 800
GlyphClass: 2
Flags: W
LayerCount: 2
Fore
SplineSet
962 814 m 0,0,1
 962 797 962 797 922.5 776 c 128,-1,2
 883 755 883 755 841 740 c 1,3,4
 835 740 835 740 835 747.5 c 128,-1,5
 835 755 835 755 852.5 761 c 128,-1,6
 870 767 870 767 895.5 786 c 128,-1,7
 921 805 921 805 930 816 c 128,-1,8
 939 827 939 827 950.5 827 c 128,-1,9
 962 827 962 827 962 814 c 0,0,1
133 274 m 0,10,11
 133 249 133 249 224 226 c 1,12,13
 276 214 276 214 350 206 c 1,14,15
 257 289 257 289 166 289 c 0,16,17
 133 289 133 289 133 274 c 0,10,11
529 7 m 0,18,19
 550 7 550 7 633 172 c 1,20,21
 521 170 521 170 493.5 170 c 128,-1,22
 466 170 466 170 416 172 c 1,23,24
 475 101 475 101 512 21 c 0,25,26
 518 7 518 7 529 7 c 0,18,19
842 684 m 0,27,28
 809 684 809 684 754 613.5 c 128,-1,29
 699 543 699 543 608.5 414 c 128,-1,30
 518 285 518 285 440 200 c 1,31,32
 510 198 510 198 562.5 198 c 128,-1,33
 615 198 615 198 647 200 c 1,34,35
 718 340 718 340 785.5 496 c 128,-1,36
 853 652 853 652 853 675 c 0,37,38
 853 684 853 684 842 684 c 0,27,28
701 202 m 1,39,-1
 909 217 l 2,40,41
 917 217 917 217 917 209 c 128,-1,42
 917 201 917 201 903.5 192 c 128,-1,43
 890 183 890 183 851 180 c 128,-1,44
 812 177 812 177 686 174 c 1,45,46
 584 -25 584 -25 542 -25 c 0,47,48
 514 -25 514 -25 502 0 c 0,49,50
 458 89 458 89 399 156 c 1,51,-1
 370 128 l 1,52,53
 222 -10 222 -10 25 -10 c 0,54,55
 -25 -10 -25 -10 -62.5 -2.5 c 128,-1,56
 -100 5 -100 5 -100 18 c 0,57,58
 -100 27 -100 27 -89 27 c 0,59,60
 -82 27 -82 27 -72 23 c 0,61,62
 -42 11 -42 11 41 11 c 0,63,64
 190 11 190 11 323 128 c 1,65,66
 371 173 371 173 372 174 c 1,67,68
 278 181 278 181 214 199 c 0,69,70
 100 231 100 231 100 275 c 0,71,72
 100 290 100 290 116.5 300 c 128,-1,73
 133 310 133 310 160 310 c 0,74,75
 279 310 279 310 386 203 c 1,76,77
 395 203 395 203 399 202 c 1,78,79
 488 298 488 298 616 474 c 0,80,81
 661 535 661 535 706 592 c 0,82,83
 800 710 800 710 860 710 c 0,84,85
 899 710 899 710 899 676 c 0,86,87
 899 653 899 653 834.5 496.5 c 128,-1,88
 770 340 770 340 701 202 c 1,39,-1
EndSplineSet
EndChar

StartChar: Acircumflex
Encoding: 194 194 130
Width: 800
GlyphClass: 2
Flags: W
LayerCount: 2
Fore
SplineSet
850 780 m 128,-1,1
 879 800 879 800 886.5 810 c 128,-1,2
 894 820 894 820 904.5 820 c 128,-1,3
 915 820 915 820 924 811 c 0,4,5
 927 807 927 807 930.5 783.5 c 128,-1,6
 934 760 934 760 948 739 c 0,7,8
 950 735 950 735 950 734 c 0,9,10
 950 729 950 729 944 729 c 128,-1,11
 938 729 938 729 929 737.5 c 128,-1,12
 920 746 920 746 911 765 c 128,-1,13
 902 784 902 784 902 785 c 1,14,15
 878 763 878 763 791 733 c 1,16,17
 785 733 785 733 785 740.5 c 128,-1,18
 785 748 785 748 803 754 c 128,-1,0
 821 760 821 760 850 780 c 128,-1,1
133 274 m 0,19,20
 133 249 133 249 224 226 c 1,21,22
 276 214 276 214 350 206 c 1,23,24
 257 289 257 289 166 289 c 0,25,26
 133 289 133 289 133 274 c 0,19,20
529 7 m 0,27,28
 550 7 550 7 633 172 c 1,29,30
 521 170 521 170 493.5 170 c 128,-1,31
 466 170 466 170 416 172 c 1,32,33
 475 101 475 101 512 21 c 0,34,35
 518 7 518 7 529 7 c 0,27,28
842 684 m 0,36,37
 809 684 809 684 754 613.5 c 128,-1,38
 699 543 699 543 608.5 414 c 128,-1,39
 518 285 518 285 440 200 c 1,40,41
 510 198 510 198 562.5 198 c 128,-1,42
 615 198 615 198 647 200 c 1,43,44
 718 340 718 340 785.5 496 c 128,-1,45
 853 652 853 652 853 675 c 0,46,47
 853 684 853 684 842 684 c 0,36,37
701 202 m 1,48,-1
 909 217 l 2,49,50
 917 217 917 217 917 209 c 128,-1,51
 917 201 917 201 903.5 192 c 128,-1,52
 890 183 890 183 851 180 c 128,-1,53
 812 177 812 177 686 174 c 1,54,55
 584 -25 584 -25 542 -25 c 0,56,57
 514 -25 514 -25 502 0 c 0,58,59
 458 89 458 89 399 156 c 1,60,-1
 370 128 l 1,61,62
 222 -10 222 -10 25 -10 c 0,63,64
 -25 -10 -25 -10 -62.5 -2.5 c 128,-1,65
 -100 5 -100 5 -100 18 c 0,66,67
 -100 27 -100 27 -89 27 c 0,68,69
 -82 27 -82 27 -72 23 c 0,70,71
 -42 11 -42 11 41 11 c 0,72,73
 190 11 190 11 323 128 c 1,74,75
 371 173 371 173 372 174 c 1,76,77
 278 181 278 181 214 199 c 0,78,79
 100 231 100 231 100 275 c 0,80,81
 100 290 100 290 116.5 300 c 128,-1,82
 133 310 133 310 160 310 c 0,83,84
 279 310 279 310 386 203 c 1,85,86
 395 203 395 203 399 202 c 1,87,88
 488 298 488 298 616 474 c 0,89,90
 661 535 661 535 706 592 c 0,91,92
 800 710 800 710 860 710 c 0,93,94
 899 710 899 710 899 676 c 0,95,96
 899 653 899 653 834.5 496.5 c 128,-1,97
 770 340 770 340 701 202 c 1,48,-1
EndSplineSet
EndChar

StartChar: Atilde
Encoding: 195 195 131
Width: 800
GlyphClass: 2
Flags: W
LayerCount: 2
Fore
SplineSet
930 772 m 1,0,-1
 836 762 l 1,1,2
 814 762 814 762 797 775.5 c 128,-1,3
 780 789 780 789 773 813 c 1,4,5
 773 818 773 818 777.5 818 c 128,-1,6
 782 818 782 818 785 812 c 0,7,8
 800 788 800 788 834 788 c 1,9,-1
 918 797 l 1,10,11
 943 797 943 797 962.5 786 c 128,-1,12
 982 775 982 775 982 752 c 0,13,14
 982 746 982 746 977.5 746 c 128,-1,15
 973 746 973 746 970 752 c 0,16,17
 957 772 957 772 930 772 c 1,0,-1
133 274 m 0,18,19
 133 249 133 249 224 226 c 1,20,21
 276 214 276 214 350 206 c 1,22,23
 257 289 257 289 166 289 c 0,24,25
 133 289 133 289 133 274 c 0,18,19
529 7 m 0,26,27
 550 7 550 7 633 172 c 1,28,29
 521 170 521 170 493.5 170 c 128,-1,30
 466 170 466 170 416 172 c 1,31,32
 475 101 475 101 512 21 c 0,33,34
 518 7 518 7 529 7 c 0,26,27
842 684 m 0,35,36
 809 684 809 684 754 613.5 c 128,-1,37
 699 543 699 543 608.5 414 c 128,-1,38
 518 285 518 285 440 200 c 1,39,40
 510 198 510 198 562.5 198 c 128,-1,41
 615 198 615 198 647 200 c 1,42,43
 718 340 718 340 785.5 496 c 128,-1,44
 853 652 853 652 853 675 c 0,45,46
 853 684 853 684 842 684 c 0,35,36
701 202 m 1,47,-1
 909 217 l 2,48,49
 917 217 917 217 917 209 c 128,-1,50
 917 201 917 201 903.5 192 c 128,-1,51
 890 183 890 183 851 180 c 128,-1,52
 812 177 812 177 686 174 c 1,53,54
 584 -25 584 -25 542 -25 c 0,55,56
 514 -25 514 -25 502 0 c 0,57,58
 458 89 458 89 399 156 c 1,59,-1
 370 128 l 1,60,61
 222 -10 222 -10 25 -10 c 0,62,63
 -25 -10 -25 -10 -62.5 -2.5 c 128,-1,64
 -100 5 -100 5 -100 18 c 0,65,66
 -100 27 -100 27 -89 27 c 0,67,68
 -82 27 -82 27 -72 23 c 0,69,70
 -42 11 -42 11 41 11 c 0,71,72
 190 11 190 11 323 128 c 1,73,74
 371 173 371 173 372 174 c 1,75,76
 278 181 278 181 214 199 c 0,77,78
 100 231 100 231 100 275 c 0,79,80
 100 290 100 290 116.5 300 c 128,-1,81
 133 310 133 310 160 310 c 0,82,83
 279 310 279 310 386 203 c 1,84,85
 395 203 395 203 399 202 c 1,86,87
 488 298 488 298 616 474 c 0,88,89
 661 535 661 535 706 592 c 0,90,91
 800 710 800 710 860 710 c 0,92,93
 899 710 899 710 899 676 c 0,94,95
 899 653 899 653 834.5 496.5 c 128,-1,96
 770 340 770 340 701 202 c 1,47,-1
EndSplineSet
EndChar

StartChar: Adieresis
Encoding: 196 196 132
Width: 800
GlyphClass: 2
Flags: W
LayerCount: 2
Fore
SplineSet
864.5 805 m 128,-1,1
 870 799 870 799 870 788 c 128,-1,2
 870 777 870 777 855 760 c 128,-1,3
 840 743 840 743 829 743 c 128,-1,4
 818 743 818 743 813 749.5 c 128,-1,5
 808 756 808 756 808 764.5 c 128,-1,6
 808 773 808 773 824 792 c 128,-1,7
 840 811 840 811 849.5 811 c 128,-1,0
 859 811 859 811 864.5 805 c 128,-1,1
953.5 805 m 128,-1,9
 959 799 959 799 959 788 c 128,-1,10
 959 777 959 777 944 760 c 128,-1,11
 929 743 929 743 918 743 c 128,-1,12
 907 743 907 743 902 749.5 c 128,-1,13
 897 756 897 756 897 764.5 c 128,-1,14
 897 773 897 773 913 792 c 128,-1,15
 929 811 929 811 938.5 811 c 128,-1,8
 948 811 948 811 953.5 805 c 128,-1,9
133 274 m 0,16,17
 133 249 133 249 224 226 c 1,18,19
 276 214 276 214 350 206 c 1,20,21
 257 289 257 289 166 289 c 0,22,23
 133 289 133 289 133 274 c 0,16,17
529 7 m 0,24,25
 550 7 550 7 633 172 c 1,26,27
 521 170 521 170 493.5 170 c 128,-1,28
 466 170 466 170 416 172 c 1,29,30
 475 101 475 101 512 21 c 0,31,32
 518 7 518 7 529 7 c 0,24,25
842 684 m 0,33,34
 809 684 809 684 754 613.5 c 128,-1,35
 699 543 699 543 608.5 414 c 128,-1,36
 518 285 518 285 440 200 c 1,37,38
 510 198 510 198 562.5 198 c 128,-1,39
 615 198 615 198 647 200 c 1,40,41
 718 340 718 340 785.5 496 c 128,-1,42
 853 652 853 652 853 675 c 0,43,44
 853 684 853 684 842 684 c 0,33,34
701 202 m 1,45,-1
 909 217 l 2,46,47
 917 217 917 217 917 209 c 128,-1,48
 917 201 917 201 903.5 192 c 128,-1,49
 890 183 890 183 851 180 c 128,-1,50
 812 177 812 177 686 174 c 1,51,52
 584 -25 584 -25 542 -25 c 0,53,54
 514 -25 514 -25 502 0 c 0,55,56
 458 89 458 89 399 156 c 1,57,-1
 370 128 l 1,58,59
 222 -10 222 -10 25 -10 c 0,60,61
 -25 -10 -25 -10 -62.5 -2.5 c 128,-1,62
 -100 5 -100 5 -100 18 c 0,63,64
 -100 27 -100 27 -89 27 c 0,65,66
 -82 27 -82 27 -72 23 c 0,67,68
 -42 11 -42 11 41 11 c 0,69,70
 190 11 190 11 323 128 c 1,71,72
 371 173 371 173 372 174 c 1,73,74
 278 181 278 181 214 199 c 0,75,76
 100 231 100 231 100 275 c 0,77,78
 100 290 100 290 116.5 300 c 128,-1,79
 133 310 133 310 160 310 c 0,80,81
 279 310 279 310 386 203 c 1,82,83
 395 203 395 203 399 202 c 1,84,85
 488 298 488 298 616 474 c 0,86,87
 661 535 661 535 706 592 c 0,88,89
 800 710 800 710 860 710 c 0,90,91
 899 710 899 710 899 676 c 0,92,93
 899 653 899 653 834.5 496.5 c 128,-1,94
 770 340 770 340 701 202 c 1,45,-1
EndSplineSet
EndChar

StartChar: Aring
Encoding: 197 197 133
Width: 800
GlyphClass: 2
Flags: W
LayerCount: 2
Fore
SplineSet
936 798 m 0,0,1
 936 815 936 815 918.5 815 c 128,-1,2
 901 815 901 815 888.5 801 c 128,-1,3
 876 787 876 787 876 778 c 0,4,5
 876 760 876 760 893.5 760 c 128,-1,6
 911 760 911 760 923.5 773.5 c 128,-1,7
 936 787 936 787 936 798 c 0,0,1
878.5 808.5 m 128,-1,9
 897 830 897 830 924.5 830 c 128,-1,10
 952 830 952 830 952 801 c 0,11,12
 952 786 952 786 932.5 765.5 c 128,-1,13
 913 745 913 745 886.5 745 c 128,-1,14
 860 745 860 745 860 771 c 0,15,8
 860 787 860 787 878.5 808.5 c 128,-1,9
133 274 m 0,16,17
 133 249 133 249 224 226 c 1,18,19
 276 214 276 214 350 206 c 1,20,21
 257 289 257 289 166 289 c 0,22,23
 133 289 133 289 133 274 c 0,16,17
529 7 m 0,24,25
 550 7 550 7 633 172 c 1,26,27
 521 170 521 170 493.5 170 c 128,-1,28
 466 170 466 170 416 172 c 1,29,30
 475 101 475 101 512 21 c 0,31,32
 518 7 518 7 529 7 c 0,24,25
842 684 m 0,33,34
 809 684 809 684 754 613.5 c 128,-1,35
 699 543 699 543 608.5 414 c 128,-1,36
 518 285 518 285 440 200 c 1,37,38
 510 198 510 198 562.5 198 c 128,-1,39
 615 198 615 198 647 200 c 1,40,41
 718 340 718 340 785.5 496 c 128,-1,42
 853 652 853 652 853 675 c 0,43,44
 853 684 853 684 842 684 c 0,33,34
701 202 m 1,45,-1
 909 217 l 2,46,47
 917 217 917 217 917 209 c 128,-1,48
 917 201 917 201 903.5 192 c 128,-1,49
 890 183 890 183 851 180 c 128,-1,50
 812 177 812 177 686 174 c 1,51,52
 584 -25 584 -25 542 -25 c 0,53,54
 514 -25 514 -25 502 0 c 0,55,56
 458 89 458 89 399 156 c 1,57,-1
 370 128 l 1,58,59
 222 -10 222 -10 25 -10 c 0,60,61
 -25 -10 -25 -10 -62.5 -2.5 c 128,-1,62
 -100 5 -100 5 -100 18 c 0,63,64
 -100 27 -100 27 -89 27 c 0,65,66
 -82 27 -82 27 -72 23 c 0,67,68
 -42 11 -42 11 41 11 c 0,69,70
 190 11 190 11 323 128 c 1,71,72
 371 173 371 173 372 174 c 1,73,74
 278 181 278 181 214 199 c 0,75,76
 100 231 100 231 100 275 c 0,77,78
 100 290 100 290 116.5 300 c 128,-1,79
 133 310 133 310 160 310 c 0,80,81
 279 310 279 310 386 203 c 1,82,83
 395 203 395 203 399 202 c 1,84,85
 488 298 488 298 616 474 c 0,86,87
 661 535 661 535 706 592 c 0,88,89
 800 710 800 710 860 710 c 0,90,91
 899 710 899 710 899 676 c 0,92,93
 899 653 899 653 834.5 496.5 c 128,-1,94
 770 340 770 340 701 202 c 1,45,-1
EndSplineSet
EndChar

StartChar: AE
Encoding: 198 198 134
Width: 1231
GlyphClass: 2
Flags: W
LayerCount: 2
Fore
SplineSet
894 655 m 1,0,1
 880 613 880 613 872 593 c 1,2,3
 934 624 934 624 1012 653 c 1,4,5
 933 653 933 653 894 655 c 1,0,1
133 274 m 0,6,7
 133 249 133 249 224 226 c 1,8,9
 276 214 276 214 350 206 c 1,10,11
 257 289 257 289 166 289 c 0,12,13
 133 289 133 289 133 274 c 0,6,7
529 7 m 0,14,15
 549 7 549 7 632 172 c 1,16,17
 520 170 520 170 493 170 c 128,-1,18
 466 170 466 170 416 172 c 1,19,20
 475 101 475 101 512 21 c 0,21,22
 518 7 518 7 529 7 c 0,14,15
701 202 m 1,23,-1
 823 210 l 1,24,25
 881 244 881 244 975 288.5 c 128,-1,26
 1069 333 1069 333 1121.5 360.5 c 128,-1,27
 1174 388 1174 388 1174 404 c 0,28,29
 1174 412 1174 412 1156 412 c 1,30,31
 924 381 924 381 821 381 c 0,32,33
 796 381 796 381 785 382 c 1,34,35
 746 292 746 292 701 202 c 1,23,-1
842 684 m 0,36,37
 809 684 809 684 754 613.5 c 128,-1,38
 699 543 699 543 608.5 414 c 128,-1,39
 518 285 518 285 440 200 c 1,40,41
 510 198 510 198 562 198 c 128,-1,42
 614 198 614 198 646 200 c 1,43,44
 683 272 683 272 736 388 c 1,45,46
 683 401 683 401 683 432 c 0,47,48
 683 483 683 483 812 560 c 1,49,50
 853 662 853 662 853 673 c 128,-1,51
 853 684 853 684 842 684 c 0,36,37
790 679 m 128,-1,53
 829 710 829 710 862.5 710 c 128,-1,54
 896 710 896 710 899 681 c 1,55,56
 964 678 964 678 1004.5 678 c 128,-1,57
 1045 678 1045 678 1089 680 c 1,58,59
 1264 735 1264 735 1386 735 c 0,60,61
 1430 735 1430 735 1430 718 c 0,62,63
 1430 657 1430 657 1069 653 c 1,64,65
 942 609 942 609 849.5 551.5 c 128,-1,66
 757 494 757 494 757 457.5 c 128,-1,67
 757 421 757 421 852 421 c 0,68,69
 910 421 910 421 1026 437.5 c 128,-1,70
 1142 454 1142 454 1176 454 c 0,71,72
 1229 454 1229 454 1229 424 c 0,73,74
 1229 376 1229 376 1050 297 c 0,75,76
 976 264 976 264 901 228 c 128,-1,77
 826 192 826 192 774 146.5 c 128,-1,78
 722 101 722 101 722 55 c 0,79,80
 722 17 722 17 807 17 c 0,81,82
 854 17 854 17 949.5 31.5 c 128,-1,83
 1045 46 1045 46 1114 46 c 0,84,85
 1237 46 1237 46 1237 -22 c 0,86,87
 1237 -30 1237 -30 1228 -30 c 0,88,89
 1223 -30 1223 -30 1206 -21 c 0,90,91
 1153 6 1153 6 1090 6 c 1,92,93
 1057 4 1057 4 937 -9.5 c 128,-1,94
 817 -23 817 -23 785 -23 c 0,95,96
 665 -23 665 -23 665 40.5 c 128,-1,97
 665 104 665 104 770 177 c 1,98,99
 692 174 692 174 686 174 c 1,100,101
 584 -25 584 -25 542 -25 c 0,102,103
 514 -25 514 -25 502 0 c 0,104,105
 458 89 458 89 399 156 c 1,106,-1
 370 128 l 1,107,108
 222 -10 222 -10 25 -10 c 0,109,110
 -25 -10 -25 -10 -62.5 -2.5 c 128,-1,111
 -100 5 -100 5 -100 18 c 0,112,113
 -100 27 -100 27 -89 27 c 0,114,115
 -82 27 -82 27 -72 23 c 0,116,117
 -42 11 -42 11 41 11 c 0,118,119
 190 11 190 11 323 128 c 1,120,121
 371 173 371 173 372 174 c 1,122,123
 278 181 278 181 214 199 c 0,124,125
 100 231 100 231 100 275 c 0,126,127
 100 290 100 290 116.5 300 c 128,-1,128
 133 310 133 310 160 310 c 0,129,130
 279 310 279 310 386 203 c 1,131,132
 395 203 395 203 399 202 c 1,133,134
 488 298 488 298 616 474 c 0,135,136
 661 535 661 535 706 591.5 c 128,-1,52
 751 648 751 648 790 679 c 128,-1,53
EndSplineSet
EndChar

StartChar: Ccedilla
Encoding: 199 199 135
Width: 428
GlyphClass: 2
Flags: W
LayerCount: 2
Fore
SplineSet
69 364 m 1,0,1
 122 364 122 364 185 381 c 1,2,3
 303 516 303 516 436.5 609.5 c 128,-1,4
 570 703 570 703 662 703 c 0,5,6
 708 703 708 703 708 680 c 0,7,8
 708 649 708 649 638 591 c 128,-1,9
 568 533 568 533 456 472 c 128,-1,10
 344 411 344 411 236 375 c 1,11,12
 155 281 155 281 105 193 c 128,-1,13
 55 105 55 105 55 48 c 0,14,15
 55 -32 55 -32 157 -32 c 0,16,17
 214 -32 214 -32 283 4 c 128,-1,18
 352 40 352 40 397 75 c 0,19,20
 407 82 407 82 414.5 82 c 128,-1,21
 422 82 422 82 422 74 c 0,22,23
 422 69 422 69 418 65 c 0,24,25
 371 31 371 31 334.5 9 c 128,-1,26
 298 -13 298 -13 239 -34.5 c 128,-1,27
 180 -56 180 -56 126 -56 c 0,28,29
 0 -56 0 -56 0 41 c 0,30,31
 0 158 0 158 162 354 c 1,32,33
 114 342 114 342 70 339 c 1,34,35
 58 341 58 341 58 352 c 128,-1,36
 58 363 58 363 69 364 c 1,0,1
631 675 m 0,37,38
 572 675 572 675 467.5 596.5 c 128,-1,39
 363 518 363 518 261 404 c 1,40,41
 354 437 354 437 448.5 490.5 c 128,-1,42
 543 544 543 544 600 591.5 c 128,-1,43
 657 639 657 639 657 661 c 0,44,45
 657 675 657 675 631 675 c 0,37,38
8 -78 m 0,46,47
 0 -78 0 -78 -5 -74 c 128,-1,48
 -10 -70 -10 -70 -10 -66 c 0,49,50
 -10 -59 -10 -59 0 -59 c 0,51,52
 59 -59 59 -59 99.5 -78 c 128,-1,53
 140 -97 140 -97 140 -134 c 0,54,55
 140 -158 140 -158 124 -174 c 128,-1,56
 108 -190 108 -190 90.5 -196 c 128,-1,57
 73 -202 73 -202 44 -209.5 c 128,-1,58
 15 -217 15 -217 5.5 -220.5 c 128,-1,59
 -4 -224 -4 -224 -11.5 -234 c 128,-1,60
 -19 -244 -19 -244 -21.5 -244 c 128,-1,61
 -24 -244 -24 -244 -24 -237 c 0,62,63
 -24 -208 -24 -208 -2 -194 c 128,-1,64
 20 -180 20 -180 47 -177.5 c 128,-1,65
 74 -175 74 -175 96 -163.5 c 128,-1,66
 118 -152 118 -152 118 -130 c 0,67,68
 118 -78 118 -78 8 -78 c 0,46,47
EndSplineSet
EndChar

